<svg width="1787" height="987" viewBox="0 0 1787 987" fill="none" xmlns="http://www.w3.org/2000/svg">
<path fill-rule="evenodd" clip-rule="evenodd" d="M0.959321 98.68L178.121 98.68V196.601L0.959313 196.601L0.959321 98.68ZM179.639 296.04L356.801 296.04L356.801 393.961L179.639 393.961V296.04ZM535.481 493.4L358.319 493.4V591.321H535.481V493.4ZM536.999 986.8H536.24H535.48H358.319H357.56H356.801L179.639 986.8H178.88H178.121H0.959244H0.199951L0.199951 986.041L0.19996 888.12L0.19996 887.361L0.199968 789.44L0.199968 788.681L0.199976 690.76V690.001L0.199986 592.08L0.199986 591.321L0.199994 493.4L0.199994 492.641L0.200003 394.72L0.200003 393.961L0.200012 296.04L0.200012 295.281L0.20002 197.36L0.20002 196.601L0.200029 98.68L0.200029 97.9207L0.200037 0H0.95933L0.959321 97.9207L178.121 97.9207L178.121 1.57499e-05L178.88 1.58163e-05L179.639 1.58827e-05L179.639 97.9207L356.801 97.9207V3.13706e-05L357.56 3.1437e-05L358.319 3.15034e-05V97.9207L535.481 97.9208V4.69913e-05L536.24 4.70577e-05L536.999 4.71241e-05V97.9208L714.161 97.9208V6.2612e-05L714.92 6.26784e-05L715.679 6.27448e-05V97.9208L892.841 97.9208V7.82327e-05L893.6 7.82991e-05L894.359 7.83655e-05V97.9208L1071.52 97.9208V9.38534e-05L1072.28 9.39198e-05L1073.04 9.39862e-05V97.9208L1250.2 97.9208V0.000109474L1250.96 0.00010954L1251.72 0.000109607V97.9208L1428.88 97.9208V0.000125095L1429.64 0.000125161L1430.4 0.000125228V97.9208L1607.56 97.9208V0.000140716L1608.32 0.000140782L1609.08 0.000140848V97.9208L1786.24 97.9209V0.000156336L1787 0.000156403V97.9209V98.6802V196.601V197.36V295.281V296.04V393.961V394.72V492.641V493.4V591.321V592.08V690.001V690.76L1787 788.681V789.44V887.361V888.12V986.041V986.8H1786.24L1609.08 986.8H1608.32H1607.56H1430.4H1429.64H1428.88H1251.72H1250.96H1250.2H1073.04H1072.28H1071.52L894.359 986.8H893.6H892.841H715.679H714.92H714.161H536.999ZM0.959252 888.12L0.959244 986.041H178.121L178.121 888.12H0.959252ZM356.801 986.041H179.639L179.639 888.12L356.801 888.12V986.041ZM358.319 986.041L535.48 986.041V888.12H358.319V986.041ZM536.999 888.12H714.161V986.041H536.999V888.12ZM715.679 986.041H892.841V888.12H715.679V986.041ZM894.359 888.12L1071.52 888.12V986.041H894.359V888.12ZM1073.04 986.041L1250.2 986.041V888.12H1073.04V986.041ZM1251.72 888.12H1428.88V986.041H1251.72V888.12ZM1430.4 986.041H1607.56V888.12H1430.4V986.041ZM1609.08 888.12L1786.24 888.12V986.041H1609.08V888.12ZM0.959261 789.44L0.959252 887.361H178.121V789.44H0.959261ZM356.801 887.361H179.639V789.44L356.801 789.44V887.361ZM535.481 789.44H358.319V887.361L535.48 887.361L535.481 789.44ZM714.161 887.361H536.999V789.44H714.161L714.161 887.361ZM892.841 789.44H715.679V887.361H892.841L892.841 789.44ZM1071.52 887.361H894.359V789.44L1071.52 789.44V887.361ZM1250.2 789.44H1073.04L1073.04 887.361L1250.2 887.361V789.44ZM1428.88 887.361H1251.72V789.44H1428.88V887.361ZM1607.56 789.44H1430.4L1430.4 887.361H1607.56V789.44ZM1786.24 887.361H1609.08V789.44L1786.24 789.44V887.361ZM0.95927 690.76L0.959261 788.681H178.121L178.121 690.76H0.95927ZM356.801 788.681H179.639L179.639 690.76L356.801 690.76L356.801 788.681ZM358.319 788.681L535.481 788.681V690.76H358.319L358.319 788.681ZM536.999 690.76H714.161V788.681H536.999V690.76ZM715.679 788.681H892.841V690.76H715.679V788.681ZM894.359 690.76L1071.52 690.76V788.681H894.359V690.76ZM1073.04 788.681L1250.2 788.681V690.76H1073.04V788.681ZM1251.72 690.76H1428.88V788.681H1251.72V690.76ZM1430.4 788.681H1607.56V690.76H1430.4V788.681ZM1609.08 690.76L1786.24 690.76V788.681H1609.08V690.76ZM0.959278 592.08L0.95927 690.001H178.121L178.121 592.08H0.959278ZM356.801 690.001H179.639L179.639 592.08H356.801V690.001ZM358.319 690.001L535.481 690.001V592.08H358.319V690.001ZM536.999 592.08L714.161 592.08V690.001H536.999V592.08ZM715.679 690.001H892.841V592.08H715.679V690.001ZM894.359 592.08H1071.52V690.001H894.359V592.08ZM1073.04 690.001L1250.2 690.001V592.08H1073.04V690.001ZM1251.72 592.08L1428.88 592.08V690.001H1251.72V592.08ZM1430.4 690.001H1607.56V592.08H1430.4V690.001ZM1609.08 592.08H1786.24V690.001H1609.08V592.08ZM0.959287 493.4L0.959278 591.321L178.121 591.321V493.4L0.959287 493.4ZM356.801 591.321H179.639V493.4H356.801V591.321ZM714.161 591.321H536.999L536.999 493.4H714.161V591.321ZM892.841 493.4L715.679 493.4L715.679 591.321L892.841 591.321V493.4ZM1071.52 591.321H894.359L894.359 493.4H1071.52L1071.52 591.321ZM1250.2 493.4L1073.04 493.4V591.321H1250.2V493.4ZM1428.88 591.321H1251.72V493.4H1428.88L1428.88 591.321ZM1607.56 493.4L1430.4 493.4V591.321L1607.56 591.321V493.4ZM1786.24 591.321H1609.08V493.4H1786.24L1786.24 591.321ZM0.959296 394.72L0.959287 492.641H178.121L178.121 394.72L0.959296 394.72ZM356.801 492.641L179.639 492.641L179.639 394.72H356.801V492.641ZM358.319 492.641H535.481V394.72L358.319 394.72V492.641ZM536.999 394.72H714.161V492.641L536.999 492.641V394.72ZM715.679 492.641H892.841V394.72L715.679 394.72V492.641ZM894.359 394.72H1071.52V492.641L894.359 492.641V394.72ZM1073.04 492.641H1250.2V394.72L1073.04 394.72V492.641ZM1251.72 394.72H1428.88V492.641L1251.72 492.641V394.72ZM1430.4 492.641H1607.56V394.72L1430.4 394.72V492.641ZM1609.08 394.72H1786.24V492.641L1609.08 492.641V394.72ZM0.959304 296.04L0.959296 393.961H178.121V296.04H0.959304ZM358.319 393.961H535.481V296.04H358.319L358.319 393.961ZM536.999 296.04L714.161 296.04V393.961L536.999 393.961V296.04ZM715.679 393.961H892.841V296.04H715.679V393.961ZM894.359 296.04L1071.52 296.04V393.961L894.359 393.961V296.04ZM1073.04 393.961H1250.2V296.04H1073.04V393.961ZM1251.72 296.04L1428.88 296.04V393.961L1251.72 393.961V296.04ZM1430.4 393.961H1607.56V296.04H1430.4V393.961ZM1609.08 296.04L1786.24 296.04V393.961L1609.08 393.961V296.04ZM0.959313 197.36L0.959304 295.281L178.121 295.281L178.121 197.36L0.959313 197.36ZM356.801 295.281H179.639L179.639 197.36L356.801 197.36V295.281ZM358.319 295.281L535.481 295.281V197.36L358.319 197.36V295.281ZM536.999 197.36L714.161 197.36V295.281H536.999V197.36ZM715.679 295.281L892.841 295.281V197.36L715.679 197.36V295.281ZM894.359 197.36L1071.52 197.36V295.281H894.359V197.36ZM1073.04 295.281L1250.2 295.281V197.36L1073.04 197.36V295.281ZM1251.72 197.36L1428.88 197.36V295.281H1251.72V197.36ZM1430.4 295.281L1607.56 295.281V197.36L1430.4 197.36V295.281ZM1609.08 197.36L1786.24 197.36V295.281H1609.08V197.36ZM179.639 196.601V98.68L356.801 98.68V196.601L179.639 196.601ZM358.319 98.68V196.601L535.481 196.601L535.481 98.68L358.319 98.68ZM536.999 196.601V98.68L714.161 98.6801L714.161 196.601L536.999 196.601ZM715.679 98.6801V196.601L892.841 196.601L892.841 98.6801L715.679 98.6801ZM894.359 196.601V98.6801L1071.52 98.6801V196.601L894.359 196.601ZM1073.04 98.6801V196.601L1250.2 196.601V98.6801L1073.04 98.6801ZM1251.72 196.601L1251.72 98.6801L1428.88 98.6801V196.601L1251.72 196.601ZM1430.4 98.6801V196.601L1607.56 196.601V98.6801L1430.4 98.6801ZM1609.08 196.601L1609.08 98.6801L1786.24 98.6802V196.601L1609.08 196.601Z" fill="url(#paint0_linear_418_8692)"/>
<defs>
<linearGradient id="paint0_linear_418_8692" x1="893.6" y1="0" x2="893.6" y2="986.8" gradientUnits="userSpaceOnUse">
<stop stop-color="#0037FD" stop-opacity="0"/>
<stop offset="0.546875" stop-color="#0037FD" stop-opacity="0.22"/>
<stop offset="1" stop-color="#0037FD" stop-opacity="0"/>
</linearGradient>
</defs>
</svg>
