<svg width="75" height="40" viewBox="0 0 75 40" fill="none" xmlns="http://www.w3.org/2000/svg">
<path d="M8.502 30V8.56H6.646C5.814 10.576 4.662 11.216 2.294 11.216H1.174V12.944H6.23V30H8.502ZM21.7773 30.32C27.8573 30.32 31.6973 26.192 31.6973 19.28C31.6973 12.4 27.8573 8.24 21.7773 8.24C15.6653 8.24 11.8253 12.4 11.8253 19.28C11.8253 26.192 15.6653 30.32 21.7773 30.32ZM21.7773 28.144C16.7853 28.144 14.2253 25.264 14.2253 19.28C14.2253 13.296 16.7853 10.416 21.7773 10.416C26.7373 10.416 29.2973 13.296 29.2973 19.28C29.2973 25.264 26.7373 28.144 21.7773 28.144ZM44.2223 30.32C50.3023 30.32 54.1423 26.192 54.1423 19.28C54.1423 12.4 50.3023 8.24 44.2223 8.24C38.1103 8.24 34.2703 12.4 34.2703 19.28C34.2703 26.192 38.1103 30.32 44.2223 30.32ZM44.2223 28.144C39.2303 28.144 36.6703 25.264 36.6703 19.28C36.6703 13.296 39.2303 10.416 44.2223 10.416C49.1823 10.416 51.7423 13.296 51.7423 19.28C51.7423 25.264 49.1823 28.144 44.2223 28.144ZM58.6033 30L64.7473 23.312H64.8753L71.0833 30H73.8353L66.6033 22.064V21.904L73.8353 14.192H71.1153L64.9713 20.752H64.8113L58.6353 14.192H55.8833L63.0833 21.968V22.128L55.8833 30H58.6033Z" fill="#323232"/>
</svg>
