<svg width="121" height="41" viewBox="0 0 121 41" fill="none" xmlns="http://www.w3.org/2000/svg">
<rect x="1.16406" y="0.623047" width="119" height="39" rx="6.5" fill="#0C0D10"/>
<path d="M25.4301 20.4241C25.4518 18.7431 26.3545 17.1525 27.7867 16.272C26.8832 14.9817 25.3699 14.1636 23.7955 14.1144C22.1163 13.9381 20.4883 15.1192 19.6326 15.1192C18.7604 15.1192 17.4429 14.1319 16.0241 14.1611C14.1749 14.2208 12.4509 15.2722 11.5512 16.8889C9.61721 20.2373 11.0598 25.1584 12.9124 27.865C13.8393 29.1904 14.9226 30.6708 16.34 30.6183C17.7271 30.5608 18.2451 29.7338 19.9194 29.7338C21.5782 29.7338 22.0642 30.6183 23.5104 30.5849C24.9988 30.5608 25.9366 29.2537 26.8309 27.9158C27.4969 26.9714 28.0094 25.9277 28.3494 24.8233C26.6002 24.0835 25.4322 22.3232 25.4301 20.4241Z" fill="white"/>
<path d="M22.6985 12.3344C23.51 11.3602 23.9098 10.108 23.813 8.84375C22.5731 8.97397 21.4279 9.56653 20.6054 10.5034C19.8011 11.4187 19.3826 12.6488 19.4617 13.8647C20.702 13.8775 21.9213 13.301 22.6985 12.3344Z" fill="white"/>
<path d="M82.4251 13.298V15.589H80.9891V17.0915H82.4251V22.1965C82.4251 23.9396 83.2137 24.6369 85.1976 24.6369C85.5462 24.6369 85.8782 24.5954 86.1688 24.5456V23.0597C85.9197 23.0846 85.762 23.1013 85.4881 23.1013C84.5999 23.1013 84.2098 22.6862 84.2098 21.7399V17.0915H86.1688V15.589H84.2098V13.298H82.4251Z" fill="white"/>
<path d="M91.2226 24.7614C93.8622 24.7614 95.4809 22.9933 95.4809 20.0632C95.4809 17.1496 93.8539 15.3732 91.2226 15.3732C88.583 15.3732 86.956 17.1496 86.956 20.0632C86.956 22.9933 88.5746 24.7614 91.2226 24.7614ZM91.2226 23.176C89.6704 23.176 88.7988 22.0388 88.7988 20.0632C88.7988 18.1042 89.6704 16.9587 91.2226 16.9587C92.7665 16.9587 93.6464 18.1042 93.6464 20.0632C93.6464 22.0304 92.7665 23.176 91.2226 23.176Z" fill="white"/>
<path d="M96.8658 24.5871H98.6505V19.2497C98.6505 17.9797 99.6051 17.1247 100.958 17.1247C101.274 17.1247 101.805 17.1828 101.954 17.2326V15.4728C101.763 15.423 101.423 15.3981 101.157 15.3981C99.9786 15.3981 98.9742 16.0456 98.7169 16.9338H98.5841V15.5475H96.8658V24.5871Z" fill="white"/>
<path d="M106.385 16.8923C107.705 16.8923 108.569 17.8137 108.61 19.2331H104.045C104.144 17.822 105.066 16.8923 106.385 16.8923ZM108.602 22.1467C108.27 22.8522 107.531 23.2424 106.452 23.2424C105.024 23.2424 104.103 22.238 104.045 20.6525V20.5529H110.428V19.9304C110.428 17.0915 108.909 15.3732 106.394 15.3732C103.845 15.3732 102.227 17.2077 102.227 20.0964C102.227 22.985 103.812 24.7614 106.402 24.7614C108.469 24.7614 109.913 23.7653 110.32 22.1467H108.602Z" fill="white"/>
<path d="M70.7215 21.2489C70.8592 23.4686 72.7089 24.8882 75.4621 24.8882C78.4045 24.8882 80.2456 23.3998 80.2456 21.0252C80.2456 19.1583 79.196 18.1259 76.6493 17.5322L75.2814 17.1967C73.6639 16.8181 73.01 16.3105 73.01 15.4243C73.01 14.3059 74.0253 13.5746 75.5481 13.5746C76.9935 13.5746 77.9915 14.2887 78.1722 15.4329H80.0477C79.9359 13.3423 78.0947 11.8711 75.5739 11.8711C72.8638 11.8711 71.0571 13.3423 71.0571 15.5534C71.0571 17.3773 72.0809 18.4614 74.3264 18.9862L75.9266 19.3734C77.5699 19.7605 78.2926 20.3284 78.2926 21.2747C78.2926 22.376 77.1569 23.1761 75.6083 23.1761C73.9478 23.1761 72.795 22.4276 72.6315 21.2489H70.7215Z" fill="white"/>
<path d="M52.2342 15.3981C51.0057 15.3981 49.9432 16.0124 49.3953 17.0417H49.2625V15.5475H47.5442V27.592H49.3289V23.2175H49.47C49.9432 24.1721 50.9642 24.7365 52.2508 24.7365C54.5335 24.7365 55.9861 22.9352 55.9861 20.0632C55.9861 17.1911 54.5335 15.3981 52.2342 15.3981ZM51.7278 23.1345C50.2337 23.1345 49.2957 21.9557 49.2957 20.0715C49.2957 18.1789 50.2337 17.0002 51.7361 17.0002C53.2469 17.0002 54.1517 18.154 54.1517 20.0632C54.1517 21.9806 53.2469 23.1345 51.7278 23.1345Z" fill="white"/>
<path d="M62.231 15.3981C61.0025 15.3981 59.94 16.0124 59.3921 17.0417H59.2593V15.5475H57.541V27.592H59.3257V23.2175H59.4668C59.94 24.1721 60.961 24.7365 62.2476 24.7365C64.5303 24.7365 65.9829 22.9352 65.9829 20.0632C65.9829 17.1911 64.5303 15.3981 62.231 15.3981ZM61.7246 23.1345C60.2305 23.1345 59.2925 21.9557 59.2925 20.0715C59.2925 18.1789 60.2305 17.0002 61.7329 17.0002C63.2437 17.0002 64.1485 18.154 64.1485 20.0632C64.1485 21.9806 63.2437 23.1345 61.7246 23.1345Z" fill="white"/>
<path d="M44.3422 24.5871H46.3899L41.9074 12.1722H39.834L35.3516 24.5871H37.3304L38.4746 21.2919H43.2066L44.3422 24.5871ZM40.7718 14.4263H40.918L42.7162 19.6745H38.965L40.7718 14.4263Z" fill="white"/>
<rect x="1.16406" y="0.623047" width="119" height="39" rx="6.5" stroke="#A6A6A6"/>
</svg>
