<svg width="75" height="40" viewBox="0 0 75 40" fill="none" xmlns="http://www.w3.org/2000/svg">
<path d="M48.9861 8.83557C53.0211 9.06049 56.8221 9.64076 60.1216 11.9641C63.0455 14.0221 63.0973 16.9775 60.2363 19.1456C59.6201 19.6135 58.9453 20.0993 58.2121 20.3129C56.0507 20.9495 53.8803 21.6444 51.6626 21.9706C47.7019 22.5531 43.7906 22.1505 40.0795 20.5334C39.0907 20.1067 38.1657 19.5451 37.3311 18.8645C34.803 16.7728 34.8368 13.8781 37.5717 12.0496C39.1461 10.997 41.0174 10.3515 42.81 9.67C43.7321 9.32139 44.7712 9.25616 45.7654 9.12796C46.8809 8.99976 47.9988 8.92329 48.9861 8.83557Z" fill="#323232"/>
<path d="M39.7915 5.69346C38.253 6.52564 36.6989 7.13965 35.4214 8.11578C34.178 9.10809 33.0834 10.2738 32.1714 11.5772C31.5618 12.4206 31.0243 12.9267 29.9357 13.0706C25.2912 13.6554 20.7795 13.3518 16.5983 11.0847C15.48 10.4389 14.4934 9.58809 13.6902 8.57686C12.723 7.40505 12.831 6.02633 13.6497 4.72632C14.5651 3.27788 15.8988 2.35348 17.4732 1.7687C23.1703 -0.361236 28.9101 -0.705355 34.6769 1.49656C36.8406 2.32874 38.6669 3.60175 39.7915 5.69346Z" fill="#323232"/>
<path d="M36.3096 22.4022C39.8543 26.0301 44.4268 26.5991 49.0195 26.6621C53.6123 26.7251 58.0521 25.8861 61.572 22.5102C62.5639 23.7585 62.7168 25.3666 61.6552 26.5204C60.6971 27.5618 59.559 28.6031 58.2815 29.1676C52.6744 31.6552 46.8918 31.7429 41.0958 29.8536C39.1368 29.2149 37.3577 28.1668 36.1342 26.4124C35.2323 25.1012 35.2795 23.9114 36.3096 22.4022Z" fill="#323232"/>
<path d="M61.599 31.2819C62.6651 33.016 62.5122 34.5747 61.2392 35.9804C59.5591 37.8337 57.3391 38.6501 55 39.1921C49.3772 40.4944 43.8398 40.4112 38.66 37.5323C37.5804 36.9318 36.6358 35.9151 35.9206 34.8828C35.1671 33.7762 35.3785 32.4807 36.2219 31.2482C39.7643 34.8108 44.2626 35.5395 48.8689 35.5553C53.4751 35.571 58.0296 34.9188 61.599 31.2819Z" fill="#323232"/>
<path d="M13.7845 13.4575C17.0975 16.901 21.3843 17.4475 25.7049 17.7714C27.2456 17.8906 28.8267 17.6904 30.3719 17.497C31.0129 17.4183 31.2536 17.6184 31.4537 18.1155C31.6067 18.4933 31.7934 18.86 31.944 19.2401C32.4074 20.4006 31.8923 21.6579 30.68 21.8288C24.9852 22.6273 19.4635 22.3754 14.6729 18.6328C12.8826 17.2383 12.6194 15.6864 13.7845 13.4575Z" fill="#323232"/>
<path d="M13.78 22.4609C18.8091 26.9592 24.8143 26.9772 31.0714 26.3384C31.0714 27.6519 31.1052 28.8709 31.0422 30.0877C31.0026 30.2428 30.9252 30.3856 30.8169 30.5033C30.7085 30.6211 30.5727 30.7101 30.4214 30.7625C26.0963 31.2663 21.805 31.3023 17.7228 29.467C16.1146 28.7427 14.637 27.8183 13.6226 26.3182C12.7994 25.0766 12.8219 23.8441 13.78 22.4609Z" fill="#323232"/>
</svg>
