<svg width="64" height="50" viewBox="0 0 64 50" fill="none" xmlns="http://www.w3.org/2000/svg">
<path d="M0.00933516 34.2966L0 33.4667C0.194705 28.1403 1.21145 22.876 3.01422 17.8602C4.6458 13.3302 6.86757 9.10417 9.52394 5.09802C9.68324 4.87466 9.90578 4.70412 10.1629 4.6084C14.1324 2.84135 18.3003 1.55897 22.5766 0.788979C22.8877 0.732964 23.0413 0.829435 23.1823 1.10018C23.6501 1.98294 24.1158 2.86881 24.5079 3.78684C24.6241 4.05655 24.7371 4.16547 25.0763 4.1136C27.362 3.77279 29.6704 3.60806 31.9812 3.62087C34.3088 3.6149 36.6337 3.78063 38.937 4.11671C39.2201 4.15924 39.3249 4.08871 39.439 3.84597C39.8705 2.92587 40.3372 2.02236 40.7677 1.10225C40.9139 0.791054 41.1069 0.737113 41.4232 0.791054C45.6805 1.56621 49.831 2.84271 53.7882 4.59388C54.0723 4.71535 54.3141 4.91819 54.4831 5.17686C58.4392 11.072 61.3289 17.4297 62.8277 24.3912C63.4244 27.1885 63.7955 30.0292 63.9376 32.8858C64.0703 35.4221 63.9749 37.9501 63.8048 40.4791C63.8012 40.6816 63.7472 40.8801 63.6478 41.0567C63.5484 41.2332 63.4067 41.3823 63.2354 41.4904C58.6071 44.8129 53.48 47.3781 48.046 49.0899C47.9153 49.1314 47.7867 49.1812 47.657 49.2268C47.4195 49.2393 47.3459 49.0411 47.2359 48.8938C46.1054 47.3285 45.0847 45.6866 44.1813 43.98C44.0039 43.647 44.1377 43.5921 44.398 43.4914C46.0039 42.8673 47.5637 42.1304 49.0656 41.2861C49.4069 41.0963 49.4017 41.0309 49.1175 40.7456C48.4796 40.1056 47.9091 40.115 47.0803 40.4791C41.7738 42.8203 35.9928 43.8861 30.2003 43.591C25.4373 43.3592 20.7598 42.2368 16.4102 40.282C15.9476 40.0745 15.653 40.1015 15.2692 40.4251C14.51 41.0755 14.4902 41.0548 15.3657 41.5382C16.6892 42.2793 18.0672 42.9187 19.4877 43.451C19.8486 43.5848 19.9212 43.6927 19.7262 44.0578C18.7666 45.8519 17.6828 47.5766 16.4828 49.2195C14.6241 48.7538 12.8524 48.0494 11.0891 47.3109C7.37587 45.7364 3.85276 43.7466 0.587078 41.3795C0.471965 41.31 0.376545 41.2123 0.309909 41.0955C0.243274 40.9788 0.207643 40.8469 0.206411 40.7125C0.155586 39.6803 0.0757186 38.6503 0.00726068 37.6192C0.00726068 37.308 0.00726068 36.9968 0.00726068 36.6856L0.00933516 34.2966ZM36.8749 27.0582C36.8687 28.75 37.2452 30.056 38.0408 31.2292C40.1858 34.3941 44.3327 34.6524 46.7878 31.7894C48.9775 29.2334 48.8727 25.1505 46.5565 22.7066C44.6397 20.689 41.5716 20.4245 39.3757 22.1184C37.6736 23.4306 36.9475 25.2294 36.8749 27.0582ZM27.0938 27.3621C27.1107 26.3944 26.9175 25.4346 26.5274 24.5489C24.8118 20.607 19.9928 19.7834 17.213 22.9607C15.1447 25.3227 15.0877 29.2199 17.0875 31.6452C19.2418 34.2582 22.6886 34.53 25.096 32.2386C26.4787 30.9243 27.0751 29.2531 27.0938 27.3621Z" fill="#0037FD"/>
</svg>
