<svg width="32" height="25" viewBox="0 0 32 25" fill="none" xmlns="http://www.w3.org/2000/svg">
<path d="M0 17.9088V16.7296C0.0149001 16.7296 0.0298001 16.7271 0.045214 16.7266V17.9124L0 17.9088Z" fill="#4B4BFB"/>
<path d="M0.000513795 17.9102L0.0441864 17.9138C0.0441864 18.0679 0.0441864 18.222 0.0441864 18.3762C0.0292863 18.3762 0.0149001 18.3762 0 18.3762L0.000513795 17.9102Z" fill="#4B4BFB"/>
<path d="M0.045214 16.7272C0.0298001 16.7272 0.0149001 16.7272 0 16.7303V16.3193C0.0129099 16.3142 0.0270584 16.3131 0.0405898 16.3162L0.045214 16.7272Z" fill="#4B4BFB"/>
<path d="M0.0436867 16.7277L0.0390625 16.3167C0.135509 13.6785 0.639151 11.071 1.53215 8.58663C2.34035 6.34289 3.4409 4.24969 4.75673 2.26541C4.83564 2.15478 4.94587 2.07031 5.07323 2.0229C7.03952 1.14766 9.10409 0.512489 11.2223 0.131108C11.3765 0.103363 11.4525 0.151146 11.5224 0.285246C11.7541 0.722486 11.9848 1.16127 12.179 1.61598C12.2366 1.74956 12.2926 1.80351 12.4606 1.77782C13.5928 1.60901 14.7362 1.52742 15.8809 1.53377C17.0339 1.53081 18.1855 1.6129 19.3264 1.77936C19.4667 1.80043 19.5186 1.76549 19.5751 1.64526C19.7888 1.18953 20.02 0.74201 20.2333 0.286274C20.3057 0.132135 20.4013 0.105418 20.558 0.132135C22.6668 0.516078 24.7228 1.14834 26.6829 2.01571C26.8237 2.07587 26.9434 2.17634 27.0272 2.30446C28.9868 5.22436 30.4182 8.37341 31.1607 11.8215C31.4562 13.207 31.64 14.614 31.7104 16.029C31.7762 17.2852 31.7289 18.5373 31.6446 19.7899C31.6428 19.8903 31.6161 19.9886 31.5669 20.076C31.5176 20.1635 31.4474 20.2373 31.3626 20.2909C29.07 21.9365 26.5303 23.2071 23.8386 24.0549C23.7738 24.0755 23.7101 24.1002 23.6459 24.1228C23.5282 24.1289 23.4917 24.0308 23.4373 23.9578C22.8773 23.1825 22.3717 22.3693 21.9242 21.524C21.8363 21.3591 21.9026 21.3318 22.0315 21.282C22.827 20.9729 23.5996 20.6078 24.3436 20.1897C24.5127 20.0956 24.5101 20.0633 24.3693 19.922C24.0533 19.605 23.7707 19.6096 23.3602 19.7899C20.7316 20.9496 17.868 21.4775 14.9987 21.3313C12.6394 21.2165 10.3224 20.6605 8.16781 19.6923C7.93866 19.5896 7.79274 19.6029 7.60264 19.7632C7.22654 20.0854 7.21678 20.0751 7.65042 20.3145C8.30605 20.6816 8.98862 20.9983 9.69224 21.262C9.87104 21.3282 9.90701 21.3817 9.81042 21.5625C9.33508 22.4511 8.79823 23.3054 8.20378 24.1192C7.28306 23.8885 6.4055 23.5396 5.53204 23.1738C3.69269 22.3939 1.94752 21.4084 0.32987 20.2359C0.272849 20.2015 0.225583 20.1531 0.192575 20.0953C0.159568 20.0374 0.141918 19.9721 0.141308 19.9055C0.116132 19.3943 0.0765695 18.8841 0.0426591 18.3734C0.0426591 18.2193 0.0426591 18.0651 0.0426591 17.911L0.0436867 16.7277ZM18.305 13.1425C18.3019 13.9805 18.4884 14.6273 18.8825 15.2084C19.945 16.776 21.9992 16.9039 23.2153 15.4859C24.2999 14.2199 24.2481 12.1976 23.1008 10.9871C22.1513 9.98775 20.6315 9.85674 19.5437 10.6958C18.7006 11.3457 18.341 12.2366 18.305 13.1425ZM13.4599 13.293C13.4683 12.8137 13.3726 12.3383 13.1794 11.8996C12.3296 9.94716 9.94246 9.53921 8.56549 11.113C7.54098 12.2829 7.51272 14.2132 8.50332 15.4145C9.57047 16.7087 11.2778 16.8433 12.4703 15.7083C13.1552 15.0574 13.4507 14.2296 13.4599 13.293Z" fill="#4B4BFB"/>
</svg>
