<svg width="1388" height="338" viewBox="0 0 1388 338" fill="none" xmlns="http://www.w3.org/2000/svg">
<rect width="1388" height="338" fill="#EFF3FF"/>
<path d="M56.512 117.48C66.736 117.48 70.816 112.776 70.816 107.544C70.816 103.128 68.224 99.624 61.024 98.472L52 97.032C49.312 96.552 48.256 95.88 48.256 94.008C48.256 91.944 49.84 90.936 55.024 90.936C61.408 90.936 62.992 92.232 62.992 95.304V95.976H70.24V95.688C70.24 88.92 65.632 84.36 55.744 84.36C44.944 84.36 41.008 89.448 41.008 94.296C41.008 99.528 44.416 102.408 50.176 103.32L59.2 104.616C62.512 105.192 63.616 105.912 63.616 107.88C63.616 110.04 62.272 110.904 56.512 110.904C49.984 110.904 48.496 109.704 48.496 106.728V105.864H41.296V106.152C41.296 113.64 46.768 117.48 56.512 117.48ZM96.6921 117C103.892 117 107.252 113.544 107.252 108.072C107.252 103.752 104.372 100.776 98.4201 100.344V99.912C103.796 99.528 105.908 96.648 105.908 92.664C105.908 87.624 102.356 84.84 95.7801 84.84H76.4841V117H96.6921ZM83.6841 91.32H94.8681C97.5561 91.32 98.7081 92.28 98.7081 94.488C98.7081 96.696 97.6041 97.608 94.9641 97.608H83.6841V91.32ZM83.6841 103.56H95.8281C98.7561 103.56 99.9561 104.472 99.9561 107.016C99.9561 109.608 98.7561 110.52 95.8281 110.52H83.6841V103.56ZM130.693 117V91.32H142.645V84.84H111.541V91.32H123.493V117H130.693ZM160.251 117.48C167.691 117.48 172.155 114.504 172.155 109.992C172.155 106.008 169.755 103.848 163.323 103.128L158.187 102.504C155.019 102.12 154.347 101.592 154.347 100.344C154.347 98.808 155.259 98.184 158.859 98.184C163.275 98.184 164.235 99.192 164.235 101.16V101.448H171.435V101.304C171.435 95.448 166.971 92.472 159.099 92.472C150.843 92.472 147.243 95.832 147.243 100.056C147.243 104.088 149.931 106.248 154.731 106.776L161.499 107.592C164.331 107.976 165.051 108.36 165.051 109.704C165.051 111.144 164.139 111.768 160.299 111.768C156.219 111.768 154.875 111.192 154.875 109.032V108.6H147.675V108.744C147.675 114.312 152.139 117.48 160.251 117.48ZM195.618 117.48C200.946 117.48 204.306 115.224 205.41 111.48H205.794V117H212.514V102.888C212.514 96.6 208.722 92.472 200.706 92.472C192.786 92.472 187.794 96.6 187.794 102.552V102.696H195.042V102.504C195.042 99.768 196.53 98.808 200.178 98.808C204.018 98.808 205.41 99.672 205.41 102.792V103.704L195.09 104.76C189.954 105.288 187.314 107.496 187.314 111.048C187.314 115.08 190.434 117.48 195.618 117.48ZM194.562 110.568C194.562 109.416 195.33 108.936 197.058 108.792L205.41 107.832C205.218 111.24 202.578 112.392 197.682 112.392C195.57 112.392 194.562 111.864 194.562 110.568ZM231.188 117.48C238.628 117.48 243.092 114.504 243.092 109.992C243.092 106.008 240.692 103.848 234.26 103.128L229.124 102.504C225.956 102.12 225.284 101.592 225.284 100.344C225.284 98.808 226.196 98.184 229.796 98.184C234.212 98.184 235.172 99.192 235.172 101.16V101.448H242.372V101.304C242.372 95.448 237.908 92.472 230.036 92.472C221.78 92.472 218.18 95.832 218.18 100.056C218.18 104.088 220.868 106.248 225.668 106.776L232.436 107.592C235.268 107.976 235.988 108.36 235.988 109.704C235.988 111.144 235.076 111.768 231.236 111.768C227.156 111.768 225.812 111.192 225.812 109.032V108.6H218.612V108.744C218.612 114.312 223.076 117.48 231.188 117.48ZM266.555 117.48C271.883 117.48 275.243 115.224 276.347 111.48H276.731V117H283.451V102.888C283.451 96.6 279.659 92.472 271.643 92.472C263.723 92.472 258.731 96.6 258.731 102.552V102.696H265.979V102.504C265.979 99.768 267.467 98.808 271.115 98.808C274.955 98.808 276.347 99.672 276.347 102.792V103.704L266.027 104.76C260.891 105.288 258.251 107.496 258.251 111.048C258.251 115.08 261.371 117.48 266.555 117.48ZM265.499 110.568C265.499 109.416 266.267 108.936 267.995 108.792L276.347 107.832C276.155 111.24 273.515 112.392 268.619 112.392C266.507 112.392 265.499 111.864 265.499 110.568ZM317.211 117V110.52H312.891C310.347 110.52 309.435 109.896 309.435 107.496V98.904H317.211V92.952H309.435V88.296H302.235V92.952H298.443V98.904H302.235V108.312C302.235 114.36 305.643 117 311.259 117H317.211ZM329.987 117V103.08C329.987 100.056 331.139 98.568 334.355 98.568C337.283 98.568 338.339 99.72 338.339 102.36V104.856H345.539V100.872C345.539 96.168 343.331 92.472 337.955 92.472C333.107 92.472 330.563 95.448 329.891 99.336H329.459V92.952H322.787V117H329.987ZM358.419 117.48C363.747 117.48 367.107 115.224 368.211 111.48H368.595V117H375.315V102.888C375.315 96.6 371.523 92.472 363.507 92.472C355.587 92.472 350.595 96.6 350.595 102.552V102.696H357.843V102.504C357.843 99.768 359.331 98.808 362.979 98.808C366.819 98.808 368.211 99.672 368.211 102.792V103.704L357.891 104.76C352.755 105.288 350.115 107.496 350.115 111.048C350.115 115.08 353.235 117.48 358.419 117.48ZM357.363 110.568C357.363 109.416 358.131 108.936 359.859 108.792L368.211 107.832C368.019 111.24 365.379 112.392 360.483 112.392C358.371 112.392 357.363 111.864 357.363 110.568ZM392.596 117.48C398.116 117.48 401.284 115.08 402.196 110.328H402.58V117H409.3V84.84H402.1V99.336H401.668C400.852 95.304 397.924 92.472 392.212 92.472C385.06 92.472 380.98 97.32 380.98 105C380.98 112.584 385.108 117.48 392.596 117.48ZM388.276 105C388.276 100.584 390.436 99.048 395.044 99.048C399.652 99.048 402.1 100.584 402.1 104.76V105.144C402.1 109.32 399.604 110.904 395.044 110.904C390.436 110.904 388.276 109.368 388.276 105ZM423.19 90.504V84.84H415.99V90.504H423.19ZM423.19 117V92.952H415.99V117H423.19ZM437.039 117V104.856C437.039 100.776 438.671 98.952 443.231 98.952C447.647 98.952 449.231 100.584 449.231 104.424V117H456.431V102.024C456.431 96.696 453.311 92.472 446.735 92.472C440.447 92.472 437.567 96.312 436.943 100.344H436.511V92.952H429.839V117H437.039ZM473.513 114.552C478.889 114.552 481.721 112.104 482.489 108.552H482.873V113.976C482.873 118.68 481.481 119.64 476.873 119.64C471.977 119.64 470.921 118.824 470.921 116.136H463.721C463.721 122.184 468.617 125.64 476.393 125.64C484.985 125.64 490.073 121.896 490.073 113.496V92.952H483.353V98.76H482.969C482.201 94.584 478.697 92.472 473.801 92.472C466.601 92.472 462.233 96.792 462.233 103.512C462.233 110.28 466.361 114.552 473.513 114.552ZM469.481 103.512C469.481 99.96 471.497 98.712 476.105 98.712C480.569 98.712 482.873 99.96 482.873 103.224V103.752C482.873 107.064 480.617 108.36 476.009 108.36C471.497 108.36 469.481 107.064 469.481 103.512ZM514.257 117V103.08C514.257 100.056 515.409 98.568 518.625 98.568C521.553 98.568 522.609 99.72 522.609 102.36V104.856H529.809V100.872C529.809 96.168 527.601 92.472 522.225 92.472C517.377 92.472 514.833 95.448 514.161 99.336H513.729V92.952H507.057V117H514.257ZM548.064 117.48C555.696 117.48 560.784 113.832 560.784 108.6V108.072H553.584V108.552C553.584 110.616 552.096 111.72 547.824 111.72C543.168 111.72 541.44 110.136 541.248 106.44H560.832C560.928 105.624 561.024 105 561.024 104.136C561.024 96.6 555.792 92.472 547.92 92.472C540 92.472 534.576 97.32 534.576 105C534.576 113.544 540.048 117.48 548.064 117.48ZM547.776 98.088C552 98.088 553.92 99.48 554.112 102.648H541.344C541.68 99.528 543.504 98.088 547.776 98.088ZM574.157 125.16V110.52H574.493C575.309 114.744 578.381 117.48 583.949 117.48C591.197 117.48 595.229 112.632 595.229 105C595.229 97.368 591.101 92.472 583.709 92.472C578.045 92.472 574.973 94.92 574.109 99.528H573.629V92.952H566.957V125.16H574.157ZM574.157 105.336V104.952C574.157 100.68 576.557 99.096 581.213 99.096C585.773 99.096 587.933 100.584 587.933 105C587.933 109.368 585.773 110.904 581.165 110.904C576.653 110.904 574.157 109.464 574.157 105.336ZM611.039 117.48C617.375 117.48 620.303 113.688 620.927 109.656H621.311V117H628.031V92.952H620.831V105.144C620.831 109.224 619.151 111.048 614.447 111.048C609.887 111.048 608.255 109.416 608.255 105.528V92.952H601.055V107.928C601.055 113.304 604.271 117.48 611.039 117.48ZM651.536 117V110.52H647.216C644.672 110.52 643.76 109.896 643.76 107.496V98.904H651.536V92.952H643.76V88.296H636.56V92.952H632.768V98.904H636.56V108.312C636.56 114.36 639.968 117 645.584 117H651.536ZM664.505 117.48C669.833 117.48 673.193 115.224 674.297 111.48H674.681V117H681.401V102.888C681.401 96.6 677.609 92.472 669.593 92.472C661.673 92.472 656.681 96.6 656.681 102.552V102.696H663.929V102.504C663.929 99.768 665.417 98.808 669.065 98.808C672.905 98.808 674.297 99.672 674.297 102.792V103.704L663.977 104.76C658.841 105.288 656.201 107.496 656.201 111.048C656.201 115.08 659.321 117.48 664.505 117.48ZM663.449 110.568C663.449 109.416 664.217 108.936 665.945 108.792L674.297 107.832C674.105 111.24 671.465 112.392 666.569 112.392C664.457 112.392 663.449 111.864 663.449 110.568ZM704.875 117V110.52H700.555C698.011 110.52 697.099 109.896 697.099 107.496V98.904H704.875V92.952H697.099V88.296H689.899V92.952H686.107V98.904H689.899V108.312C689.899 114.36 693.307 117 698.923 117H704.875ZM717.651 90.504V84.84H710.451V90.504H717.651ZM717.651 117V92.952H710.451V117H717.651ZM737.116 117.48C745.324 117.48 750.844 112.584 750.844 105C750.844 97.32 745.324 92.472 737.116 92.472C728.908 92.472 723.388 97.32 723.388 105C723.388 112.584 728.908 117.48 737.116 117.48ZM737.116 111.096C732.22 111.096 730.54 109.224 730.54 105C730.54 100.776 732.22 98.808 737.116 98.808C741.964 98.808 743.692 100.776 743.692 105C743.692 109.224 741.964 111.096 737.116 111.096ZM763.864 117V104.856C763.864 100.776 765.496 98.952 770.056 98.952C774.472 98.952 776.056 100.584 776.056 104.424V117H783.256V102.024C783.256 96.696 780.136 92.472 773.56 92.472C767.272 92.472 764.392 96.312 763.768 100.344H763.336V92.952H756.664V117H763.864Z" fill="#0037FD"/>
<path d="M42.8182 214V190.727H56.8636V193.227H45.6364V201.091H56.1364V203.591H45.6364V211.5H57.0455V214H42.8182ZM68.6359 214.409C67.5298 214.409 66.5261 214.201 65.6245 213.784C64.723 213.36 64.0071 212.75 63.4768 211.955C62.9465 211.152 62.6814 210.182 62.6814 209.045C62.6814 208.045 62.8783 207.235 63.2723 206.614C63.6662 205.985 64.1927 205.492 64.8518 205.136C65.5109 204.78 66.2382 204.515 67.0336 204.341C67.8367 204.159 68.6435 204.015 69.4541 203.909C70.5147 203.773 71.3745 203.67 72.0336 203.602C72.7003 203.527 73.1852 203.402 73.4882 203.227C73.7988 203.053 73.9541 202.75 73.9541 202.318V202.227C73.9541 201.106 73.6473 200.235 73.0336 199.614C72.4276 198.992 71.5071 198.682 70.2723 198.682C68.992 198.682 67.9882 198.962 67.2609 199.523C66.5336 200.083 66.0223 200.682 65.7268 201.318L63.1814 200.409C63.6359 199.348 64.242 198.523 64.9995 197.932C65.7647 197.333 66.598 196.917 67.4995 196.682C68.4086 196.439 69.3026 196.318 70.1814 196.318C70.742 196.318 71.3859 196.386 72.1132 196.523C72.848 196.652 73.5564 196.92 74.2382 197.33C74.9276 197.739 75.4995 198.356 75.9541 199.182C76.4086 200.008 76.6359 201.114 76.6359 202.5V214H73.9541V211.636H73.8177C73.6359 212.015 73.3329 212.42 72.9086 212.852C72.4844 213.284 71.92 213.652 71.2155 213.955C70.5109 214.258 69.6511 214.409 68.6359 214.409ZM69.045 212C70.1056 212 70.9995 211.792 71.7268 211.375C72.4617 210.958 73.0147 210.42 73.3859 209.761C73.7647 209.102 73.9541 208.409 73.9541 207.682V205.227C73.8405 205.364 73.5905 205.489 73.2041 205.602C72.8253 205.708 72.3859 205.803 71.8859 205.886C71.3935 205.962 70.9124 206.03 70.4427 206.091C69.9806 206.144 69.6056 206.189 69.3177 206.227C68.6208 206.318 67.9692 206.466 67.3632 206.67C66.7647 206.867 66.2798 207.167 65.9086 207.568C65.545 207.962 65.3632 208.5 65.3632 209.182C65.3632 210.114 65.7079 210.818 66.3973 211.295C67.0942 211.765 67.9768 212 69.045 212ZM83.4508 214V196.545H86.0417V199.182H86.2235C86.5417 198.318 87.1175 197.617 87.9508 197.08C88.7841 196.542 89.7235 196.273 90.769 196.273C90.9659 196.273 91.2122 196.277 91.5076 196.284C91.8031 196.292 92.0266 196.303 92.1781 196.318V199.045C92.0872 199.023 91.8788 198.989 91.5531 198.943C91.2349 198.89 90.8978 198.864 90.5417 198.864C89.6932 198.864 88.9356 199.042 88.269 199.398C87.6099 199.746 87.0872 200.231 86.7008 200.852C86.322 201.466 86.1326 202.167 86.1326 202.955V214H83.4508ZM99.9589 203.5V214H97.277V196.545H99.868V199.273H100.095C100.504 198.386 101.126 197.674 101.959 197.136C102.792 196.591 103.868 196.318 105.186 196.318C106.368 196.318 107.402 196.561 108.288 197.045C109.175 197.523 109.864 198.25 110.357 199.227C110.849 200.197 111.095 201.424 111.095 202.909V214H108.413V203.091C108.413 201.72 108.057 200.652 107.345 199.886C106.633 199.114 105.656 198.727 104.413 198.727C103.557 198.727 102.792 198.913 102.118 199.284C101.451 199.655 100.925 200.197 100.538 200.909C100.152 201.621 99.9589 202.485 99.9589 203.5ZM141.927 196.545C141.79 195.394 141.237 194.5 140.268 193.864C139.298 193.227 138.109 192.909 136.699 192.909C135.669 192.909 134.768 193.076 133.995 193.409C133.23 193.742 132.631 194.201 132.199 194.784C131.775 195.367 131.563 196.03 131.563 196.773C131.563 197.394 131.711 197.928 132.006 198.375C132.309 198.814 132.696 199.182 133.165 199.477C133.635 199.765 134.127 200.004 134.643 200.193C135.158 200.375 135.631 200.523 136.063 200.636L138.427 201.273C139.033 201.432 139.707 201.652 140.449 201.932C141.199 202.212 141.915 202.595 142.597 203.08C143.287 203.557 143.855 204.17 144.302 204.92C144.749 205.67 144.972 206.591 144.972 207.682C144.972 208.939 144.643 210.076 143.984 211.091C143.332 212.106 142.377 212.913 141.12 213.511C139.87 214.11 138.351 214.409 136.563 214.409C134.896 214.409 133.453 214.14 132.234 213.602C131.021 213.064 130.067 212.314 129.37 211.352C128.68 210.39 128.29 209.273 128.199 208H131.109C131.184 208.879 131.48 209.606 131.995 210.182C132.518 210.75 133.177 211.174 133.972 211.455C134.775 211.727 135.639 211.864 136.563 211.864C137.639 211.864 138.605 211.689 139.461 211.341C140.317 210.985 140.995 210.492 141.495 209.864C141.995 209.227 142.245 208.485 142.245 207.636C142.245 206.864 142.029 206.235 141.597 205.75C141.165 205.265 140.597 204.871 139.893 204.568C139.188 204.265 138.427 204 137.609 203.773L134.745 202.955C132.927 202.432 131.487 201.686 130.427 200.716C129.366 199.746 128.836 198.477 128.836 196.909C128.836 195.606 129.188 194.47 129.893 193.5C130.605 192.523 131.559 191.765 132.756 191.227C133.961 190.682 135.305 190.409 136.79 190.409C138.29 190.409 139.624 190.678 140.79 191.216C141.957 191.746 142.881 192.473 143.563 193.398C144.252 194.322 144.616 195.371 144.654 196.545H141.927ZM151.526 214V190.727H159.662C161.283 190.727 162.62 191.008 163.673 191.568C164.726 192.121 165.511 192.867 166.026 193.807C166.541 194.739 166.798 195.773 166.798 196.909C166.798 197.909 166.62 198.735 166.264 199.386C165.916 200.038 165.454 200.553 164.878 200.932C164.31 201.311 163.692 201.591 163.026 201.773V202C163.738 202.045 164.454 202.295 165.173 202.75C165.893 203.205 166.495 203.856 166.98 204.705C167.465 205.553 167.707 206.591 167.707 207.818C167.707 208.985 167.442 210.034 166.912 210.966C166.382 211.898 165.545 212.636 164.401 213.182C163.257 213.727 161.768 214 159.935 214H151.526ZM154.344 211.5H159.935C161.776 211.5 163.082 211.144 163.855 210.432C164.636 209.712 165.026 208.841 165.026 207.818C165.026 207.03 164.825 206.303 164.423 205.636C164.022 204.962 163.45 204.424 162.707 204.023C161.965 203.614 161.086 203.409 160.071 203.409H154.344V211.5ZM154.344 200.955H159.571C160.42 200.955 161.185 200.788 161.867 200.455C162.556 200.121 163.101 199.652 163.503 199.045C163.912 198.439 164.117 197.727 164.117 196.909C164.117 195.886 163.761 195.019 163.048 194.307C162.336 193.587 161.207 193.227 159.662 193.227H154.344V200.955ZM172.985 193.227V190.727H190.44V193.227H183.122V214H180.304V193.227H172.985ZM206.334 200.455L203.925 201.136C203.774 200.735 203.55 200.345 203.255 199.966C202.967 199.58 202.573 199.261 202.073 199.011C201.573 198.761 200.933 198.636 200.153 198.636C199.084 198.636 198.194 198.883 197.482 199.375C196.778 199.86 196.425 200.477 196.425 201.227C196.425 201.894 196.668 202.42 197.153 202.807C197.637 203.193 198.395 203.515 199.425 203.773L202.016 204.409C203.577 204.788 204.74 205.367 205.505 206.148C206.27 206.92 206.653 207.917 206.653 209.136C206.653 210.136 206.365 211.03 205.789 211.818C205.221 212.606 204.425 213.227 203.403 213.682C202.38 214.136 201.19 214.364 199.834 214.364C198.054 214.364 196.581 213.977 195.414 213.205C194.247 212.432 193.509 211.303 193.198 209.818L195.744 209.182C195.986 210.121 196.444 210.826 197.119 211.295C197.8 211.765 198.69 212 199.789 212C201.039 212 202.031 211.735 202.766 211.205C203.509 210.667 203.88 210.023 203.88 209.273C203.88 208.667 203.668 208.159 203.244 207.75C202.819 207.333 202.168 207.023 201.289 206.818L198.38 206.136C196.781 205.758 195.607 205.17 194.857 204.375C194.115 203.572 193.744 202.568 193.744 201.364C193.744 200.379 194.02 199.508 194.573 198.75C195.134 197.992 195.895 197.398 196.857 196.966C197.827 196.534 198.925 196.318 200.153 196.318C201.88 196.318 203.236 196.697 204.221 197.455C205.213 198.212 205.918 199.212 206.334 200.455ZM216.61 210.818L216.428 212.045C216.299 212.909 216.102 213.833 215.837 214.818C215.579 215.803 215.31 216.731 215.03 217.602C214.75 218.473 214.519 219.167 214.337 219.682H212.291C212.39 219.197 212.519 218.557 212.678 217.761C212.837 216.966 212.996 216.076 213.155 215.091C213.322 214.114 213.458 213.114 213.564 212.091L213.7 210.818H216.61ZM247.509 196.545C247.373 195.394 246.82 194.5 245.85 193.864C244.88 193.227 243.691 192.909 242.282 192.909C241.252 192.909 240.35 193.076 239.577 193.409C238.812 193.742 238.214 194.201 237.782 194.784C237.358 195.367 237.146 196.03 237.146 196.773C237.146 197.394 237.293 197.928 237.589 198.375C237.892 198.814 238.278 199.182 238.748 199.477C239.218 199.765 239.71 200.004 240.225 200.193C240.74 200.375 241.214 200.523 241.646 200.636L244.009 201.273C244.615 201.432 245.29 201.652 246.032 201.932C246.782 202.212 247.498 202.595 248.18 203.08C248.869 203.557 249.437 204.17 249.884 204.92C250.331 205.67 250.555 206.591 250.555 207.682C250.555 208.939 250.225 210.076 249.566 211.091C248.915 212.106 247.96 212.913 246.702 213.511C245.452 214.11 243.933 214.409 242.146 214.409C240.479 214.409 239.036 214.14 237.816 213.602C236.604 213.064 235.649 212.314 234.952 211.352C234.263 210.39 233.873 209.273 233.782 208H236.691C236.767 208.879 237.062 209.606 237.577 210.182C238.1 210.75 238.759 211.174 239.555 211.455C240.358 211.727 241.221 211.864 242.146 211.864C243.221 211.864 244.187 211.689 245.043 211.341C245.899 210.985 246.577 210.492 247.077 209.864C247.577 209.227 247.827 208.485 247.827 207.636C247.827 206.864 247.611 206.235 247.18 205.75C246.748 205.265 246.18 204.871 245.475 204.568C244.771 204.265 244.009 204 243.191 203.773L240.327 202.955C238.509 202.432 237.07 201.686 236.009 200.716C234.949 199.746 234.418 198.477 234.418 196.909C234.418 195.606 234.771 194.47 235.475 193.5C236.187 192.523 237.142 191.765 238.339 191.227C239.543 190.682 240.888 190.409 242.373 190.409C243.873 190.409 245.206 190.678 246.373 191.216C247.54 191.746 248.464 192.473 249.146 193.398C249.835 194.322 250.199 195.371 250.236 196.545H247.509ZM259.426 203.5V214H256.745V190.727H259.426V199.273H259.654C260.063 198.371 260.676 197.655 261.495 197.125C262.32 196.587 263.419 196.318 264.79 196.318C265.979 196.318 267.021 196.557 267.915 197.034C268.809 197.504 269.502 198.227 269.995 199.205C270.495 200.174 270.745 201.409 270.745 202.909V214H268.063V203.091C268.063 201.705 267.703 200.633 266.983 199.875C266.271 199.11 265.282 198.727 264.017 198.727C263.138 198.727 262.351 198.913 261.654 199.284C260.964 199.655 260.419 200.197 260.017 200.909C259.623 201.621 259.426 202.485 259.426 203.5ZM284.662 214.364C283.086 214.364 281.703 213.989 280.514 213.239C279.332 212.489 278.408 211.439 277.741 210.091C277.082 208.742 276.753 207.167 276.753 205.364C276.753 203.545 277.082 201.958 277.741 200.602C278.408 199.246 279.332 198.193 280.514 197.443C281.703 196.693 283.086 196.318 284.662 196.318C286.237 196.318 287.616 196.693 288.798 197.443C289.987 198.193 290.912 199.246 291.571 200.602C292.237 201.958 292.571 203.545 292.571 205.364C292.571 207.167 292.237 208.742 291.571 210.091C290.912 211.439 289.987 212.489 288.798 213.239C287.616 213.989 286.237 214.364 284.662 214.364ZM284.662 211.955C285.859 211.955 286.844 211.648 287.616 211.034C288.389 210.42 288.961 209.614 289.332 208.614C289.703 207.614 289.889 206.53 289.889 205.364C289.889 204.197 289.703 203.11 289.332 202.102C288.961 201.095 288.389 200.28 287.616 199.659C286.844 199.038 285.859 198.727 284.662 198.727C283.465 198.727 282.48 199.038 281.707 199.659C280.934 200.28 280.362 201.095 279.991 202.102C279.62 203.11 279.434 204.197 279.434 205.364C279.434 206.53 279.62 207.614 279.991 208.614C280.362 209.614 280.934 210.42 281.707 211.034C282.48 211.648 283.465 211.955 284.662 211.955ZM301.945 214L296.627 196.545H299.445L303.218 209.909H303.4L307.127 196.545H309.991L313.673 209.864H313.854L317.627 196.545H320.445L315.127 214H312.491L308.673 200.591H308.4L304.582 214H301.945ZM332.408 214.364C330.772 214.364 329.362 213.977 328.181 213.205C326.999 212.432 326.09 211.367 325.453 210.011C324.817 208.655 324.499 207.106 324.499 205.364C324.499 203.591 324.825 202.027 325.476 200.67C326.135 199.307 327.052 198.242 328.226 197.477C329.408 196.705 330.787 196.318 332.362 196.318C333.59 196.318 334.696 196.545 335.681 197C336.666 197.455 337.472 198.091 338.101 198.909C338.73 199.727 339.12 200.682 339.272 201.773H336.59C336.385 200.977 335.931 200.273 335.226 199.659C334.529 199.038 333.59 198.727 332.408 198.727C331.362 198.727 330.446 199 329.658 199.545C328.878 200.083 328.268 200.845 327.828 201.83C327.397 202.807 327.181 203.955 327.181 205.273C327.181 206.621 327.393 207.795 327.817 208.795C328.249 209.795 328.855 210.572 329.635 211.125C330.423 211.678 331.347 211.955 332.408 211.955C333.105 211.955 333.737 211.833 334.306 211.591C334.874 211.348 335.355 211 335.749 210.545C336.143 210.091 336.423 209.545 336.59 208.909H339.272C339.12 209.939 338.745 210.867 338.147 211.693C337.556 212.511 336.772 213.163 335.794 213.648C334.825 214.125 333.696 214.364 332.408 214.364ZM350.248 214.409C349.142 214.409 348.139 214.201 347.237 213.784C346.336 213.36 345.62 212.75 345.089 211.955C344.559 211.152 344.294 210.182 344.294 209.045C344.294 208.045 344.491 207.235 344.885 206.614C345.279 205.985 345.805 205.492 346.464 205.136C347.123 204.78 347.851 204.515 348.646 204.341C349.449 204.159 350.256 204.015 351.067 203.909C352.127 203.773 352.987 203.67 353.646 203.602C354.313 203.527 354.798 203.402 355.101 203.227C355.411 203.053 355.567 202.75 355.567 202.318V202.227C355.567 201.106 355.26 200.235 354.646 199.614C354.04 198.992 353.12 198.682 351.885 198.682C350.604 198.682 349.601 198.962 348.873 199.523C348.146 200.083 347.635 200.682 347.339 201.318L344.794 200.409C345.248 199.348 345.854 198.523 346.612 197.932C347.377 197.333 348.211 196.917 349.112 196.682C350.021 196.439 350.915 196.318 351.794 196.318C352.354 196.318 352.998 196.386 353.726 196.523C354.461 196.652 355.169 196.92 355.851 197.33C356.54 197.739 357.112 198.356 357.567 199.182C358.021 200.008 358.248 201.114 358.248 202.5V214H355.567V211.636H355.43C355.248 212.015 354.945 212.42 354.521 212.852C354.097 213.284 353.533 213.652 352.828 213.955C352.123 214.258 351.264 214.409 350.248 214.409ZM350.658 212C351.718 212 352.612 211.792 353.339 211.375C354.074 210.958 354.627 210.42 354.998 209.761C355.377 209.102 355.567 208.409 355.567 207.682V205.227C355.453 205.364 355.203 205.489 354.817 205.602C354.438 205.708 353.998 205.803 353.498 205.886C353.006 205.962 352.525 206.03 352.055 206.091C351.593 206.144 351.218 206.189 350.93 206.227C350.233 206.318 349.582 206.466 348.976 206.67C348.377 206.867 347.892 207.167 347.521 207.568C347.158 207.962 346.976 208.5 346.976 209.182C346.976 210.114 347.32 210.818 348.01 211.295C348.707 211.765 349.589 212 350.658 212ZM377.427 200.455L375.018 201.136C374.866 200.735 374.643 200.345 374.347 199.966C374.059 199.58 373.666 199.261 373.166 199.011C372.666 198.761 372.025 198.636 371.245 198.636C370.177 198.636 369.287 198.883 368.575 199.375C367.87 199.86 367.518 200.477 367.518 201.227C367.518 201.894 367.76 202.42 368.245 202.807C368.73 203.193 369.488 203.515 370.518 203.773L373.109 204.409C374.669 204.788 375.832 205.367 376.597 206.148C377.363 206.92 377.745 207.917 377.745 209.136C377.745 210.136 377.457 211.03 376.881 211.818C376.313 212.606 375.518 213.227 374.495 213.682C373.472 214.136 372.283 214.364 370.927 214.364C369.147 214.364 367.673 213.977 366.506 213.205C365.34 212.432 364.601 211.303 364.291 209.818L366.836 209.182C367.078 210.121 367.537 210.826 368.211 211.295C368.893 211.765 369.783 212 370.881 212C372.131 212 373.124 211.735 373.859 211.205C374.601 210.667 374.972 210.023 374.972 209.273C374.972 208.667 374.76 208.159 374.336 207.75C373.912 207.333 373.26 207.023 372.381 206.818L369.472 206.136C367.874 205.758 366.7 205.17 365.95 204.375C365.207 203.572 364.836 202.568 364.836 201.364C364.836 200.379 365.113 199.508 365.666 198.75C366.226 197.992 366.988 197.398 367.95 196.966C368.919 196.534 370.018 196.318 371.245 196.318C372.972 196.318 374.328 196.697 375.313 197.455C376.306 198.212 377.01 199.212 377.427 200.455ZM391.02 214.364C389.338 214.364 387.888 213.992 386.668 213.25C385.456 212.5 384.52 211.455 383.861 210.114C383.21 208.765 382.884 207.197 382.884 205.409C382.884 203.621 383.21 202.045 383.861 200.682C384.52 199.311 385.437 198.242 386.611 197.477C387.793 196.705 389.172 196.318 390.747 196.318C391.657 196.318 392.554 196.47 393.441 196.773C394.327 197.076 395.134 197.568 395.861 198.25C396.588 198.924 397.168 199.818 397.6 200.932C398.032 202.045 398.247 203.417 398.247 205.045V206.182H384.793V203.864H395.52C395.52 202.879 395.323 202 394.929 201.227C394.543 200.455 393.99 199.845 393.27 199.398C392.558 198.951 391.717 198.727 390.747 198.727C389.679 198.727 388.755 198.992 387.975 199.523C387.202 200.045 386.607 200.727 386.191 201.568C385.774 202.409 385.566 203.311 385.566 204.273V205.818C385.566 207.136 385.793 208.254 386.247 209.17C386.71 210.08 387.35 210.773 388.168 211.25C388.986 211.72 389.937 211.955 391.02 211.955C391.725 211.955 392.361 211.856 392.929 211.659C393.505 211.455 394.001 211.152 394.418 210.75C394.835 210.341 395.157 209.833 395.384 209.227L397.975 209.955C397.702 210.833 397.244 211.606 396.6 212.273C395.956 212.932 395.16 213.447 394.213 213.818C393.266 214.182 392.202 214.364 391.02 214.364ZM414.258 193.227V190.727H431.712V193.227H424.394V214H421.576V193.227H414.258ZM435.806 214V196.545H438.397V199.182H438.579C438.897 198.318 439.472 197.617 440.306 197.08C441.139 196.542 442.079 196.273 443.124 196.273C443.321 196.273 443.567 196.277 443.863 196.284C444.158 196.292 444.382 196.303 444.533 196.318V199.045C444.442 199.023 444.234 198.989 443.908 198.943C443.59 198.89 443.253 198.864 442.897 198.864C442.048 198.864 441.291 199.042 440.624 199.398C439.965 199.746 439.442 200.231 439.056 200.852C438.677 201.466 438.488 202.167 438.488 202.955V214H435.806ZM454.768 214.409C453.662 214.409 452.659 214.201 451.757 213.784C450.856 213.36 450.14 212.75 449.609 211.955C449.079 211.152 448.814 210.182 448.814 209.045C448.814 208.045 449.011 207.235 449.405 206.614C449.799 205.985 450.325 205.492 450.984 205.136C451.643 204.78 452.371 204.515 453.166 204.341C453.969 204.159 454.776 204.015 455.587 203.909C456.647 203.773 457.507 203.67 458.166 203.602C458.833 203.527 459.318 203.402 459.621 203.227C459.931 203.053 460.087 202.75 460.087 202.318V202.227C460.087 201.106 459.78 200.235 459.166 199.614C458.56 198.992 457.64 198.682 456.405 198.682C455.124 198.682 454.121 198.962 453.393 199.523C452.666 200.083 452.155 200.682 451.859 201.318L449.314 200.409C449.768 199.348 450.374 198.523 451.132 197.932C451.897 197.333 452.731 196.917 453.632 196.682C454.541 196.439 455.435 196.318 456.314 196.318C456.874 196.318 457.518 196.386 458.246 196.523C458.981 196.652 459.689 196.92 460.371 197.33C461.06 197.739 461.632 198.356 462.087 199.182C462.541 200.008 462.768 201.114 462.768 202.5V214H460.087V211.636H459.95C459.768 212.015 459.465 212.42 459.041 212.852C458.617 213.284 458.052 213.652 457.348 213.955C456.643 214.258 455.784 214.409 454.768 214.409ZM455.177 212C456.238 212 457.132 211.792 457.859 211.375C458.594 210.958 459.147 210.42 459.518 209.761C459.897 209.102 460.087 208.409 460.087 207.682V205.227C459.973 205.364 459.723 205.489 459.337 205.602C458.958 205.708 458.518 205.803 458.018 205.886C457.526 205.962 457.045 206.03 456.575 206.091C456.113 206.144 455.738 206.189 455.45 206.227C454.753 206.318 454.102 206.466 453.496 206.67C452.897 206.867 452.412 207.167 452.041 207.568C451.677 207.962 451.496 208.5 451.496 209.182C451.496 210.114 451.84 210.818 452.53 211.295C453.227 211.765 454.109 212 455.177 212ZM476.174 214.364C474.72 214.364 473.436 213.996 472.322 213.261C471.208 212.519 470.337 211.473 469.708 210.125C469.08 208.769 468.765 207.167 468.765 205.318C468.765 203.485 469.08 201.894 469.708 200.545C470.337 199.197 471.212 198.155 472.333 197.42C473.455 196.686 474.75 196.318 476.22 196.318C477.356 196.318 478.254 196.508 478.913 196.886C479.58 197.258 480.087 197.682 480.436 198.159C480.792 198.629 481.068 199.015 481.265 199.318H481.492V190.727H484.174V214H481.583V211.318H481.265C481.068 211.636 480.788 212.038 480.424 212.523C480.061 213 479.542 213.428 478.867 213.807C478.193 214.178 477.295 214.364 476.174 214.364ZM476.538 211.955C477.614 211.955 478.523 211.674 479.265 211.114C480.008 210.545 480.572 209.761 480.958 208.761C481.345 207.754 481.538 206.591 481.538 205.273C481.538 203.97 481.348 202.83 480.97 201.852C480.591 200.867 480.03 200.102 479.288 199.557C478.545 199.004 477.629 198.727 476.538 198.727C475.401 198.727 474.455 199.019 473.697 199.602C472.947 200.178 472.383 200.962 472.004 201.955C471.633 202.939 471.447 204.045 471.447 205.273C471.447 206.515 471.636 207.644 472.015 208.659C472.401 209.667 472.97 210.47 473.72 211.068C474.477 211.659 475.417 211.955 476.538 211.955ZM491.378 214V196.545H494.06V214H491.378ZM492.742 193.636C492.219 193.636 491.768 193.458 491.39 193.102C491.018 192.746 490.833 192.318 490.833 191.818C490.833 191.318 491.018 190.89 491.39 190.534C491.768 190.178 492.219 190 492.742 190C493.265 190 493.712 190.178 494.083 190.534C494.462 190.89 494.651 191.318 494.651 191.818C494.651 192.318 494.462 192.746 494.083 193.102C493.712 193.458 493.265 193.636 492.742 193.636ZM503.574 203.5V214H500.892V196.545H503.483V199.273H503.71C504.119 198.386 504.741 197.674 505.574 197.136C506.407 196.591 507.483 196.318 508.801 196.318C509.983 196.318 511.017 196.561 511.903 197.045C512.79 197.523 513.479 198.25 513.972 199.227C514.464 200.197 514.71 201.424 514.71 202.909V214H512.028V203.091C512.028 201.72 511.672 200.652 510.96 199.886C510.248 199.114 509.271 198.727 508.028 198.727C507.172 198.727 506.407 198.913 505.733 199.284C505.066 199.655 504.54 200.197 504.153 200.909C503.767 201.621 503.574 202.485 503.574 203.5ZM528.576 220.909C527.281 220.909 526.167 220.742 525.235 220.409C524.304 220.083 523.527 219.652 522.906 219.114C522.292 218.583 521.804 218.015 521.44 217.409L523.576 215.909C523.819 216.227 524.126 216.591 524.497 217C524.868 217.417 525.376 217.777 526.019 218.08C526.671 218.39 527.523 218.545 528.576 218.545C529.985 218.545 531.148 218.205 532.065 217.523C532.982 216.841 533.44 215.773 533.44 214.318V210.773H533.213C533.016 211.091 532.735 211.485 532.372 211.955C532.016 212.417 531.501 212.83 530.826 213.193C530.16 213.549 529.258 213.727 528.122 213.727C526.713 213.727 525.447 213.394 524.326 212.727C523.213 212.061 522.33 211.091 521.679 209.818C521.035 208.545 520.713 207 520.713 205.182C520.713 203.394 521.027 201.837 521.656 200.511C522.285 199.178 523.16 198.148 524.281 197.42C525.402 196.686 526.697 196.318 528.167 196.318C529.304 196.318 530.205 196.508 530.872 196.886C531.546 197.258 532.061 197.682 532.417 198.159C532.781 198.629 533.061 199.015 533.258 199.318H533.531V196.545H536.122V214.5C536.122 216 535.781 217.22 535.099 218.159C534.425 219.106 533.516 219.799 532.372 220.239C531.235 220.686 529.97 220.909 528.576 220.909ZM528.485 211.318C529.561 211.318 530.47 211.072 531.213 210.58C531.955 210.087 532.519 209.379 532.906 208.455C533.292 207.53 533.485 206.424 533.485 205.136C533.485 203.879 533.296 202.769 532.917 201.807C532.538 200.845 531.978 200.091 531.235 199.545C530.493 199 529.576 198.727 528.485 198.727C527.349 198.727 526.402 199.015 525.644 199.591C524.894 200.167 524.33 200.939 523.951 201.909C523.58 202.879 523.394 203.955 523.394 205.136C523.394 206.348 523.584 207.42 523.963 208.352C524.349 209.277 524.917 210.004 525.667 210.534C526.425 211.057 527.364 211.318 528.485 211.318ZM566.962 196.545C566.825 195.394 566.272 194.5 565.303 193.864C564.333 193.227 563.144 192.909 561.734 192.909C560.704 192.909 559.803 193.076 559.03 193.409C558.265 193.742 557.666 194.201 557.234 194.784C556.81 195.367 556.598 196.03 556.598 196.773C556.598 197.394 556.746 197.928 557.041 198.375C557.344 198.814 557.731 199.182 558.2 199.477C558.67 199.765 559.162 200.004 559.678 200.193C560.193 200.375 560.666 200.523 561.098 200.636L563.462 201.273C564.068 201.432 564.742 201.652 565.484 201.932C566.234 202.212 566.95 202.595 567.632 203.08C568.322 203.557 568.89 204.17 569.337 204.92C569.784 205.67 570.007 206.591 570.007 207.682C570.007 208.939 569.678 210.076 569.019 211.091C568.367 212.106 567.412 212.913 566.155 213.511C564.905 214.11 563.386 214.409 561.598 214.409C559.931 214.409 558.488 214.14 557.269 213.602C556.056 213.064 555.102 212.314 554.405 211.352C553.716 210.39 553.325 209.273 553.234 208H556.144C556.219 208.879 556.515 209.606 557.03 210.182C557.553 210.75 558.212 211.174 559.007 211.455C559.81 211.727 560.674 211.864 561.598 211.864C562.674 211.864 563.64 211.689 564.496 211.341C565.352 210.985 566.03 210.492 566.53 209.864C567.03 209.227 567.28 208.485 567.28 207.636C567.28 206.864 567.064 206.235 566.632 205.75C566.2 205.265 565.632 204.871 564.928 204.568C564.223 204.265 563.462 204 562.644 203.773L559.78 202.955C557.962 202.432 556.522 201.686 555.462 200.716C554.401 199.746 553.871 198.477 553.871 196.909C553.871 195.606 554.223 194.47 554.928 193.5C555.64 192.523 556.594 191.765 557.791 191.227C558.996 190.682 560.341 190.409 561.825 190.409C563.325 190.409 564.659 190.678 565.825 191.216C566.992 191.746 567.916 192.473 568.598 193.398C569.287 194.322 569.651 195.371 569.689 196.545H566.962ZM578.697 207.636L578.652 204.318H579.197L586.833 196.545H590.152L582.015 204.773H581.788L578.697 207.636ZM576.197 214V190.727H578.879V214H576.197ZM587.288 214L580.47 205.364L582.379 203.5L590.697 214H587.288ZM595.523 214V196.545H598.205V214H595.523ZM596.887 193.636C596.364 193.636 595.913 193.458 595.535 193.102C595.163 192.746 594.978 192.318 594.978 191.818C594.978 191.318 595.163 190.89 595.535 190.534C595.913 190.178 596.364 190 596.887 190C597.41 190 597.857 190.178 598.228 190.534C598.607 190.89 598.796 191.318 598.796 191.818C598.796 192.318 598.607 192.746 598.228 193.102C597.857 193.458 597.41 193.636 596.887 193.636ZM607.719 190.727V214H605.037V190.727H607.719ZM617.233 190.727V214H614.551V190.727H617.233ZM636.428 200.455L634.019 201.136C633.868 200.735 633.644 200.345 633.349 199.966C633.061 199.58 632.667 199.261 632.167 199.011C631.667 198.761 631.027 198.636 630.246 198.636C629.178 198.636 628.288 198.883 627.576 199.375C626.871 199.86 626.519 200.477 626.519 201.227C626.519 201.894 626.762 202.42 627.246 202.807C627.731 203.193 628.489 203.515 629.519 203.773L632.11 204.409C633.671 204.788 634.833 205.367 635.599 206.148C636.364 206.92 636.746 207.917 636.746 209.136C636.746 210.136 636.458 211.03 635.883 211.818C635.315 212.606 634.519 213.227 633.496 213.682C632.474 214.136 631.284 214.364 629.928 214.364C628.148 214.364 626.674 213.977 625.508 213.205C624.341 212.432 623.602 211.303 623.292 209.818L625.837 209.182C626.08 210.121 626.538 210.826 627.212 211.295C627.894 211.765 628.784 212 629.883 212C631.133 212 632.125 211.735 632.86 211.205C633.602 210.667 633.974 210.023 633.974 209.273C633.974 208.667 633.762 208.159 633.337 207.75C632.913 207.333 632.262 207.023 631.383 206.818L628.474 206.136C626.875 205.758 625.701 205.17 624.951 204.375C624.208 203.572 623.837 202.568 623.837 201.364C623.837 200.379 624.114 199.508 624.667 198.75C625.227 197.992 625.989 197.398 626.951 196.966C627.921 196.534 629.019 196.318 630.246 196.318C631.974 196.318 633.33 196.697 634.315 197.455C635.307 198.212 636.012 199.212 636.428 200.455ZM646.703 210.818L646.521 212.045C646.393 212.909 646.196 213.833 645.931 214.818C645.673 215.803 645.404 216.731 645.124 217.602C644.843 218.473 644.612 219.167 644.431 219.682H642.385C642.484 219.197 642.612 218.557 642.771 217.761C642.931 216.966 643.09 216.076 643.249 215.091C643.415 214.114 643.552 213.114 643.658 212.091L643.794 210.818H646.703ZM664.876 214V190.727H678.921V193.227H667.694V201.091H678.194V203.591H667.694V211.5H679.103V214H664.876ZM690.693 214.409C689.587 214.409 688.584 214.201 687.682 213.784C686.781 213.36 686.065 212.75 685.534 211.955C685.004 211.152 684.739 210.182 684.739 209.045C684.739 208.045 684.936 207.235 685.33 206.614C685.724 205.985 686.25 205.492 686.909 205.136C687.568 204.78 688.296 204.515 689.091 204.341C689.894 204.159 690.701 204.015 691.512 203.909C692.572 203.773 693.432 203.67 694.091 203.602C694.758 203.527 695.243 203.402 695.546 203.227C695.856 203.053 696.012 202.75 696.012 202.318V202.227C696.012 201.106 695.705 200.235 695.091 199.614C694.485 198.992 693.565 198.682 692.33 198.682C691.049 198.682 690.046 198.962 689.318 199.523C688.591 200.083 688.08 200.682 687.784 201.318L685.239 200.409C685.693 199.348 686.299 198.523 687.057 197.932C687.822 197.333 688.656 196.917 689.557 196.682C690.466 196.439 691.36 196.318 692.239 196.318C692.799 196.318 693.443 196.386 694.171 196.523C694.906 196.652 695.614 196.92 696.296 197.33C696.985 197.739 697.557 198.356 698.012 199.182C698.466 200.008 698.693 201.114 698.693 202.5V214H696.012V211.636H695.875C695.693 212.015 695.39 212.42 694.966 212.852C694.542 213.284 693.977 213.652 693.273 213.955C692.568 214.258 691.709 214.409 690.693 214.409ZM691.102 212C692.163 212 693.057 211.792 693.784 211.375C694.519 210.958 695.072 210.42 695.443 209.761C695.822 209.102 696.012 208.409 696.012 207.682V205.227C695.898 205.364 695.648 205.489 695.262 205.602C694.883 205.708 694.443 205.803 693.943 205.886C693.451 205.962 692.97 206.03 692.5 206.091C692.038 206.144 691.663 206.189 691.375 206.227C690.678 206.318 690.027 206.466 689.421 206.67C688.822 206.867 688.337 207.167 687.966 207.568C687.602 207.962 687.421 208.5 687.421 209.182C687.421 210.114 687.765 210.818 688.455 211.295C689.152 211.765 690.034 212 691.102 212ZM705.508 214V196.545H708.099V199.182H708.281C708.599 198.318 709.175 197.617 710.008 197.08C710.842 196.542 711.781 196.273 712.826 196.273C713.023 196.273 713.27 196.277 713.565 196.284C713.861 196.292 714.084 196.303 714.236 196.318V199.045C714.145 199.023 713.936 198.989 713.611 198.943C713.292 198.89 712.955 198.864 712.599 198.864C711.751 198.864 710.993 199.042 710.326 199.398C709.667 199.746 709.145 200.231 708.758 200.852C708.38 201.466 708.19 202.167 708.19 202.955V214H705.508ZM722.016 203.5V214H719.335V196.545H721.925V199.273H722.153C722.562 198.386 723.183 197.674 724.016 197.136C724.85 196.591 725.925 196.318 727.244 196.318C728.425 196.318 729.46 196.561 730.346 197.045C731.232 197.523 731.922 198.25 732.414 199.227C732.907 200.197 733.153 201.424 733.153 202.909V214H730.471V203.091C730.471 201.72 730.115 200.652 729.403 199.886C728.691 199.114 727.713 198.727 726.471 198.727C725.615 198.727 724.85 198.913 724.175 199.284C723.509 199.655 722.982 200.197 722.596 200.909C722.21 201.621 722.016 202.485 722.016 203.5ZM751.257 214V190.727H759.121C760.939 190.727 762.431 191.038 763.598 191.659C764.764 192.273 765.628 193.117 766.189 194.193C766.749 195.269 767.03 196.492 767.03 197.864C767.03 199.235 766.749 200.451 766.189 201.511C765.628 202.572 764.768 203.405 763.609 204.011C762.45 204.61 760.969 204.909 759.166 204.909H752.802V202.364H759.075C760.318 202.364 761.318 202.182 762.075 201.818C762.84 201.455 763.393 200.939 763.734 200.273C764.083 199.598 764.257 198.795 764.257 197.864C764.257 196.932 764.083 196.117 763.734 195.42C763.386 194.723 762.829 194.186 762.064 193.807C761.299 193.42 760.287 193.227 759.03 193.227H754.075V214H751.257ZM762.211 203.545L767.939 214H764.666L759.03 203.545H762.211ZM780.413 214.364C778.731 214.364 777.28 213.992 776.06 213.25C774.848 212.5 773.913 211.455 773.254 210.114C772.602 208.765 772.276 207.197 772.276 205.409C772.276 203.621 772.602 202.045 773.254 200.682C773.913 199.311 774.829 198.242 776.004 197.477C777.185 196.705 778.564 196.318 780.14 196.318C781.049 196.318 781.947 196.47 782.833 196.773C783.72 197.076 784.526 197.568 785.254 198.25C785.981 198.924 786.56 199.818 786.992 200.932C787.424 202.045 787.64 203.417 787.64 205.045V206.182H774.185V203.864H784.913C784.913 202.879 784.716 202 784.322 201.227C783.935 200.455 783.382 199.845 782.663 199.398C781.951 198.951 781.11 198.727 780.14 198.727C779.072 198.727 778.148 198.992 777.367 199.523C776.595 200.045 776 200.727 775.583 201.568C775.167 202.409 774.958 203.311 774.958 204.273V205.818C774.958 207.136 775.185 208.254 775.64 209.17C776.102 210.08 776.742 210.773 777.56 211.25C778.379 211.72 779.329 211.955 780.413 211.955C781.117 211.955 781.754 211.856 782.322 211.659C782.898 211.455 783.394 211.152 783.81 210.75C784.227 210.341 784.549 209.833 784.776 209.227L787.367 209.955C787.095 210.833 786.636 211.606 785.992 212.273C785.348 212.932 784.553 213.447 783.606 213.818C782.659 214.182 781.595 214.364 780.413 214.364ZM807.381 196.545L800.926 214H798.199L791.745 196.545H794.654L799.472 210.455H799.654L804.472 196.545H807.381ZM819.534 214.364C817.852 214.364 816.401 213.992 815.182 213.25C813.97 212.5 813.034 211.455 812.375 210.114C811.723 208.765 811.398 207.197 811.398 205.409C811.398 203.621 811.723 202.045 812.375 200.682C813.034 199.311 813.951 198.242 815.125 197.477C816.307 196.705 817.685 196.318 819.261 196.318C820.17 196.318 821.068 196.47 821.954 196.773C822.841 197.076 823.648 197.568 824.375 198.25C825.102 198.924 825.682 199.818 826.114 200.932C826.545 202.045 826.761 203.417 826.761 205.045V206.182H813.307V203.864H824.034C824.034 202.879 823.837 202 823.443 201.227C823.057 200.455 822.504 199.845 821.784 199.398C821.072 198.951 820.231 198.727 819.261 198.727C818.193 198.727 817.269 198.992 816.489 199.523C815.716 200.045 815.121 200.727 814.704 201.568C814.288 202.409 814.079 203.311 814.079 204.273V205.818C814.079 207.136 814.307 208.254 814.761 209.17C815.223 210.08 815.864 210.773 816.682 211.25C817.5 211.72 818.451 211.955 819.534 211.955C820.239 211.955 820.875 211.856 821.443 211.659C822.019 211.455 822.515 211.152 822.932 210.75C823.348 210.341 823.67 209.833 823.898 209.227L826.489 209.955C826.216 210.833 825.757 211.606 825.114 212.273C824.47 212.932 823.674 213.447 822.727 213.818C821.78 214.182 820.716 214.364 819.534 214.364ZM835.443 203.5V214H832.761V196.545H835.352V199.273H835.579C835.988 198.386 836.609 197.674 837.443 197.136C838.276 196.591 839.352 196.318 840.67 196.318C841.852 196.318 842.886 196.561 843.772 197.045C844.659 197.523 845.348 198.25 845.84 199.227C846.333 200.197 846.579 201.424 846.579 202.909V214H843.897V203.091C843.897 201.72 843.541 200.652 842.829 199.886C842.117 199.114 841.14 198.727 839.897 198.727C839.041 198.727 838.276 198.913 837.602 199.284C836.935 199.655 836.409 200.197 836.022 200.909C835.636 201.621 835.443 202.485 835.443 203.5ZM864.4 206.864V196.545H867.081V214H864.4V211.045H864.218C863.809 211.932 863.172 212.686 862.309 213.307C861.445 213.92 860.354 214.227 859.036 214.227C857.945 214.227 856.975 213.989 856.127 213.511C855.278 213.027 854.612 212.299 854.127 211.33C853.642 210.352 853.4 209.121 853.4 207.636V196.545H856.081V207.455C856.081 208.727 856.437 209.742 857.15 210.5C857.869 211.258 858.786 211.636 859.9 211.636C860.566 211.636 861.244 211.466 861.934 211.125C862.631 210.784 863.214 210.261 863.684 209.557C864.161 208.852 864.4 207.955 864.4 206.864ZM881.231 214.364C879.55 214.364 878.099 213.992 876.879 213.25C875.667 212.5 874.731 211.455 874.072 210.114C873.421 208.765 873.095 207.197 873.095 205.409C873.095 203.621 873.421 202.045 874.072 200.682C874.731 199.311 875.648 198.242 876.822 197.477C878.004 196.705 879.383 196.318 880.959 196.318C881.868 196.318 882.766 196.47 883.652 196.773C884.538 197.076 885.345 197.568 886.072 198.25C886.8 198.924 887.379 199.818 887.811 200.932C888.243 202.045 888.459 203.417 888.459 205.045V206.182H875.004V203.864H885.731C885.731 202.879 885.534 202 885.141 201.227C884.754 200.455 884.201 199.845 883.481 199.398C882.769 198.951 881.928 198.727 880.959 198.727C879.891 198.727 878.966 198.992 878.186 199.523C877.413 200.045 876.819 200.727 876.402 201.568C875.985 202.409 875.777 203.311 875.777 204.273V205.818C875.777 207.136 876.004 208.254 876.459 209.17C876.921 210.08 877.561 210.773 878.379 211.25C879.197 211.72 880.148 211.955 881.231 211.955C881.936 211.955 882.572 211.856 883.141 211.659C883.716 211.455 884.213 211.152 884.629 210.75C885.046 210.341 885.368 209.833 885.595 209.227L888.186 209.955C887.913 210.833 887.455 211.606 886.811 212.273C886.167 212.932 885.372 213.447 884.425 213.818C883.478 214.182 882.413 214.364 881.231 214.364ZM898.458 210.818L898.276 212.045C898.148 212.909 897.951 213.833 897.686 214.818C897.428 215.803 897.159 216.731 896.879 217.602C896.598 218.473 896.367 219.167 896.186 219.682H894.14C894.239 219.197 894.367 218.557 894.526 217.761C894.686 216.966 894.845 216.076 895.004 215.091C895.17 214.114 895.307 213.114 895.413 212.091L895.549 210.818H898.458ZM931.903 190.727H934.722V206.136C934.722 207.727 934.347 209.148 933.597 210.398C932.854 211.64 931.805 212.621 930.449 213.341C929.093 214.053 927.502 214.409 925.676 214.409C923.85 214.409 922.259 214.053 920.903 213.341C919.547 212.621 918.494 211.64 917.744 210.398C917.002 209.148 916.631 207.727 916.631 206.136V190.727H919.449V205.909C919.449 207.045 919.699 208.057 920.199 208.943C920.699 209.822 921.411 210.515 922.335 211.023C923.267 211.523 924.381 211.773 925.676 211.773C926.972 211.773 928.085 211.523 929.017 211.023C929.949 210.515 930.661 209.822 931.153 208.943C931.653 208.057 931.903 207.045 931.903 205.909V190.727ZM944.588 203.5V214H941.906V196.545H944.497V199.273H944.724C945.133 198.386 945.754 197.674 946.588 197.136C947.421 196.591 948.497 196.318 949.815 196.318C950.997 196.318 952.031 196.561 952.917 197.045C953.804 197.523 954.493 198.25 954.985 199.227C955.478 200.197 955.724 201.424 955.724 202.909V214H953.042V203.091C953.042 201.72 952.686 200.652 951.974 199.886C951.262 199.114 950.285 198.727 949.042 198.727C948.186 198.727 947.421 198.913 946.747 199.284C946.08 199.655 945.554 200.197 945.167 200.909C944.781 201.621 944.588 202.485 944.588 203.5ZM965.226 190.727V214H962.545V190.727H965.226ZM979.149 214.364C977.573 214.364 976.191 213.989 975.001 213.239C973.82 212.489 972.895 211.439 972.229 210.091C971.57 208.742 971.24 207.167 971.24 205.364C971.24 203.545 971.57 201.958 972.229 200.602C972.895 199.246 973.82 198.193 975.001 197.443C976.191 196.693 977.573 196.318 979.149 196.318C980.725 196.318 982.104 196.693 983.286 197.443C984.475 198.193 985.399 199.246 986.058 200.602C986.725 201.958 987.058 203.545 987.058 205.364C987.058 207.167 986.725 208.742 986.058 210.091C985.399 211.439 984.475 212.489 983.286 213.239C982.104 213.989 980.725 214.364 979.149 214.364ZM979.149 211.955C980.346 211.955 981.331 211.648 982.104 211.034C982.876 210.42 983.448 209.614 983.82 208.614C984.191 207.614 984.376 206.53 984.376 205.364C984.376 204.197 984.191 203.11 983.82 202.102C983.448 201.095 982.876 200.28 982.104 199.659C981.331 199.038 980.346 198.727 979.149 198.727C977.952 198.727 976.967 199.038 976.195 199.659C975.422 200.28 974.85 201.095 974.479 202.102C974.108 203.11 973.922 204.197 973.922 205.364C973.922 206.53 974.108 207.614 974.479 208.614C974.85 209.614 975.422 210.42 976.195 211.034C976.967 211.648 977.952 211.955 979.149 211.955ZM1000.16 214.364C998.527 214.364 997.117 213.977 995.936 213.205C994.754 212.432 993.845 211.367 993.208 210.011C992.572 208.655 992.254 207.106 992.254 205.364C992.254 203.591 992.58 202.027 993.231 200.67C993.89 199.307 994.807 198.242 995.981 197.477C997.163 196.705 998.542 196.318 1000.12 196.318C1001.34 196.318 1002.45 196.545 1003.44 197C1004.42 197.455 1005.23 198.091 1005.86 198.909C1006.48 199.727 1006.88 200.682 1007.03 201.773H1004.34C1004.14 200.977 1003.69 200.273 1002.98 199.659C1002.28 199.038 1001.34 198.727 1000.16 198.727C999.117 198.727 998.201 199 997.413 199.545C996.633 200.083 996.023 200.845 995.583 201.83C995.152 202.807 994.936 203.955 994.936 205.273C994.936 206.621 995.148 207.795 995.572 208.795C996.004 209.795 996.61 210.572 997.39 211.125C998.178 211.678 999.102 211.955 1000.16 211.955C1000.86 211.955 1001.49 211.833 1002.06 211.591C1002.63 211.348 1003.11 211 1003.5 210.545C1003.9 210.091 1004.18 209.545 1004.34 208.909H1007.03C1006.88 209.939 1006.5 210.867 1005.9 211.693C1005.31 212.511 1004.53 213.163 1003.55 213.648C1002.58 214.125 1001.45 214.364 1000.16 214.364ZM1015.37 207.636L1015.32 204.318H1015.87L1023.5 196.545H1026.82L1018.69 204.773H1018.46L1015.37 207.636ZM1012.87 214V190.727H1015.55V214H1012.87ZM1023.96 214L1017.14 205.364L1019.05 203.5L1027.37 214H1023.96ZM1044.43 214H1041.48L1050.02 190.727H1052.93L1061.48 214H1058.52L1051.57 194.409H1051.39L1044.43 214ZM1045.52 204.909H1057.43V207.409H1045.52V204.909ZM1073.25 214.364C1071.79 214.364 1070.51 213.996 1069.4 213.261C1068.28 212.519 1067.41 211.473 1066.78 210.125C1066.15 208.769 1065.84 207.167 1065.84 205.318C1065.84 203.485 1066.15 201.894 1066.78 200.545C1067.41 199.197 1068.29 198.155 1069.41 197.42C1070.53 196.686 1071.82 196.318 1073.29 196.318C1074.43 196.318 1075.33 196.508 1075.99 196.886C1076.65 197.258 1077.16 197.682 1077.51 198.159C1077.87 198.629 1078.14 199.015 1078.34 199.318H1078.57V190.727H1081.25V214H1078.66V211.318H1078.34C1078.14 211.636 1077.86 212.038 1077.5 212.523C1077.14 213 1076.62 213.428 1075.94 213.807C1075.27 214.178 1074.37 214.364 1073.25 214.364ZM1073.61 211.955C1074.69 211.955 1075.6 211.674 1076.34 211.114C1077.08 210.545 1077.65 209.761 1078.03 208.761C1078.42 207.754 1078.61 206.591 1078.61 205.273C1078.61 203.97 1078.42 202.83 1078.04 201.852C1077.67 200.867 1077.11 200.102 1076.36 199.557C1075.62 199.004 1074.7 198.727 1073.61 198.727C1072.48 198.727 1071.53 199.019 1070.77 199.602C1070.02 200.178 1069.46 200.962 1069.08 201.955C1068.71 202.939 1068.52 204.045 1068.52 205.273C1068.52 206.515 1068.71 207.644 1069.09 208.659C1069.48 209.667 1070.04 210.47 1070.79 211.068C1071.55 211.659 1072.49 211.955 1073.61 211.955ZM1102.73 196.545L1096.27 214H1093.54L1087.09 196.545H1090L1094.82 210.455H1095L1099.82 196.545H1102.73ZM1112.79 214.409C1111.68 214.409 1110.68 214.201 1109.78 213.784C1108.88 213.36 1108.16 212.75 1107.63 211.955C1107.1 211.152 1106.84 210.182 1106.84 209.045C1106.84 208.045 1107.03 207.235 1107.43 206.614C1107.82 205.985 1108.35 205.492 1109.01 205.136C1109.67 204.78 1110.39 204.515 1111.19 204.341C1111.99 204.159 1112.8 204.015 1113.61 203.909C1114.67 203.773 1115.53 203.67 1116.19 203.602C1116.86 203.527 1117.34 203.402 1117.64 203.227C1117.95 203.053 1118.11 202.75 1118.11 202.318V202.227C1118.11 201.106 1117.8 200.235 1117.19 199.614C1116.58 198.992 1115.66 198.682 1114.43 198.682C1113.15 198.682 1112.14 198.962 1111.42 199.523C1110.69 200.083 1110.18 200.682 1109.88 201.318L1107.34 200.409C1107.79 199.348 1108.4 198.523 1109.15 197.932C1109.92 197.333 1110.75 196.917 1111.65 196.682C1112.56 196.439 1113.46 196.318 1114.34 196.318C1114.9 196.318 1115.54 196.386 1116.27 196.523C1117 196.652 1117.71 196.92 1118.39 197.33C1119.08 197.739 1119.65 198.356 1120.11 199.182C1120.56 200.008 1120.79 201.114 1120.79 202.5V214H1118.11V211.636H1117.97C1117.79 212.015 1117.49 212.42 1117.06 212.852C1116.64 213.284 1116.07 213.652 1115.37 213.955C1114.67 214.258 1113.81 214.409 1112.79 214.409ZM1113.2 212C1114.26 212 1115.15 211.792 1115.88 211.375C1116.62 210.958 1117.17 210.42 1117.54 209.761C1117.92 209.102 1118.11 208.409 1118.11 207.682V205.227C1118 205.364 1117.75 205.489 1117.36 205.602C1116.98 205.708 1116.54 205.803 1116.04 205.886C1115.55 205.962 1115.07 206.03 1114.6 206.091C1114.14 206.144 1113.76 206.189 1113.47 206.227C1112.78 206.318 1112.12 206.466 1111.52 206.67C1110.92 206.867 1110.43 207.167 1110.06 207.568C1109.7 207.962 1109.52 208.5 1109.52 209.182C1109.52 210.114 1109.86 210.818 1110.55 211.295C1111.25 211.765 1112.13 212 1113.2 212ZM1130.29 203.5V214H1127.61V196.545H1130.2V199.273H1130.42C1130.83 198.386 1131.45 197.674 1132.29 197.136C1133.12 196.591 1134.2 196.318 1135.51 196.318C1136.7 196.318 1137.73 196.561 1138.62 197.045C1139.5 197.523 1140.19 198.25 1140.69 199.227C1141.18 200.197 1141.42 201.424 1141.42 202.909V214H1138.74V203.091C1138.74 201.72 1138.39 200.652 1137.67 199.886C1136.96 199.114 1135.98 198.727 1134.74 198.727C1133.89 198.727 1133.12 198.913 1132.45 199.284C1131.78 199.655 1131.25 200.197 1130.87 200.909C1130.48 201.621 1130.29 202.485 1130.29 203.5ZM1155.34 214.364C1153.7 214.364 1152.29 213.977 1151.11 213.205C1149.93 212.432 1149.02 211.367 1148.38 210.011C1147.74 208.655 1147.43 207.106 1147.43 205.364C1147.43 203.591 1147.75 202.027 1148.4 200.67C1149.06 199.307 1149.98 198.242 1151.15 197.477C1152.34 196.705 1153.71 196.318 1155.29 196.318C1156.52 196.318 1157.62 196.545 1158.61 197C1159.59 197.455 1160.4 198.091 1161.03 198.909C1161.66 199.727 1162.05 200.682 1162.2 201.773H1159.52C1159.31 200.977 1158.86 200.273 1158.15 199.659C1157.46 199.038 1156.52 198.727 1155.34 198.727C1154.29 198.727 1153.37 199 1152.59 199.545C1151.81 200.083 1151.2 200.845 1150.76 201.83C1150.32 202.807 1150.11 203.955 1150.11 205.273C1150.11 206.621 1150.32 207.795 1150.74 208.795C1151.18 209.795 1151.78 210.572 1152.56 211.125C1153.35 211.678 1154.27 211.955 1155.34 211.955C1156.03 211.955 1156.67 211.833 1157.23 211.591C1157.8 211.348 1158.28 211 1158.68 210.545C1159.07 210.091 1159.35 209.545 1159.52 208.909H1162.2C1162.05 209.939 1161.67 210.867 1161.07 211.693C1160.48 212.511 1159.7 213.163 1158.72 213.648C1157.75 214.125 1156.62 214.364 1155.34 214.364ZM1175.36 214.364C1173.68 214.364 1172.23 213.992 1171.01 213.25C1169.79 212.5 1168.86 211.455 1168.2 210.114C1167.55 208.765 1167.22 207.197 1167.22 205.409C1167.22 203.621 1167.55 202.045 1168.2 200.682C1168.86 199.311 1169.77 198.242 1170.95 197.477C1172.13 196.705 1173.51 196.318 1175.08 196.318C1175.99 196.318 1176.89 196.47 1177.78 196.773C1178.66 197.076 1179.47 197.568 1180.2 198.25C1180.93 198.924 1181.51 199.818 1181.94 200.932C1182.37 202.045 1182.58 203.417 1182.58 205.045V206.182H1169.13V203.864H1179.86C1179.86 202.879 1179.66 202 1179.27 201.227C1178.88 200.455 1178.33 199.845 1177.61 199.398C1176.9 198.951 1176.05 198.727 1175.08 198.727C1174.02 198.727 1173.09 198.992 1172.31 199.523C1171.54 200.045 1170.94 200.727 1170.53 201.568C1170.11 202.409 1169.9 203.311 1169.9 204.273V205.818C1169.9 207.136 1170.13 208.254 1170.58 209.17C1171.05 210.08 1171.69 210.773 1172.51 211.25C1173.32 211.72 1174.27 211.955 1175.36 211.955C1176.06 211.955 1176.7 211.856 1177.27 211.659C1177.84 211.455 1178.34 211.152 1178.76 210.75C1179.17 210.341 1179.49 209.833 1179.72 209.227L1182.31 209.955C1182.04 210.833 1181.58 211.606 1180.94 212.273C1180.29 212.932 1179.5 213.447 1178.55 213.818C1177.6 214.182 1176.54 214.364 1175.36 214.364ZM1195.18 214.364C1193.72 214.364 1192.44 213.996 1191.32 213.261C1190.21 212.519 1189.34 211.473 1188.71 210.125C1188.08 208.769 1187.77 207.167 1187.77 205.318C1187.77 203.485 1188.08 201.894 1188.71 200.545C1189.34 199.197 1190.21 198.155 1191.33 197.42C1192.46 196.686 1193.75 196.318 1195.22 196.318C1196.36 196.318 1197.26 196.508 1197.91 196.886C1198.58 197.258 1199.09 197.682 1199.44 198.159C1199.79 198.629 1200.07 199.015 1200.27 199.318H1200.49V190.727H1203.18V214H1200.58V211.318H1200.27C1200.07 211.636 1199.79 212.038 1199.43 212.523C1199.06 213 1198.54 213.428 1197.87 213.807C1197.19 214.178 1196.3 214.364 1195.18 214.364ZM1195.54 211.955C1196.61 211.955 1197.52 211.674 1198.27 211.114C1199.01 210.545 1199.57 209.761 1199.96 208.761C1200.35 207.754 1200.54 206.591 1200.54 205.273C1200.54 203.97 1200.35 202.83 1199.97 201.852C1199.59 200.867 1199.03 200.102 1198.29 199.557C1197.55 199.004 1196.63 198.727 1195.54 198.727C1194.4 198.727 1193.46 199.019 1192.7 199.602C1191.95 200.178 1191.38 200.962 1191.01 201.955C1190.63 202.939 1190.45 204.045 1190.45 205.273C1190.45 206.515 1190.64 207.644 1191.02 208.659C1191.4 209.667 1191.97 210.47 1192.72 211.068C1193.48 211.659 1194.42 211.955 1195.54 211.955ZM42.8182 253V229.727H56.7727V232.227H45.6364V240.091H55.7273V242.591H45.6364V253H42.8182ZM69.1927 253.364C67.5109 253.364 66.0602 252.992 64.8405 252.25C63.6283 251.5 62.6927 250.455 62.0336 249.114C61.3821 247.765 61.0564 246.197 61.0564 244.409C61.0564 242.621 61.3821 241.045 62.0336 239.682C62.6927 238.311 63.6094 237.242 64.7836 236.477C65.9655 235.705 67.3442 235.318 68.92 235.318C69.8291 235.318 70.7268 235.47 71.6132 235.773C72.4995 236.076 73.3064 236.568 74.0336 237.25C74.7609 237.924 75.3405 238.818 75.7723 239.932C76.2041 241.045 76.42 242.417 76.42 244.045V245.182H62.9655V242.864H73.6927C73.6927 241.879 73.4958 241 73.1018 240.227C72.7155 239.455 72.1624 238.845 71.4427 238.398C70.7306 237.951 69.8897 237.727 68.92 237.727C67.8518 237.727 66.9276 237.992 66.1473 238.523C65.3745 239.045 64.7798 239.727 64.3632 240.568C63.9465 241.409 63.7382 242.311 63.7382 243.273V244.818C63.7382 246.136 63.9655 247.254 64.42 248.17C64.8821 249.08 65.5223 249.773 66.3405 250.25C67.1586 250.72 68.1094 250.955 69.1927 250.955C69.8973 250.955 70.5336 250.856 71.1018 250.659C71.6776 250.455 72.1738 250.152 72.5905 249.75C73.0071 249.341 73.3291 248.833 73.5564 248.227L76.1473 248.955C75.8745 249.833 75.4162 250.606 74.7723 251.273C74.1283 251.932 73.3329 252.447 72.3859 252.818C71.4389 253.182 70.3745 253.364 69.1927 253.364ZM87.5559 253.409C86.4498 253.409 85.4461 253.201 84.5445 252.784C83.643 252.36 82.9271 251.75 82.3968 250.955C81.8665 250.152 81.6014 249.182 81.6014 248.045C81.6014 247.045 81.7983 246.235 82.1923 245.614C82.5862 244.985 83.1127 244.492 83.7718 244.136C84.4309 243.78 85.1582 243.515 85.9536 243.341C86.7567 243.159 87.5635 243.015 88.3741 242.909C89.4347 242.773 90.2945 242.67 90.9536 242.602C91.6203 242.527 92.1052 242.402 92.4082 242.227C92.7188 242.053 92.8741 241.75 92.8741 241.318V241.227C92.8741 240.106 92.5673 239.235 91.9536 238.614C91.3476 237.992 90.4271 237.682 89.1923 237.682C87.912 237.682 86.9082 237.962 86.1809 238.523C85.4536 239.083 84.9423 239.682 84.6468 240.318L82.1014 239.409C82.5559 238.348 83.162 237.523 83.9195 236.932C84.6847 236.333 85.518 235.917 86.4195 235.682C87.3286 235.439 88.2226 235.318 89.1014 235.318C89.662 235.318 90.3059 235.386 91.0332 235.523C91.768 235.652 92.4764 235.92 93.1582 236.33C93.8476 236.739 94.4195 237.356 94.8741 238.182C95.3286 239.008 95.5559 240.114 95.5559 241.5V253H92.8741V250.636H92.7377C92.5559 251.015 92.2529 251.42 91.8286 251.852C91.4044 252.284 90.84 252.652 90.1355 252.955C89.4309 253.258 88.5711 253.409 87.5559 253.409ZM87.965 251C89.0256 251 89.9195 250.792 90.6468 250.375C91.3817 249.958 91.9347 249.42 92.3059 248.761C92.6847 248.102 92.8741 247.409 92.8741 246.682V244.227C92.7605 244.364 92.5105 244.489 92.1241 244.602C91.7453 244.708 91.3059 244.803 90.8059 244.886C90.3135 244.962 89.8324 245.03 89.3627 245.091C88.9006 245.144 88.5256 245.189 88.2377 245.227C87.5408 245.318 86.8892 245.466 86.2832 245.67C85.6847 245.867 85.1998 246.167 84.8286 246.568C84.465 246.962 84.2832 247.5 84.2832 248.182C84.2832 249.114 84.6279 249.818 85.3173 250.295C86.0142 250.765 86.8968 251 87.965 251ZM109.962 235.545V237.818H100.916V235.545H109.962ZM103.553 231.364H106.234V248C106.234 248.758 106.344 249.326 106.564 249.705C106.791 250.076 107.079 250.326 107.428 250.455C107.784 250.576 108.159 250.636 108.553 250.636C108.848 250.636 109.09 250.621 109.28 250.591C109.469 250.553 109.621 250.523 109.734 250.5L110.28 252.909C110.098 252.977 109.844 253.045 109.519 253.114C109.193 253.189 108.78 253.227 108.28 253.227C107.522 253.227 106.78 253.064 106.053 252.739C105.333 252.413 104.734 251.917 104.257 251.25C103.787 250.583 103.553 249.742 103.553 248.727V231.364ZM126.916 245.864V235.545H129.598V253H126.916V250.045H126.734C126.325 250.932 125.689 251.686 124.825 252.307C123.961 252.92 122.87 253.227 121.552 253.227C120.461 253.227 119.492 252.989 118.643 252.511C117.795 252.027 117.128 251.299 116.643 250.33C116.158 249.352 115.916 248.121 115.916 246.636V235.545H118.598V246.455C118.598 247.727 118.954 248.742 119.666 249.5C120.385 250.258 121.302 250.636 122.416 250.636C123.082 250.636 123.76 250.466 124.45 250.125C125.147 249.784 125.73 249.261 126.2 248.557C126.677 247.852 126.916 246.955 126.916 245.864ZM136.43 253V235.545H139.02V238.182H139.202C139.52 237.318 140.096 236.617 140.93 236.08C141.763 235.542 142.702 235.273 143.748 235.273C143.945 235.273 144.191 235.277 144.486 235.284C144.782 235.292 145.005 235.303 145.157 235.318V238.045C145.066 238.023 144.858 237.989 144.532 237.943C144.214 237.89 143.877 237.864 143.52 237.864C142.672 237.864 141.914 238.042 141.248 238.398C140.589 238.746 140.066 239.231 139.68 239.852C139.301 240.466 139.111 241.167 139.111 241.955V253H136.43ZM157.043 253.364C155.361 253.364 153.91 252.992 152.69 252.25C151.478 251.5 150.543 250.455 149.884 249.114C149.232 247.765 148.906 246.197 148.906 244.409C148.906 242.621 149.232 241.045 149.884 239.682C150.543 238.311 151.459 237.242 152.634 236.477C153.815 235.705 155.194 235.318 156.77 235.318C157.679 235.318 158.577 235.47 159.463 235.773C160.35 236.076 161.156 236.568 161.884 237.25C162.611 237.924 163.19 238.818 163.622 239.932C164.054 241.045 164.27 242.417 164.27 244.045V245.182H150.815V242.864H161.543C161.543 241.879 161.346 241 160.952 240.227C160.565 239.455 160.012 238.845 159.293 238.398C158.581 237.951 157.74 237.727 156.77 237.727C155.702 237.727 154.778 237.992 153.997 238.523C153.225 239.045 152.63 239.727 152.213 240.568C151.797 241.409 151.588 242.311 151.588 243.273V244.818C151.588 246.136 151.815 247.254 152.27 248.17C152.732 249.08 153.372 249.773 154.19 250.25C155.009 250.72 155.959 250.955 157.043 250.955C157.747 250.955 158.384 250.856 158.952 250.659C159.528 250.455 160.024 250.152 160.44 249.75C160.857 249.341 161.179 248.833 161.406 248.227L163.997 248.955C163.725 249.833 163.266 250.606 162.622 251.273C161.978 251.932 161.183 252.447 160.236 252.818C159.289 253.182 158.225 253.364 157.043 253.364ZM182.633 239.455L180.224 240.136C180.073 239.735 179.849 239.345 179.554 238.966C179.266 238.58 178.872 238.261 178.372 238.011C177.872 237.761 177.232 237.636 176.451 237.636C175.383 237.636 174.493 237.883 173.781 238.375C173.076 238.86 172.724 239.477 172.724 240.227C172.724 240.894 172.967 241.42 173.451 241.807C173.936 242.193 174.694 242.515 175.724 242.773L178.315 243.409C179.876 243.788 181.038 244.367 181.804 245.148C182.569 245.92 182.951 246.917 182.951 248.136C182.951 249.136 182.663 250.03 182.088 250.818C181.52 251.606 180.724 252.227 179.701 252.682C178.679 253.136 177.489 253.364 176.133 253.364C174.353 253.364 172.879 252.977 171.713 252.205C170.546 251.432 169.807 250.303 169.497 248.818L172.042 248.182C172.285 249.121 172.743 249.826 173.417 250.295C174.099 250.765 174.989 251 176.088 251C177.338 251 178.33 250.735 179.065 250.205C179.807 249.667 180.179 249.023 180.179 248.273C180.179 247.667 179.967 247.159 179.542 246.75C179.118 246.333 178.467 246.023 177.588 245.818L174.679 245.136C173.08 244.758 171.906 244.17 171.156 243.375C170.413 242.572 170.042 241.568 170.042 240.364C170.042 239.379 170.319 238.508 170.872 237.75C171.432 236.992 172.194 236.398 173.156 235.966C174.126 235.534 175.224 235.318 176.451 235.318C178.179 235.318 179.535 235.697 180.52 236.455C181.512 237.212 182.217 238.212 182.633 239.455ZM206.919 253.364C205.343 253.364 203.961 252.989 202.771 252.239C201.59 251.489 200.665 250.439 199.999 249.091C199.34 247.742 199.01 246.167 199.01 244.364C199.01 242.545 199.34 240.958 199.999 239.602C200.665 238.246 201.59 237.193 202.771 236.443C203.961 235.693 205.343 235.318 206.919 235.318C208.495 235.318 209.874 235.693 211.056 236.443C212.245 237.193 213.169 238.246 213.828 239.602C214.495 240.958 214.828 242.545 214.828 244.364C214.828 246.167 214.495 247.742 213.828 249.091C213.169 250.439 212.245 251.489 211.056 252.239C209.874 252.989 208.495 253.364 206.919 253.364ZM206.919 250.955C208.116 250.955 209.101 250.648 209.874 250.034C210.646 249.42 211.218 248.614 211.59 247.614C211.961 246.614 212.146 245.53 212.146 244.364C212.146 243.197 211.961 242.11 211.59 241.102C211.218 240.095 210.646 239.28 209.874 238.659C209.101 238.038 208.116 237.727 206.919 237.727C205.722 237.727 204.737 238.038 203.965 238.659C203.192 239.28 202.62 240.095 202.249 241.102C201.878 242.11 201.692 243.197 201.692 244.364C201.692 245.53 201.878 246.614 202.249 247.614C202.62 248.614 203.192 249.42 203.965 250.034C204.737 250.648 205.722 250.955 206.919 250.955ZM223.524 242.5V253H220.842V235.545H223.433V238.273H223.66C224.069 237.386 224.691 236.674 225.524 236.136C226.357 235.591 227.433 235.318 228.751 235.318C229.933 235.318 230.967 235.561 231.853 236.045C232.74 236.523 233.429 237.25 233.922 238.227C234.414 239.197 234.66 240.424 234.66 241.909V253H231.978V242.091C231.978 240.72 231.622 239.652 230.91 238.886C230.198 238.114 229.221 237.727 227.978 237.727C227.122 237.727 226.357 237.913 225.683 238.284C225.016 238.655 224.49 239.197 224.103 239.909C223.717 240.621 223.524 241.485 223.524 242.5ZM253.719 229.727L260.628 249.318H260.901L267.81 229.727H270.764L262.219 253H259.31L250.764 229.727H253.719ZM279.457 253.409C278.351 253.409 277.347 253.201 276.446 252.784C275.544 252.36 274.828 251.75 274.298 250.955C273.768 250.152 273.503 249.182 273.503 248.045C273.503 247.045 273.7 246.235 274.094 245.614C274.487 244.985 275.014 244.492 275.673 244.136C276.332 243.78 277.059 243.515 277.855 243.341C278.658 243.159 279.465 243.015 280.275 242.909C281.336 242.773 282.196 242.67 282.855 242.602C283.522 242.527 284.006 242.402 284.309 242.227C284.62 242.053 284.775 241.75 284.775 241.318V241.227C284.775 240.106 284.469 239.235 283.855 238.614C283.249 237.992 282.328 237.682 281.094 237.682C279.813 237.682 278.809 237.962 278.082 238.523C277.355 239.083 276.844 239.682 276.548 240.318L274.003 239.409C274.457 238.348 275.063 237.523 275.821 236.932C276.586 236.333 277.419 235.917 278.321 235.682C279.23 235.439 280.124 235.318 281.003 235.318C281.563 235.318 282.207 235.386 282.934 235.523C283.669 235.652 284.378 235.92 285.059 236.33C285.749 236.739 286.321 237.356 286.775 238.182C287.23 239.008 287.457 240.114 287.457 241.5V253H284.775V250.636H284.639C284.457 251.015 284.154 251.42 283.73 251.852C283.306 252.284 282.741 252.652 282.037 252.955C281.332 253.258 280.472 253.409 279.457 253.409ZM279.866 251C280.927 251 281.821 250.792 282.548 250.375C283.283 249.958 283.836 249.42 284.207 248.761C284.586 248.102 284.775 247.409 284.775 246.682V244.227C284.662 244.364 284.412 244.489 284.025 244.602C283.647 244.708 283.207 244.803 282.707 244.886C282.215 244.962 281.734 245.03 281.264 245.091C280.802 245.144 280.427 245.189 280.139 245.227C279.442 245.318 278.79 245.466 278.184 245.67C277.586 245.867 277.101 246.167 276.73 246.568C276.366 246.962 276.184 247.5 276.184 248.182C276.184 249.114 276.529 249.818 277.219 250.295C277.915 250.765 278.798 251 279.866 251ZM294.272 253V235.545H296.863V238.182H297.045C297.363 237.318 297.939 236.617 298.772 236.08C299.605 235.542 300.545 235.273 301.59 235.273C301.787 235.273 302.033 235.277 302.329 235.284C302.624 235.292 302.848 235.303 302.999 235.318V238.045C302.908 238.023 302.7 237.989 302.374 237.943C302.056 237.89 301.719 237.864 301.363 237.864C300.514 237.864 299.757 238.042 299.09 238.398C298.431 238.746 297.908 239.231 297.522 239.852C297.143 240.466 296.954 241.167 296.954 241.955V253H294.272ZM308.098 253V235.545H310.78V253H308.098ZM309.462 232.636C308.939 232.636 308.488 232.458 308.11 232.102C307.738 231.746 307.553 231.318 307.553 230.818C307.553 230.318 307.738 229.89 308.11 229.534C308.488 229.178 308.939 229 309.462 229C309.985 229 310.432 229.178 310.803 229.534C311.182 229.89 311.371 230.318 311.371 230.818C311.371 231.318 311.182 231.746 310.803 232.102C310.432 232.458 309.985 232.636 309.462 232.636ZM322.748 253.409C321.642 253.409 320.639 253.201 319.737 252.784C318.836 252.36 318.12 251.75 317.589 250.955C317.059 250.152 316.794 249.182 316.794 248.045C316.794 247.045 316.991 246.235 317.385 245.614C317.779 244.985 318.305 244.492 318.964 244.136C319.623 243.78 320.351 243.515 321.146 243.341C321.949 243.159 322.756 243.015 323.567 242.909C324.627 242.773 325.487 242.67 326.146 242.602C326.813 242.527 327.298 242.402 327.601 242.227C327.911 242.053 328.067 241.75 328.067 241.318V241.227C328.067 240.106 327.76 239.235 327.146 238.614C326.54 237.992 325.62 237.682 324.385 237.682C323.104 237.682 322.101 237.962 321.373 238.523C320.646 239.083 320.135 239.682 319.839 240.318L317.294 239.409C317.748 238.348 318.354 237.523 319.112 236.932C319.877 236.333 320.711 235.917 321.612 235.682C322.521 235.439 323.415 235.318 324.294 235.318C324.854 235.318 325.498 235.386 326.226 235.523C326.961 235.652 327.669 235.92 328.351 236.33C329.04 236.739 329.612 237.356 330.067 238.182C330.521 239.008 330.748 240.114 330.748 241.5V253H328.067V250.636H327.93C327.748 251.015 327.445 251.42 327.021 251.852C326.597 252.284 326.033 252.652 325.328 252.955C324.623 253.258 323.764 253.409 322.748 253.409ZM323.158 251C324.218 251 325.112 250.792 325.839 250.375C326.574 249.958 327.127 249.42 327.498 248.761C327.877 248.102 328.067 247.409 328.067 246.682V244.227C327.953 244.364 327.703 244.489 327.317 244.602C326.938 244.708 326.498 244.803 325.998 244.886C325.506 244.962 325.025 245.03 324.555 245.091C324.093 245.144 323.718 245.189 323.43 245.227C322.733 245.318 322.082 245.466 321.476 245.67C320.877 245.867 320.392 246.167 320.021 246.568C319.658 246.962 319.476 247.5 319.476 248.182C319.476 249.114 319.82 249.818 320.51 250.295C321.207 250.765 322.089 251 323.158 251ZM337.927 253V229.727H340.609V238.318H340.836C341.033 238.015 341.306 237.629 341.654 237.159C342.01 236.682 342.518 236.258 343.177 235.886C343.844 235.508 344.745 235.318 345.881 235.318C347.351 235.318 348.647 235.686 349.768 236.42C350.889 237.155 351.764 238.197 352.393 239.545C353.022 240.894 353.336 242.485 353.336 244.318C353.336 246.167 353.022 247.769 352.393 249.125C351.764 250.473 350.893 251.519 349.779 252.261C348.666 252.996 347.381 253.364 345.927 253.364C344.806 253.364 343.908 253.178 343.234 252.807C342.559 252.428 342.041 252 341.677 251.523C341.313 251.038 341.033 250.636 340.836 250.318H340.518V253H337.927ZM340.563 244.273C340.563 245.591 340.756 246.754 341.143 247.761C341.529 248.761 342.094 249.545 342.836 250.114C343.578 250.674 344.488 250.955 345.563 250.955C346.684 250.955 347.62 250.659 348.37 250.068C349.128 249.47 349.696 248.667 350.075 247.659C350.461 246.644 350.654 245.515 350.654 244.273C350.654 243.045 350.465 241.939 350.086 240.955C349.715 239.962 349.15 239.178 348.393 238.602C347.643 238.019 346.7 237.727 345.563 237.727C344.472 237.727 343.556 238.004 342.813 238.557C342.071 239.102 341.51 239.867 341.131 240.852C340.753 241.83 340.563 242.97 340.563 244.273ZM362.04 229.727V253H359.358V229.727H362.04ZM376.19 253.364C374.508 253.364 373.058 252.992 371.838 252.25C370.626 251.5 369.69 250.455 369.031 249.114C368.38 247.765 368.054 246.197 368.054 244.409C368.054 242.621 368.38 241.045 369.031 239.682C369.69 238.311 370.607 237.242 371.781 236.477C372.963 235.705 374.342 235.318 375.918 235.318C376.827 235.318 377.724 235.47 378.611 235.773C379.497 236.076 380.304 236.568 381.031 237.25C381.758 237.924 382.338 238.818 382.77 239.932C383.202 241.045 383.418 242.417 383.418 244.045V245.182H369.963V242.864H380.69C380.69 241.879 380.493 241 380.099 240.227C379.713 239.455 379.16 238.845 378.44 238.398C377.728 237.951 376.887 237.727 375.918 237.727C374.849 237.727 373.925 237.992 373.145 238.523C372.372 239.045 371.777 239.727 371.361 240.568C370.944 241.409 370.736 242.311 370.736 243.273V244.818C370.736 246.136 370.963 247.254 371.418 248.17C371.88 249.08 372.52 249.773 373.338 250.25C374.156 250.72 375.107 250.955 376.19 250.955C376.895 250.955 377.531 250.856 378.099 250.659C378.675 250.455 379.171 250.152 379.588 249.75C380.005 249.341 380.327 248.833 380.554 248.227L383.145 248.955C382.872 249.833 382.414 250.606 381.77 251.273C381.126 251.932 380.33 252.447 379.383 252.818C378.436 253.182 377.372 253.364 376.19 253.364ZM391.372 253.182C390.811 253.182 390.33 252.981 389.928 252.58C389.527 252.178 389.326 251.697 389.326 251.136C389.326 250.576 389.527 250.095 389.928 249.693C390.33 249.292 390.811 249.091 391.372 249.091C391.932 249.091 392.413 249.292 392.815 249.693C393.216 250.095 393.417 250.576 393.417 251.136C393.417 251.508 393.322 251.848 393.133 252.159C392.951 252.47 392.705 252.72 392.394 252.909C392.091 253.091 391.75 253.182 391.372 253.182Z" fill="#404040"/>
<rect x="1" y="1" width="1386" height="336" stroke="black" stroke-opacity="0.2" stroke-width="2"/>
</svg>
