<svg width="75" height="40" viewBox="0 0 75 40" fill="none" xmlns="http://www.w3.org/2000/svg">
<path d="M7.854 19.049C8.65523 18.0115 9.69268 17.6413 11.011 17.6987C13.0157 17.7817 15.0267 17.6987 17.0346 17.7306C18.7201 17.7594 19.6362 18.6308 19.5883 20.0705C19.55 21.4239 18.653 22.2316 17.0346 22.2571C14.8161 22.2922 12.5879 22.388 10.3822 22.206C9.51392 22.1358 8.69673 21.3856 7.854 20.9483V19.049Z" fill="#323232"/>
<path d="M41.8306 14.1718L41.7442 15.3039L42.8782 15.2466C43.4615 15.2172 44.0174 15.1849 44.5551 15.1537C45.7986 15.0816 46.9441 15.0152 48.1029 15.002L48.1039 15.002C48.9 14.9922 49.2284 15.2801 49.3354 15.4694C49.4398 15.6541 49.5191 16.0745 49.0907 16.7454L49.0902 16.7461C46.3329 21.0718 43.5616 25.3805 40.7881 29.6926C38.9441 32.5595 37.0991 35.428 35.2567 38.3039C35.0263 38.6633 34.8129 38.8473 34.64 38.9308C34.4938 39.0014 34.3051 39.0368 34.0059 38.9444L33.9989 38.9423L33.992 38.9402C33.6405 38.8373 33.5098 38.6885 33.4391 38.5534C33.3486 38.3804 33.2886 38.0904 33.3256 37.6269L33.3256 37.6263C33.5104 35.2938 33.6865 32.9598 33.8626 30.627C33.9483 29.4914 34.034 28.356 34.1206 27.2211C34.1526 26.8122 34.1846 26.3992 34.2262 25.8392L34.31 24.7108L33.1798 24.7664C32.6186 24.794 32.0859 24.8312 31.5718 24.8671C30.3904 24.9497 29.3072 25.0254 28.2016 24.9615L28.2014 24.9615C27.9594 24.9476 27.6319 24.8646 27.3297 24.7209C27.0345 24.5805 26.8784 24.4376 26.8233 24.3636C26.82 24.3511 26.8142 24.3251 26.8099 24.2822C26.8006 24.1896 26.8031 24.0615 26.825 23.9085C26.8709 23.5888 26.9822 23.2908 27.0854 23.1285L27.0854 23.1285L27.0884 23.1237C30.3121 17.9866 33.5897 12.885 36.8726 7.77528C38.1195 5.83442 39.3673 3.89238 40.613 1.94678C40.9143 1.49594 41.1516 1.23498 41.3671 1.10334C41.5229 1.00814 41.7099 0.949734 42.0632 1.05892C42.4291 1.17202 42.5595 1.33348 42.633 1.49369C42.7305 1.70614 42.7782 2.04195 42.7375 2.55094C42.4447 6.12812 42.1714 9.70785 41.8892 13.4047C41.8697 13.6598 41.8502 13.9155 41.8306 14.1718Z" fill="#323232" stroke="#323232" stroke-width="2"/>
<path d="M62.4395 35.5172C60.3167 34.5947 57.6736 33.5668 55.1582 32.2931C54.1655 31.7888 53.9484 30.6109 54.5198 29.5096C55.0912 28.4083 56.135 27.8752 57.2906 28.2966C59.7038 29.1776 62.0788 30.1576 64.4122 31.2525C65.4465 31.7377 65.8295 32.7624 65.3986 33.9371C64.9677 35.1118 64.1824 35.6066 62.4395 35.5172Z" fill="#323232"/>
<path d="M12.8465 4.43219C13.1326 4.4466 13.4158 4.497 13.6892 4.58222C15.8791 5.47283 18.0784 6.34428 20.2331 7.30831C21.5547 7.90205 22.0686 9.14379 21.6217 10.2642C21.095 11.589 19.8309 12.154 18.3689 11.5858C16.2142 10.7526 14.0819 9.85564 11.9655 8.9363C10.8387 8.44471 10.2002 7.52857 10.5003 6.28363C10.7684 5.16638 11.5218 4.4673 12.8465 4.43219Z" fill="#323232"/>
<path d="M65.6312 7.21558C65.3407 7.56353 64.9257 8.4701 64.233 8.81166C62.0624 9.87145 59.8055 10.7748 57.5295 11.6303C56.1505 12.1474 54.9375 11.5058 54.4587 10.2034C54.0118 8.98403 54.4874 7.87955 55.8568 7.27623C57.9285 6.36328 60.0066 5.48225 62.1326 4.67783C63.9042 4.00429 65.5609 5.0162 65.6312 7.21558Z" fill="#323232"/>
<path d="M12.8113 35.5332C11.5791 35.5332 10.6215 34.8692 10.5768 33.7456C10.5544 32.906 11.046 31.6004 11.6845 31.2812C13.934 30.1326 16.264 29.1489 18.6561 28.3381C19.85 27.9167 20.9544 28.3764 21.5067 29.666C21.9919 30.8056 21.7142 31.9196 20.6863 32.4112C18.2858 33.5508 15.764 34.4734 13.2805 35.498C13.1266 35.5323 12.9686 35.5441 12.8113 35.5332Z" fill="#323232"/>
<path d="M62.3599 17.737C63.5761 17.737 64.7955 17.6859 66.0053 17.737C67.3109 17.8072 68.2207 18.7776 68.1409 20.0034C68.0611 21.2292 67.3971 22.1581 66.0947 22.1996C63.5601 22.2794 61.0192 22.2794 58.4878 22.1996C57.195 22.1581 56.4768 21.3122 56.4608 20.0194C56.4449 18.6499 57.1854 17.8232 58.5581 17.7402C59.8349 17.6636 61.0926 17.7402 62.3599 17.7402V17.737Z" fill="#323232"/>
</svg>
