<svg width="75" height="40" viewBox="0 0 75 40" fill="none" xmlns="http://www.w3.org/2000/svg">
<path d="M20.1318 22.2C21.3846 22.2 22.4096 21.21 22.4096 20C22.4096 18.79 21.3846 17.8 20.1318 17.8C18.879 17.8 17.854 18.79 17.854 20C17.854 21.21 18.879 22.2 20.1318 22.2ZM20.1318 31C21.3846 31 22.4096 30.01 22.4096 28.8C22.4096 27.59 21.3846 26.6 20.1318 26.6C18.879 26.6 17.854 27.59 17.854 28.8C17.854 30.01 18.879 31 20.1318 31ZM20.1318 13.4C21.3846 13.4 22.4096 12.41 22.4096 11.2C22.4096 9.99 21.3846 9 20.1318 9C18.879 9 17.854 9.99 17.854 11.2C17.854 12.41 18.879 13.4 20.1318 13.4ZM29.2429 22.2H56.5762C57.829 22.2 58.854 21.21 58.854 20C58.854 18.79 57.829 17.8 56.5762 17.8H29.2429C27.9901 17.8 26.9651 18.79 26.9651 20C26.9651 21.21 27.9901 22.2 29.2429 22.2ZM29.2429 31H56.5762C57.829 31 58.854 30.01 58.854 28.8C58.854 27.59 57.829 26.6 56.5762 26.6H29.2429C27.9901 26.6 26.9651 27.59 26.9651 28.8C26.9651 30.01 27.9901 31 29.2429 31ZM26.9651 11.2C26.9651 12.41 27.9901 13.4 29.2429 13.4H56.5762C57.829 13.4 58.854 12.41 58.854 11.2C58.854 9.99 57.829 9 56.5762 9H29.2429C27.9901 9 26.9651 9.99 26.9651 11.2ZM20.1318 22.2C21.3846 22.2 22.4096 21.21 22.4096 20C22.4096 18.79 21.3846 17.8 20.1318 17.8C18.879 17.8 17.854 18.79 17.854 20C17.854 21.21 18.879 22.2 20.1318 22.2ZM20.1318 31C21.3846 31 22.4096 30.01 22.4096 28.8C22.4096 27.59 21.3846 26.6 20.1318 26.6C18.879 26.6 17.854 27.59 17.854 28.8C17.854 30.01 18.879 31 20.1318 31ZM20.1318 13.4C21.3846 13.4 22.4096 12.41 22.4096 11.2C22.4096 9.99 21.3846 9 20.1318 9C18.879 9 17.854 9.99 17.854 11.2C17.854 12.41 18.879 13.4 20.1318 13.4ZM29.2429 22.2H56.5762C57.829 22.2 58.854 21.21 58.854 20C58.854 18.79 57.829 17.8 56.5762 17.8H29.2429C27.9901 17.8 26.9651 18.79 26.9651 20C26.9651 21.21 27.9901 22.2 29.2429 22.2ZM29.2429 31H56.5762C57.829 31 58.854 30.01 58.854 28.8C58.854 27.59 57.829 26.6 56.5762 26.6H29.2429C27.9901 26.6 26.9651 27.59 26.9651 28.8C26.9651 30.01 27.9901 31 29.2429 31ZM26.9651 11.2C26.9651 12.41 27.9901 13.4 29.2429 13.4H56.5762C57.829 13.4 58.854 12.41 58.854 11.2C58.854 9.99 57.829 9 56.5762 9H29.2429C27.9901 9 26.9651 9.99 26.9651 11.2Z" fill="#323232"/>
</svg>
