<svg width="652" height="137" viewBox="0 0 652 137" fill="none" xmlns="http://www.w3.org/2000/svg">
<path d="M27.3186 0H-0.000976562V45.5326H27.3186V0Z" fill="white"/>
<path d="M54.6379 45.5327H27.3184V91.0653H54.6379V45.5327Z" fill="white"/>
<path d="M81.9582 91.0635H54.6387V136.596H81.9582V91.0635Z" fill="white"/>
<path d="M109.277 45.5327H81.957V91.0653H109.277V45.5327Z" fill="white"/>
<path d="M136.596 0H109.276V45.5326H136.596V0Z" fill="white"/>
<path d="M165.883 136.596C160.337 136.596 155.351 135.598 150.926 133.6C146.5 131.603 143.005 128.65 140.441 124.743C137.877 120.835 136.596 116.011 136.596 110.271C136.596 105.332 137.508 101.251 139.331 98.0261C141.109 94.841 143.68 92.1694 146.795 90.2704C149.947 88.333 153.508 86.8611 157.476 85.8546C161.532 84.8334 165.655 84.1004 169.813 83.661C174.941 83.1296 179.101 82.6454 182.291 82.2086C185.482 81.7718 187.807 81.0884 189.268 80.1583C190.729 79.2265 191.461 77.7737 191.461 75.7998V75.4572C191.461 71.1656 190.189 67.8417 187.643 65.4858C185.098 63.1298 181.433 61.9522 176.647 61.9531C171.594 61.9531 167.596 63.0547 164.653 65.2578C161.709 67.461 159.725 70.0631 158.698 73.0643L139.439 70.3288C140.958 65.0116 143.465 60.558 146.961 56.968C150.456 53.3781 154.729 50.6808 159.781 48.8762C164.832 47.0717 170.416 46.1694 176.532 46.1694C180.773 46.1727 184.999 46.6702 189.125 47.6518C193.198 48.5944 197.074 50.2432 200.578 52.5235C204.035 54.7814 206.817 57.8486 208.925 61.7251C211.034 65.6017 212.088 70.4448 212.088 76.2544V134.83H192.264V122.807H191.58C190.327 125.238 188.57 127.508 186.31 129.616C184.049 131.723 181.219 133.414 177.821 134.689C174.423 135.961 170.444 136.596 165.883 136.596ZM171.238 121.439C175.38 121.439 178.97 120.614 182.008 118.964C185.047 117.314 187.392 115.12 189.042 112.382C190.682 109.688 191.539 106.591 191.517 103.437V93.1205C190.871 93.6537 189.779 94.1479 188.24 94.6029C186.545 95.0949 184.823 95.4941 183.084 95.7987C181.184 96.1408 179.304 96.4448 177.443 96.7105C175.582 96.9762 173.967 97.2042 172.6 97.3944C169.523 97.8121 166.769 98.496 164.337 99.446C161.906 100.396 159.987 101.716 158.582 103.406C157.177 105.097 156.475 107.271 156.475 109.929C156.475 113.729 157.861 116.597 160.634 118.533C163.407 120.469 166.942 121.437 171.238 121.439Z" fill="white"/>
<path d="M232.89 134.83V47.3096H252.89V61.8988H253.802C255.398 56.8473 258.142 52.9442 262.035 50.1896C265.928 47.4351 270.382 46.0582 275.396 46.0591C276.536 46.0591 277.819 46.1064 279.243 46.2011C280.438 46.2683 281.627 46.411 282.804 46.6283V65.6008C281.93 65.296 280.553 65.0202 278.674 64.7736C276.869 64.5324 275.052 64.4088 273.231 64.4037C269.471 64.4037 266.1 65.2109 263.118 66.8252C260.206 68.3738 257.774 70.6891 256.084 73.5206C254.373 76.369 253.518 79.6546 253.519 83.3774V134.83H232.89Z" fill="white"/>
<path d="M306.905 34.8875C303.637 34.8875 300.826 33.7955 298.472 31.6115C296.119 29.4275 294.941 26.7971 294.939 23.7203C294.939 20.6062 296.117 17.9576 298.472 15.7744C300.827 13.5913 303.638 12.4988 306.905 12.4971C310.209 12.4971 313.03 13.5895 315.366 15.7744C317.702 17.9593 318.87 20.608 318.871 23.7203C318.871 26.7971 317.702 29.4275 315.366 31.6115C313.029 33.7955 310.209 34.8875 306.905 34.8875ZM296.535 134.83V47.3092H317.161V134.83H296.535Z" fill="white"/>
<path d="M363.54 136.597C357.994 136.597 353.008 135.598 348.584 133.601C344.159 131.603 340.664 128.651 338.099 124.743C335.536 120.835 334.254 116.011 334.254 110.271C334.254 105.332 335.166 101.251 336.989 98.0265C338.768 94.8413 341.339 92.1698 344.453 90.2708C347.606 88.3334 351.166 86.8614 355.135 85.8549C359.19 84.8335 363.313 84.1005 367.472 83.6613C372.595 83.1299 376.754 82.6457 379.949 82.2089C383.144 81.7721 385.471 81.0883 386.93 80.1573C388.391 79.2255 389.123 77.7727 389.124 75.7988V75.4562C389.124 71.1646 387.851 67.8408 385.306 65.4848C382.76 63.1288 379.095 61.9513 374.309 61.9521C369.257 61.9521 365.259 63.0537 362.315 65.2568C359.371 67.46 357.386 70.0621 356.36 73.0634L337.101 70.3279C338.62 65.0106 341.127 60.557 344.623 56.9671C348.118 53.3771 352.391 50.6798 357.443 48.8753C362.494 47.0707 368.078 46.1685 374.194 46.1685C378.435 46.1718 382.661 46.6692 386.787 47.6508C390.86 48.5934 394.736 50.2423 398.24 52.5226C401.696 54.7804 404.478 57.8476 406.588 61.7242C408.697 65.6007 409.751 70.4438 409.75 76.2534V134.829H389.922V122.806H389.238C387.985 125.237 386.228 127.507 383.968 129.615C381.707 131.722 378.877 133.414 375.477 134.69C372.078 135.961 368.099 136.597 363.54 136.597ZM368.897 121.44C373.036 121.44 376.626 120.615 379.665 118.965C382.705 117.315 385.049 115.121 386.699 112.382C388.339 109.689 389.196 106.591 389.174 103.438V93.1209C388.528 93.6541 387.436 94.1482 385.898 94.6032C384.203 95.0952 382.482 95.4944 380.743 95.799C378.843 96.1412 376.962 96.4451 375.101 96.7108C373.24 96.9766 371.626 97.2045 370.258 97.3947C367.181 97.8124 364.427 98.4963 361.995 99.4463C359.564 100.396 357.646 101.716 356.241 103.406C354.836 105.097 354.133 107.271 354.133 109.93C354.133 113.73 355.519 116.598 358.292 118.533C361.065 120.469 364.6 121.438 368.897 121.44Z" fill="white"/>
<path d="M431.46 134.83V18.1357H452.087V61.7821H452.941C454.004 59.6554 455.505 57.3858 457.443 54.9734C459.381 52.561 462.002 50.4907 465.306 48.7626C468.61 47.0336 472.826 46.1691 477.955 46.1691C484.716 46.1691 490.822 47.8881 496.274 51.3261C501.726 54.7641 506.056 59.8352 509.266 66.5393C512.479 73.2451 514.086 81.4597 514.086 91.1832C514.086 100.794 512.509 108.961 509.356 115.684C506.203 122.407 501.91 127.535 496.478 131.069C491.046 134.602 484.893 136.368 478.018 136.368C473.003 136.368 468.843 135.532 465.539 133.861C462.234 132.189 459.586 130.166 457.593 127.793C455.595 125.419 454.048 123.168 452.949 121.04H451.743V134.83H431.46ZM451.688 91.0699C451.688 96.7302 452.495 101.687 454.11 105.94C455.724 110.194 458.06 113.508 461.118 115.883C464.175 118.26 467.889 119.448 472.258 119.448C476.816 119.448 480.633 118.224 483.71 115.774C486.787 113.324 489.114 109.961 490.691 105.684C492.267 101.411 493.055 96.54 493.056 91.0699C493.056 85.6381 492.277 80.8136 490.719 76.5967C489.161 72.3797 486.845 69.075 483.769 66.6825C480.692 64.2892 476.855 63.0926 472.259 63.0926C467.853 63.0926 464.111 64.251 461.033 66.5679C457.955 68.8848 455.629 72.1326 454.054 76.3114C452.477 80.4936 451.688 85.4131 451.688 91.0699Z" fill="white"/>
<path d="M552.313 18.1357V134.83H531.687V18.1357H552.313Z" fill="white"/>
<path d="M612.255 136.539C603.479 136.539 595.91 134.707 589.548 131.041C583.186 127.375 578.295 122.171 574.876 115.428C571.458 108.686 569.748 100.737 569.748 91.5825C569.748 82.5798 571.467 74.669 574.905 67.8503C578.343 61.0316 583.158 55.7135 589.348 51.896C595.539 48.0794 602.814 46.1689 611.172 46.1646C616.565 46.1646 621.665 47.029 626.471 48.758C631.255 50.4723 635.61 53.2032 639.237 56.7625C642.941 60.3725 645.856 64.9594 647.983 70.5233C650.109 76.0871 651.172 82.7083 651.171 90.3867V96.7108H579.434V82.8081H631.399C631.361 78.8569 630.506 75.3338 628.836 72.2388C627.223 69.2049 624.808 66.6721 621.855 64.9169C618.874 63.1305 615.407 62.2378 611.456 62.2387C607.24 62.2387 603.537 63.2547 600.346 65.2868C597.216 67.2539 594.653 70.0034 592.91 73.264C591.143 76.55 590.241 80.1491 590.203 84.0612V96.1976C590.203 101.288 591.134 105.647 592.996 109.274C594.858 112.902 597.46 115.675 600.802 117.594C604.145 119.512 608.057 120.471 612.54 120.472C615.54 120.472 618.256 120.044 620.688 119.189C623.038 118.383 625.192 117.092 627.012 115.401C628.797 113.73 630.146 111.66 631.058 109.19L650.317 111.355C649.101 116.445 646.793 120.88 643.393 124.66C639.994 128.439 635.654 131.364 630.374 133.434C625.093 135.504 619.053 136.539 612.255 136.539Z" fill="white"/>
</svg>
