<svg width="75" height="40" viewBox="0 0 75 40" fill="none" xmlns="http://www.w3.org/2000/svg">
<path d="M36.8981 35.0598C36.8981 31.7353 36.9112 28.6079 36.8745 25.4779C36.8585 25.295 36.8033 25.1177 36.7126 24.9581C36.6219 24.7984 36.4978 24.6602 36.3488 24.5529C33.6682 22.9603 30.9587 21.415 27.9601 19.6831V21.7855C27.9601 24.135 27.9969 26.4845 27.9391 28.8339C27.9181 29.6802 28.131 30.2452 28.9325 30.5737C29.2926 30.7209 29.7209 30.8891 29.9207 31.1781C30.0333 31.3351 30.1116 31.5141 30.1506 31.7034C30.1895 31.8926 30.1882 32.088 30.1467 32.2767C30.0705 32.4817 29.4713 32.6735 29.1796 32.5973C27.1244 32.0507 26.2309 30.8391 26.2309 28.7314V25.5252C26.0653 25.4517 25.9681 25.3676 25.9182 25.3912C23.4636 26.8235 20.8119 28.0192 18.6227 29.78C16.7594 31.2833 16.9381 34.2214 18.4256 36.2161C19.8474 38.1214 22.5779 38.9072 24.7329 37.8376C26.639 36.8906 28.4824 35.8223 30.2518 34.6393C32.1519 33.3752 32.8352 30.8969 32.0914 28.7183C32.0205 28.5133 31.8496 28.3136 31.8575 28.1191C31.8812 27.625 31.981 27.1336 32.052 26.6422C32.5014 26.9234 33.161 27.0994 33.366 27.5042C34.2543 29.2518 34.4461 31.1834 33.5474 32.9048C32.8368 34.2241 31.8669 35.3862 30.6959 36.3212C29.3556 37.3987 27.7473 38.1609 26.2151 38.9755C24.6259 39.8199 22.7707 40.0137 21.0412 39.516C19.3118 39.0183 17.8434 37.868 16.946 36.3081C16.0287 34.7514 15.7654 32.8947 16.2136 31.1443C16.6617 29.3939 17.785 27.8923 19.3375 26.968C21.5267 25.6566 23.7894 24.4872 26.2388 23.1285C26.2388 21.9958 26.294 20.5188 26.2177 19.0471C26.1678 18.0879 26.5016 17.4861 27.3557 17.0866C27.905 16.8238 28.3833 16.3954 28.9509 16.2141C29.3215 16.0958 29.7893 16.2929 30.215 16.3481C30.102 16.7848 29.9416 17.2078 29.7367 17.6096C29.5685 17.8724 29.1979 18.0038 28.8458 18.2429C31.6657 19.8776 34.4041 21.4754 37.1688 23.0286C37.332 23.1078 37.5102 23.1512 37.6916 23.1557C37.8729 23.1602 38.0531 23.1259 38.22 23.0549C41.0057 21.5516 43.7757 20.0195 46.7217 18.398C46.3117 18.1142 46.0305 17.8908 45.7231 17.7094C43.3946 16.356 41.0373 15.0472 38.743 13.636C37.9546 13.1551 37.3449 13.1288 36.6406 13.6623C36.3792 13.8992 36.0617 14.0656 35.7181 14.1458C35.3476 14.1826 34.956 14.0065 34.5749 13.9224C34.6616 13.5414 34.6196 13.0237 34.8561 12.8029C36.5302 11.2261 37.7023 11.1262 39.6812 12.2589C40.6194 12.7845 41.5629 13.3285 42.6851 13.9645C42.8082 13.3949 42.896 12.8183 42.9479 12.2379C42.9794 10.5848 42.9794 8.93179 42.9479 7.27876C42.8563 5.94519 42.2601 4.6966 41.2806 3.78704C40.3011 2.87748 39.0118 2.37529 37.6751 2.38266C36.3385 2.39002 35.0548 2.90639 34.0854 3.82669C33.1159 4.74699 32.5335 6.00208 32.4567 7.33657C32.4409 8.94493 32.4331 10.5559 32.4567 12.1669C32.4549 13.4658 32.9399 14.7182 33.8161 15.6771C34.6923 16.636 35.896 17.2317 37.1898 17.3468C37.8573 17.423 38.63 17.4361 38.5038 18.3796C38.3777 19.3231 37.5735 19.1417 36.927 19.0497C33.5658 18.5688 31.1453 16.1379 30.8562 12.7135C30.6789 10.6317 30.6736 8.53885 30.8405 6.45618C31.1558 2.57194 34.1413 -0.0771277 37.8626 0.00171352C41.5839 0.0805547 44.5037 2.86365 44.6535 6.72161C44.7612 9.39433 44.5694 12.0802 44.5089 15.0236C45.4655 15.5807 46.7086 16.3744 48.0147 17.0393C48.9188 17.5018 49.2946 18.1168 49.1842 19.1154C49.1185 19.7173 49.2814 20.3585 49.1343 20.9314C49.0291 21.3335 48.5771 21.6462 48.2828 21.9984C47.9794 21.6909 47.7065 21.3547 47.4681 20.9945C47.3393 20.7553 47.3998 20.4137 47.3577 19.9433C44.4905 21.5359 41.7179 23.0549 38.9769 24.6264C38.7141 24.771 38.5406 25.2598 38.538 25.5909C38.5038 28.6789 38.517 31.7642 38.517 35.0887C39.584 34.4947 40.5169 33.9875 41.4394 33.4593C43.0977 32.5106 44.7297 31.5093 46.4169 30.6105C47.2053 30.1874 47.5811 29.6697 47.4681 28.7709C47.3891 28.3864 47.4154 27.9878 47.5443 27.6172C47.681 27.3281 48.0909 26.9864 48.3642 26.9969C48.5383 27.0401 48.6992 27.1248 48.8333 27.2438C48.9674 27.3628 49.0707 27.5126 49.1343 27.6802C49.694 29.6171 49.1185 30.96 47.3892 31.9718C46.3801 32.5605 45.3762 33.1571 44.1778 33.864C44.6904 34.2939 45.2246 34.6973 45.7783 35.0729C47.1553 35.9034 48.5473 36.7084 49.9542 37.4881C52.7215 39.0307 55.8568 38.2765 57.3469 35.722C58.8659 33.1203 58.017 30.0744 55.2839 28.4266C53.87 27.5751 52.4403 26.742 50.9897 25.9536C48.4352 24.5607 45.8177 25.1389 43.9859 27.3649C43.6863 27.7302 42.8927 28.1375 42.6115 27.9877C41.7521 27.5331 42.3198 26.8839 42.6956 26.3662C43.6504 25.0507 45.0401 24.1158 46.6184 23.7271C48.1967 23.3384 49.8617 23.5211 51.3182 24.2428C53.142 25.1622 54.9166 26.1762 56.6347 27.2808C58.0894 28.2307 59.1277 29.6991 59.5382 31.3873C59.9488 33.0754 59.7009 34.8566 58.8449 36.3685C57.1077 39.5222 53.2025 40.9361 49.9779 39.3382C47.4287 38.0741 45.0424 36.4789 42.3303 34.8705C41.3947 35.4093 40.0938 36.1005 38.8534 36.8889C38.065 37.3935 37.3843 37.5012 36.5985 36.9152C36.0729 36.5288 35.408 36.3265 34.9402 35.8981C34.6301 35.6143 34.5591 35.0729 34.3831 34.6472C34.8351 34.5596 35.2945 34.5156 35.7549 34.5158C36.0808 34.5552 36.3778 34.8048 36.8981 35.0598Z" fill="#323232"/>
</svg>
