<svg width="75" height="40" viewBox="0 0 75 40" fill="none" xmlns="http://www.w3.org/2000/svg">
<path d="M45.6681 23.1846V23.6846C45.6681 24.0829 45.668 24.4711 45.6678 24.8513C45.6671 26.3327 45.6665 27.6923 45.6767 29.0523L45.6768 29.0561C45.6768 29.668 45.669 30.2729 45.6612 30.8738C45.646 32.0604 45.6309 33.2315 45.6763 34.4114C45.7447 35.9956 46.3531 37.2801 47.3117 38.1587C48.2714 39.0382 49.6132 39.5396 51.1982 39.4976C53.9199 39.4196 55.8853 37.3472 55.8853 34.3457V34.3444C55.8879 33.3263 55.8909 32.3084 55.894 31.2907C55.912 25.3549 55.9299 19.425 55.838 13.4981L45.6681 23.1846ZM45.6681 23.1846H45.1681H42.2712H41.7712V23.6846V39.3249M45.6681 23.1846L41.7712 39.3249M41.7712 39.3249H20.4375C20.4324 39.2668 20.4274 39.209 20.4223 39.1516C20.3875 38.7553 20.354 38.3746 20.354 37.9798V37.9164V37.853V37.7896V37.7262V37.6628V37.5994V37.536V37.4726V37.4092V37.3458V37.2824V37.219V37.1556V37.0922V37.0288V36.9654V36.902V36.8386V36.7752V36.7118V36.6484V36.585V36.5216V36.4582V36.3948V36.3314V36.268V36.2046V36.1412V36.0778V36.0143V35.9509V35.8875V35.8241V35.7607V35.6973V35.6339V35.5705V35.5071V35.4437V35.3803V35.3169V35.2535V35.1901V35.1267V35.0633V34.9999V34.9365V34.8731V34.8097V34.7463V34.6829V34.6195V34.5561V34.4927V34.4293V34.3659V34.3025V34.2391V34.1756V34.1122V34.0488V33.9854V33.922V33.8586V33.7952V33.7318V33.6684V33.605V33.5416V33.4782V33.4148V33.3514V33.288V33.2246V33.1612V33.0978V33.0344V32.971V32.9076V32.8442V32.7808V32.7174V32.6539V32.5905V32.5271V32.4637V32.4003V32.3369V32.2735V32.2101V32.1467V32.0833V32.0199V31.9565V31.8931V31.8297V31.7663V31.7029V31.6395V31.5761V31.5127V31.4493V31.3858V31.3224V31.259V31.1956V31.1322V31.0688V31.0054V30.942V30.8786V30.8152V30.7518V30.6884V30.625V30.5616V30.4982V30.4348V30.3714V30.308V30.2445V30.1811V30.1177V30.0543V29.9909V29.9275V29.8641V29.8007V29.7373V29.6739V29.6105V29.5471V29.4837V29.4203V29.3569V29.2935V29.23V29.1666V29.1032V29.0398V28.9764V28.913V28.8496V28.7862V28.7228V28.6594V28.596V28.5326V28.4692V28.4058V28.3424V28.2789V28.2155V28.1521V28.0887V28.0253V27.9619V27.8985V27.8351V27.7717V27.7083V27.6449V27.5815V27.5181V27.4547V27.3913V27.3278V27.2644V27.201V27.1376V27.0742V27.0108V26.9474V26.884V26.8206V26.7572V26.6938V26.6304V26.567V26.5035V26.4401V26.3767V26.3133V26.2499V26.1865V26.1231V26.0597V25.9963V25.9329V25.8695V25.8061V25.7426V25.6792V25.6158V25.5524V25.489V25.4256V25.3622V25.2988V25.2354V25.172V25.1086V25.0452V24.9817V24.9183V24.8549V24.7915V24.7281V24.6647V24.6013V24.5379V24.4745V24.4111V24.3477V24.2843V24.2208V24.1574V24.094V24.0306V23.9672V23.9038V23.8404V23.777V23.7136V23.6502V23.5868V23.5233V23.4599V23.3965V23.3331V23.2697V23.2063V23.1429V23.0795V23.0161V22.9527V22.8892V22.8258V22.7624V22.699V22.6356V22.5722V22.5088V22.4454V22.382V22.3186V22.2551V22.1917V22.1283V22.0649V22.0015V21.9381V21.8747V21.8113V21.7479V21.6845V21.621V21.5576V21.4942V21.4308V21.3674V21.304V21.2406V21.1772V21.1138V21.0504V20.9869V20.9235V20.8601V20.7967V20.7333V20.6699V20.6065V20.5431V20.4797V20.4162V20.3528V20.2894V20.226V20.1626V20.0992V20.0358V19.9724V19.909V19.8455V19.7821V19.7187V19.6553V19.5919V19.5285V19.4651V19.4017V19.3383V19.2748V19.2114V19.148V19.0846V19.0212V18.9578V18.8944V18.831V18.7675V18.7041V18.6407V18.5773V18.5139V18.4505V18.3871V18.3237V18.2603V18.1968V18.1334V18.07V18.0066V17.9432V17.8798V17.8164V17.753V17.6895V17.6261V17.5627V17.4993V17.4359V17.3725V17.3091V17.2457V17.1822V17.1188V17.0554V16.992V16.9286V16.8652V16.8018V16.7383V16.6749V16.6115V16.5481V16.4847V16.4213V16.3579V16.2945V16.231V16.1676V16.1042V16.0408V15.9774V15.914V15.8506V15.7872V15.7237V15.6603V15.5969V15.5335V15.4701V15.4067V15.3433V15.2798V15.2164V15.153V15.0896V15.0262V14.9628V14.8994V14.8359V14.7725V14.7091V14.6457V14.5823V14.5189V14.4555V14.3921V14.3286V14.2652V14.2018V14.1384V14.075V14.0116V13.9482V13.8847V13.8213V13.7579V13.6945V13.6311V13.5677V13.5043V13.4408V13.3774V13.314V13.2506V13.1872V13.1238V13.0603V12.9969V12.9335V12.8701V12.8067V12.7433V12.6799V12.6164V12.553V12.4896V12.4262V12.3628V12.2994V12.236V12.1725V12.1091V12.0457V11.9823V11.9189V11.8555V11.792V11.7286V11.6652V11.6018V11.5384V11.475V11.4116V11.3481V11.2847V11.2213V11.1579V11.0945V11.0311V10.9676V10.9042V10.8408V10.7774V10.714V10.6506V10.5871V10.5237V10.4603V10.3969V10.3335V10.2701V10.2066V10.1432V10.0798V10.0164V9.95298V9.88957V9.82615V9.76273V9.69932V9.6359V9.57248V9.50907V9.44565V9.38224V9.31882V9.2554V9.19199V9.12857V9.06515V9.00173V8.93832V8.8749V8.81148V8.74807V8.68465V8.62123V8.55782V8.4944V8.43098V8.36756V8.30415V8.24073V8.17731V8.11389V8.05048V7.98706V7.92364V7.86023V7.79681V7.73339V7.66997V7.60655V7.54314V7.47972V7.4163V7.35288V7.28947V7.22605V7.16263V7.09921V7.0358V6.97238V6.90896V6.84554V6.78212V6.71871V6.65529V6.59187V6.52845V6.46503V6.40161V6.3382V6.27478V6.21136V6.14794V6.08452V6.0211V5.95769V5.89427V5.83085V5.76743V5.70401V5.64059V5.57717V5.51376C20.354 3.7182 20.7824 2.49252 21.5649 1.71054C22.3474 0.928505 23.5742 0.5 25.3721 0.5H25.3947H25.4174H25.4401H25.4627H25.4854H25.5081H25.5307H25.5534H25.5761H25.5987H25.6214H25.6441H25.6667H25.6894H25.7121H25.7347H25.7574H25.7801H25.8027H25.8254H25.8481H25.8707H25.8934H25.9161H25.9387H25.9614H25.9841H26.0067H26.0294H26.0521H26.0747H26.0974H26.1201H26.1427H26.1654H26.1881H26.2107H26.2334H26.2561H26.2788H26.3014H26.3241H26.3468H26.3694H26.3921H26.4148H26.4374H26.4601H26.4828H26.5054H26.5281H26.5508H26.5734H26.5961H26.6188H26.6414H26.6641H26.6868H26.7094H26.7321H26.7548H26.7774H26.8001H26.8228H26.8455H26.8681H26.8908H26.9135H26.9361H26.9588H26.9815H27.0041H27.0268H27.0495H27.0721H27.0948H27.1175H27.1401H27.1628H27.1855H27.2082H27.2308H27.2535H27.2762H27.2988H27.3215H27.3442H27.3668H27.3895H27.4122H27.4348H27.4575H27.4802H27.5029H27.5255H27.5482H27.5709H27.5935H27.6162H27.6389H27.6615H27.6842H27.7069H27.7296H27.7522H27.7749H27.7976H27.8202H27.8429H27.8656H27.8882H27.9109H27.9336H27.9563H27.9789H28.0016H28.0243H28.0469H28.0696H28.0923H28.1149H28.1376H28.1603H28.183H28.2056H28.2283H28.251H28.2736H28.2963H28.319H28.3416H28.3643H28.387H28.4097H28.4323H28.455H28.4777H28.5003H28.523H28.5457H28.5684H28.591H28.6137H28.6364H28.659H28.6817H28.7044H28.7271H28.7497H28.7724H28.7951H28.8177H28.8404H28.8631H28.8858H28.9084H28.9311H28.9538H28.9764H28.9991H29.0218H29.0445H29.0671H29.0898H29.1125H29.1351H29.1578H29.1805H29.2032H29.2258H29.2485H29.2712H29.2938H29.3165H29.3392H29.3619H29.3845H29.4072H29.4299H29.4526H29.4752H29.4979H29.5206H29.5432H29.5659H29.5886H29.6113H29.6339H29.6566H29.6793H29.7019H29.7246H29.7473H29.77H29.7926H29.8153H29.838H29.8607H29.8833H29.906H29.9287H29.9514H29.974H29.9967H30.0194H30.042H30.0647H30.0874H30.1101H30.1327H30.1554H30.1781H30.2008H30.2234H30.2461H30.2688H30.2914H30.3141H30.3368H30.3595H30.3821H30.4048H30.4275H30.4502H30.4728H30.4955H30.5182H30.5409H30.5635H30.5862H30.6089H30.6316H30.6542H30.6769H30.6996H30.7223H30.7449H30.7676H30.7903H30.8129H30.8356H30.8583H30.881H30.9036H30.9263H30.949H30.9717H30.9943H31.017H31.0397H31.0624H31.085H31.1077H31.1304H31.1531H31.1757H31.1984H31.2211H31.2438H31.2664H31.2891H31.3118H31.3345H31.3571H31.3798H31.4025H31.4252H31.4478H31.4705H31.4932H31.5159H31.5385H31.5612H31.5839H31.6066H31.6292H31.6519H31.6746H31.6973H31.7199H31.7426H31.7653H31.788H31.8106H31.8333H31.856H31.8787H31.9014H31.924H31.9467H31.9694H31.9921H32.0147H32.0374H32.0601H32.0828H32.1054H32.1281H32.1508H32.1735H32.1961H32.2188H32.2415H32.2642H32.2868H32.3095H32.3322H32.3549H32.3776H32.4002H32.4229H32.4456H32.4683H32.4909H32.5136H32.5363H32.559H32.5816H32.6043H32.627H32.6497H32.6723H32.695H32.7177H32.7404H32.7631H32.7857H32.8084H32.8311H32.8538H32.8764H32.8991H32.9218H32.9445H32.9672H32.9898H33.0125H33.0352H33.0579H33.0805H33.1032H33.1259H33.1486H33.1713H33.1939H33.2166H33.2393H33.262H33.2846H33.3073H33.33H33.3527H33.3754H33.398H33.4207H33.4434H33.4661H33.4887H33.5114H33.5341H33.5568H33.5795H33.6021H33.6248H33.6475H33.6702H33.6928H33.7155H33.7382H33.7609H33.7836H33.8062H33.8289H33.8516H33.8743H33.897H33.9196H33.9423H33.965H33.9877H34.0103H34.033H34.0557H34.0784H34.1011H34.1237H34.1464H34.1691H34.1918H34.2145H34.2371H34.2598H34.2825H34.3052H34.3279H34.3505H34.3732H34.3959H34.4186H34.4413H34.4639H34.4866H34.5093H34.532H34.5547H34.5773H34.6H34.6227H34.6454H34.668H34.6907H34.7134H34.7361H34.7588H34.7815H34.8041H34.8268H34.8495H34.8722H34.8949H34.9175H34.9402H34.9629H34.9856H35.0083H35.0309H35.0536H35.0763H35.099H35.1217H35.1443H35.167H35.1897H35.2124H35.2351H35.2577H35.2804H35.3031H35.3258H35.3485H35.3711H35.3938H35.4165H35.4392H35.4619H35.4845H35.5072H35.5299H35.5526H35.5753H35.598H35.6206H35.6433H35.666H35.6887H35.7114H35.734H35.7567H35.7794H35.8021H35.8248H35.8474H35.8701H35.8928H35.9155H35.9382H35.9609H35.9835H36.0062H36.0289H36.0516H36.0743H36.0969H36.1196H36.1423H36.165H36.1877H36.2104H36.233H36.2557H36.2784H36.3011H36.3238H36.3465H36.3691H36.3918H36.4145H36.4372H36.4599H36.4825H36.5052H36.5279H36.5506H36.5733H36.596H36.6186H36.6413H36.664H36.6867H36.7094H36.7321H36.7547H36.7774H36.8001H36.8228H36.8455H36.8682H36.8908H36.9135H36.9362H36.9589H36.9816C38.5229 0.5 39.6855 0.948452 40.4637 1.71958C41.2415 2.49038 41.6961 3.64394 41.7022 5.17517L41.7022 5.17585C41.7194 8.4076 41.7137 11.6398 41.708 14.8963C41.7051 16.5339 41.7022 18.1776 41.7022 19.8306V20.2964L42.1669 20.3293C42.4704 20.3508 42.747 20.3678 43.0058 20.3837C43.5455 20.4169 44.008 20.4454 44.4759 20.4996C45.6434 20.6387 46.5698 21.1001 47.2071 21.7872C47.8431 22.473 48.2219 23.4168 48.2377 24.5794L48.2377 24.5826C48.2979 27.5921 48.2808 30.6034 48.2377 33.5927L48.2376 33.5926V33.5999C48.2376 34.3905 48.335 35.2264 48.7173 35.8763C49.1282 36.5748 49.8287 36.9933 50.8482 36.9882C51.858 36.9831 52.5618 36.5799 52.9786 35.8907C53.3675 35.2476 53.4669 34.4183 53.4624 33.6186L53.4624 33.6174C53.4366 30.3959 53.4451 27.1746 53.4537 23.9017C53.458 22.2454 53.4624 20.5759 53.4624 18.8864V18.3111L52.8927 18.3913C51.1923 18.6306 49.746 18.5441 48.5975 18.0335C47.4699 17.5322 46.5714 16.5963 46.0009 15.0059L41.7712 39.3249ZM44.4235 3.85834L49.0575 7.71608L49.5661 8.13949L49.0199 8.51307C47.6686 9.43719 46.6704 10.3796 46.1309 11.4199C45.6048 12.4346 45.4921 13.5866 46.0009 15.0059L44.4235 3.85834ZM44.4235 3.85834L46.3407 2.06776C47.0446 2.74079 47.7462 3.40383 48.443 4.06234C50.6321 6.13106 52.7741 8.15521 54.7922 10.3049L54.7929 10.3057C55.1126 10.6449 55.3724 11.1491 55.5543 11.7351C55.7346 12.3159 55.8279 12.943 55.838 13.4968L44.4235 3.85834ZM53.7857 14.0078L53.5894 14.1579C53.4204 14.2871 53.2512 14.437 53.0715 14.6015C53.0292 14.6402 52.986 14.68 52.9421 14.7205C52.8045 14.8473 52.6597 14.9807 52.5153 15.1054C52.1383 15.4308 51.6844 15.7696 51.1425 15.8982L53.7857 14.0078ZM53.7857 14.0078V13.7607M53.7857 14.0078V13.7607M53.7857 13.7607C53.7857 13.5598 53.7714 13.3369 53.7585 13.1367C53.752 13.035 53.7458 12.9391 53.7421 12.8549L53.7301 12.5816M53.7857 13.7607L53.7301 12.5816M53.7301 12.5816L53.4934 12.4444M53.7301 12.5816L53.4934 12.4444M53.4934 12.4444C53.3078 12.3368 53.1205 12.212 52.922 12.0764M53.4934 12.4444L52.922 12.0764M52.922 12.0764C52.8812 12.0485 52.8398 12.0201 52.7978 11.9913M52.922 12.0764L52.7978 11.9913M52.7978 11.9913C52.64 11.8829 52.4744 11.7691 52.3088 11.6629M52.7978 11.9913L52.3088 11.6629M52.3088 11.6629C51.8921 11.3955 51.4108 11.1313 50.8712 11.0429M52.3088 11.6629L50.8712 11.0429M50.8712 11.0429C50.1134 10.9168 49.4367 11.115 48.9636 11.5963C48.5003 12.0676 48.2918 12.749 48.3243 13.4853C48.3564 14.2099 48.6043 14.91 49.0936 15.3895C49.6016 15.8873 50.3178 16.0944 51.1423 15.8982C51.1423 15.8983 51.1422 15.8983 51.1421 15.8983L50.8712 11.0429ZM24.1349 15.3169V15.8169H24.6349H37.4084H37.9084V15.3169V4.8628V4.3628H37.4084H24.6349H24.1349V4.8628V15.3169Z" stroke="#323232"/>
</svg>
