<svg width="75" height="40" viewBox="0 0 75 40" fill="none" xmlns="http://www.w3.org/2000/svg">
<path d="M47.3319 4.00128C48.05 4.00128 48.7029 4.00128 49.355 4.00128C49.7029 4.00084 50.0474 4.06918 50.3687 4.20236C50.69 4.33555 50.9818 4.53095 51.2274 4.77733C51.4729 5.02372 51.6673 5.31622 51.7994 5.638C51.9314 5.95979 51.9986 6.30452 51.9969 6.65235C52.0008 12.4416 52.0008 18.233 51.9969 24.0266C51.9969 25.4461 50.8538 26.6501 49.4678 26.6593C46.8292 26.6769 44.1907 26.6643 41.5513 26.6643C41.4979 26.6643 41.4436 26.6551 41.3626 26.6476V25.3342H41.8636C44.2655 25.3342 46.6681 25.3342 49.0711 25.3342C50.1616 25.3342 50.671 24.8207 50.671 23.721C50.671 18.1244 50.671 12.5273 50.671 6.92956C50.671 5.84409 50.1533 5.33141 49.0569 5.33141C41.7091 5.33141 34.3613 5.32835 27.0134 5.32222C26.4707 5.32222 25.928 5.19698 25.351 5.126C25.3397 5.20905 25.3333 5.2927 25.3318 5.3765C25.3318 11.5298 25.3318 17.6824 25.3318 23.8346C25.3318 24.7865 25.8779 25.3334 26.8348 25.3376C29.279 25.342 31.7233 25.342 34.1676 25.3376H34.6418V26.6677H34.2536C31.7681 26.6677 29.2821 26.6677 26.7955 26.6677C25.1256 26.6677 24.0008 25.5413 24.0008 23.8772C24.0003 16.8199 24 9.76377 24 2.70873C24 1.37444 24.835 0.334884 26.1342 0.0526605C26.3388 0.0130745 26.5471 -0.00428259 26.7554 0.000891644C32.7116 0.000891644 38.6692 0.000891644 44.6282 0.000891644C46.1796 0.000891644 47.321 1.15317 47.331 2.71625C47.3335 3.13123 47.3319 3.54455 47.3319 4.00128ZM46.0001 4.00128C46.0001 3.59882 46.0001 3.2498 46.0001 2.90746C45.9951 1.8487 45.474 1.33269 44.4061 1.33269H30.993C29.5735 1.33269 28.1599 1.33269 26.7437 1.33269C26.1209 1.33269 25.6265 1.66083 25.4312 2.18103C25.2299 2.71625 25.3477 3.19553 25.7351 3.60049C26.0549 3.93198 26.4707 4.0088 26.9224 4.0088C32.7957 4.00379 38.6684 4.0024 44.5405 4.00462L46.0001 4.00128Z" fill="#323232"/>
<path d="M36.0002 37.3321H33.4293C32.7613 37.3321 32.0933 37.3321 31.4253 37.3321C30.9043 37.3321 30.668 37.0925 30.6638 36.5673C30.6588 35.9702 30.6638 35.3732 30.6638 34.7762C30.6638 34.2452 30.8935 34.0172 31.4153 34.0014C31.5122 34.0014 31.6333 34.0289 31.7001 33.9822C31.8136 33.8987 31.9656 33.7751 31.9656 33.6674C31.9656 33.5597 31.817 33.4252 31.7009 33.3534C31.6174 33.3025 31.4855 33.3367 31.3744 33.3325C30.9043 33.3133 30.6689 33.0779 30.6638 32.6003C30.6572 31.9891 30.6588 31.3779 30.6638 30.7675C30.6638 30.2398 30.8993 30.0051 31.4253 30.0035C32.7997 29.9993 34.1741 30.0035 35.5493 30.0035H35.9802C35.9868 29.8866 35.9952 29.8064 35.9952 29.7271C35.9952 27.4075 35.9894 25.0888 36.0035 22.77C36.0035 22.4778 35.9067 22.3717 35.642 22.2799C32.4081 21.156 30.4075 18.0916 30.6797 14.6908C30.9452 11.3508 33.6105 8.53361 36.932 8.07855C41.633 7.43478 45.6158 11.1329 45.3244 15.8748C45.1499 18.7045 43.1869 21.2804 40.449 22.2407C40.11 22.3592 39.9889 22.4987 39.9897 22.8744C40.0048 28.2767 40.0081 33.6785 39.9998 39.0797C39.9998 39.8045 39.8094 39.9982 39.0997 39.9982C38.3215 39.9982 37.5441 40.0024 36.7667 39.9982C36.2407 39.9982 36.0069 39.7586 36.0035 39.235C35.9969 38.6138 36.0002 37.9926 36.0002 37.3321ZM38.02 9.33269C36.4253 9.33467 34.8962 9.96838 33.7676 11.0951C32.639 12.2218 32.0028 13.7498 31.9981 15.3445C31.9981 18.621 34.7185 21.3355 38 21.3364C41.2815 21.3372 43.9943 18.6319 44.0002 15.3445C44.006 12.0572 41.3023 9.3402 38.02 9.33269ZM37.3596 22.679V38.6489H38.6429V22.679H37.3596ZM35.9827 31.3628H32.0199C31.9773 31.9473 31.9814 31.9365 32.4449 32.1978C33.0093 32.5126 33.3208 32.9944 33.3299 33.6473C33.3391 34.3153 33.0502 34.8664 32.4457 35.1261C31.9931 35.3198 31.9222 35.5686 32.0366 35.9828H35.9843L35.9827 31.3628Z" fill="#323232"/>
<path d="M35.8235 12.7903L36.5933 13.8223C36.5699 13.8741 36.5649 13.9117 36.5466 13.92C35.9729 14.1839 36.0322 14.6874 35.9779 15.2067C35.8944 16.0367 36.1449 16.6053 36.8806 16.9986C37.207 17.1714 37.4742 17.4562 37.7915 17.6524C37.8563 17.6848 37.9278 17.7017 38.0003 17.7017C38.0727 17.7017 38.1442 17.6848 38.209 17.6524C38.7559 17.2733 39.2886 16.8717 39.8097 16.4575C39.9163 16.36 39.9815 16.2252 39.9917 16.081C40.0126 15.58 40.0159 15.079 39.9917 14.578C39.9731 14.422 39.8961 14.2788 39.7763 14.1772C39.3588 13.8357 38.9029 13.5359 38.4862 13.1919C38.1639 12.9264 37.8725 12.7511 37.536 13.232L36.701 12.1307C37.035 11.8802 37.3331 11.5946 37.6838 11.4301C37.8011 11.3857 37.9268 11.3676 38.0519 11.3771C38.177 11.3866 38.2985 11.4235 38.4077 11.4852C39.3078 12.1106 40.1837 12.7728 41.0413 13.4541C41.1991 13.5794 41.3093 13.8516 41.3168 14.0611C41.3477 14.8961 41.3544 15.7311 41.3168 16.5594C41.2952 16.8269 41.1732 17.0763 40.9753 17.2574C40.1654 17.9104 39.317 18.5149 38.4862 19.142C38.1522 19.3925 37.8341 19.385 37.5001 19.1303C36.6718 18.4999 35.8235 17.8954 35.0127 17.2441C34.8233 17.073 34.706 16.8363 34.6846 16.5819C34.6445 15.8063 34.6846 15.0264 34.662 14.2498C34.6487 13.8324 34.7672 13.5276 35.1279 13.3046C35.3601 13.1652 35.5688 12.9823 35.8235 12.7903Z" fill="#323232"/>
</svg>
