<svg width="75" height="40" viewBox="0 0 75 40" fill="none" xmlns="http://www.w3.org/2000/svg">
<path d="M17.854 19.4494C17.9002 19.332 17.9518 19.2146 17.9917 19.0964C18.1825 18.5043 18.5542 17.987 19.0544 17.6172C19.5546 17.2474 20.1581 17.0437 20.7801 17.0349C21.4021 17.0291 22.01 17.2208 22.5162 17.5824C23.0225 17.9439 23.401 18.4568 23.5974 19.0471C23.6881 19.3202 23.8016 19.4071 24.0826 19.404C25.2666 19.3883 26.4506 19.3969 27.6347 19.3977C27.7516 19.392 27.8687 19.3978 27.9845 19.4149C28.285 19.476 28.4736 19.6497 28.4822 19.9745C28.4908 20.2993 28.332 20.4942 28.026 20.5654C27.886 20.5925 27.7435 20.6043 27.601 20.6007C26.4037 20.6007 25.2063 20.6061 24.0098 20.6007C23.7969 20.6007 23.6967 20.6547 23.6185 20.8722C23.1755 22.1949 22.0392 22.9955 20.7026 22.9564C19.4066 22.9188 18.3071 22.0251 17.9354 20.7102C17.9144 20.6524 17.8882 20.5966 17.8571 20.5435L17.854 19.4494ZM22.569 20.0481C22.5766 19.814 22.5376 19.5808 22.4545 19.3618C22.3714 19.1429 22.2457 18.9426 22.0848 18.7724C21.9238 18.6023 21.7308 18.4657 21.5168 18.3706C21.3028 18.2755 21.0721 18.2237 20.838 18.2183C19.8887 18.1925 19.0631 18.9814 19.0279 19.944C18.9927 20.9067 19.7909 21.7441 20.773 21.7746C21.7231 21.8044 22.5432 21.0162 22.569 20.0481Z" fill="#323232"/>
<path d="M38.4022 0C38.5078 0.0414802 38.6111 0.0892216 38.7191 0.123658C39.3211 0.306198 39.849 0.67625 40.2258 1.17987C40.6027 1.68348 40.8089 2.29433 40.8143 2.92335C40.8197 3.55237 40.6241 4.16668 40.2559 4.67671C39.8878 5.18674 39.3664 5.56583 38.7677 5.75871C38.5141 5.83697 38.4546 5.94967 38.4546 6.19308C38.4648 7.36705 38.4593 8.53554 38.4593 9.70638C38.464 9.82355 38.4617 9.94089 38.4523 10.0578C38.4069 10.4288 38.1752 10.6432 37.838 10.6307C37.4725 10.6166 37.2902 10.3912 37.2651 10.0586C37.2369 9.70951 37.2549 9.35418 37.2542 9.00512C37.2542 8.05499 37.2542 7.10486 37.2542 6.15551C37.2542 5.96924 37.226 5.85341 37.0194 5.77749C35.6107 5.26408 34.8282 4.17542 34.8994 2.80813C34.9776 1.30702 36.0936 0.278622 37.2182 0.0688728C37.251 0.0626117 37.2784 0.0250447 37.3081 0.00234794L38.4022 0ZM37.798 4.71544C38.0321 4.72358 38.2655 4.68527 38.4846 4.60273C38.7038 4.52018 38.9045 4.39504 39.075 4.23452C39.2456 4.07399 39.3826 3.88127 39.4783 3.66748C39.574 3.45369 39.6264 3.22307 39.6324 2.98892C39.6637 2.04975 38.8741 1.2131 37.9107 1.17319C36.9474 1.13327 36.1108 1.93 36.0772 2.91379C36.0451 3.86471 36.8292 4.68648 37.798 4.71544Z" fill="#323232"/>
<path d="M38.4683 26.2321L41.3161 25.1646C42.1769 24.8414 43.0378 24.515 43.9072 24.2012C44.1052 24.1292 44.1968 24.0329 44.1866 23.8098C44.1678 23.3943 44.1741 22.9771 44.1866 22.5576C44.1991 22.1381 44.4214 21.8806 44.7782 21.8759C45.1351 21.8712 45.3706 22.1154 45.3792 22.5451C45.3933 23.1712 45.3855 23.7973 45.3792 24.4195C45.3792 24.7568 45.2133 24.9674 44.8901 25.0895C42.641 25.9277 40.3973 26.7792 38.1451 27.608C37.9376 27.6745 37.7139 27.6706 37.5088 27.5971C35.2683 26.7714 33.0356 25.9222 30.7974 25.0926C30.4539 24.965 30.2997 24.742 30.2989 24.3882C30.2989 23.0084 30.2942 21.6286 30.2989 20.2488C30.2989 19.7902 30.5337 19.5319 30.8968 19.5343C31.2599 19.5366 31.4924 19.7996 31.4947 20.2512C31.5002 21.4251 31.4947 22.5944 31.4947 23.7652C31.4947 23.9554 31.501 24.0955 31.7342 24.1808C33.4997 24.8304 35.2558 25.4988 37.0197 26.1601C37.082 26.1756 37.1453 26.1863 37.2091 26.1922C37.2185 26.0701 37.2342 25.9574 37.2342 25.8518C37.2342 23.5216 37.2342 21.1916 37.2342 18.862C37.2342 18.6593 37.2342 18.5027 36.9837 18.4104C35.2221 17.7631 33.4621 17.0955 31.6966 16.4381C31.6305 16.421 31.5633 16.4084 31.4955 16.4005C31.4955 16.7042 31.501 16.9844 31.4955 17.2654C31.4845 17.7154 31.2607 17.9737 30.8867 17.9697C30.529 17.965 30.3107 17.7248 30.3005 17.2857C30.2888 16.7269 30.3005 16.1665 30.3005 15.6069C30.3005 15.2547 30.457 15.0356 30.8029 14.908C33.0411 14.0769 35.2722 13.2269 37.5135 12.4036C37.7322 12.3327 37.9679 12.3352 38.185 12.4106C40.413 13.2285 42.6316 14.0722 44.8573 14.8963C45.2313 15.0348 45.3855 15.2774 45.3839 15.6625C45.3785 16.964 45.3839 18.2656 45.38 19.5671C45.38 20.068 45.1703 20.3169 44.7829 20.3161C44.3955 20.3153 44.185 20.0555 44.1827 19.5679C44.1827 18.5278 44.1827 17.4876 44.1827 16.3786C43.8548 16.4984 43.5699 16.6009 43.2866 16.7066C41.7794 17.269 40.2719 17.8315 38.7641 18.3939C38.5685 18.4667 38.4362 18.5325 38.4378 18.7939C38.4495 21.2013 38.4448 23.6095 38.4456 26.0177C38.444 26.0646 38.455 26.114 38.4683 26.2321ZM32.595 15.4989C34.3339 16.154 35.982 16.7793 37.6356 17.3875C37.7749 17.4383 37.969 17.4078 38.1169 17.3561C38.8134 17.1112 39.5036 16.8459 40.1962 16.5876L43.0918 15.5021C41.7731 15.0051 40.5093 14.5989 39.3096 14.0542C38.3071 13.5987 37.4149 13.5752 36.4031 14.0424C35.1963 14.602 33.9168 15.0035 32.595 15.4989Z" fill="#323232"/>
<path d="M29.0313 28.0011C29.4554 27.5691 29.8624 27.1496 30.2756 26.7363C30.6324 26.3787 30.9486 26.3395 31.2248 26.6064C31.5011 26.8733 31.4713 27.2059 31.1207 27.5565C30.6997 27.9784 30.2693 28.3916 29.8342 28.8166C30.5675 29.9123 30.8343 31.0503 30.5017 32.2978C30.261 33.2399 29.6847 34.0617 28.881 34.609C28.0786 35.1659 27.1022 35.4148 26.1311 35.31C25.1599 35.2052 24.2591 34.7537 23.594 34.0384C22.9288 33.323 22.5439 32.3918 22.5098 31.4155C22.4757 30.4393 22.7948 29.4835 23.4084 28.7235C24.54 27.3147 26.8017 26.5234 29.0313 28.0011ZM26.5818 28.3924C26.0133 28.3912 25.4572 28.5586 24.9839 28.8735C24.5106 29.1884 24.1413 29.6366 23.9227 30.1614C23.7042 30.6863 23.6462 31.2641 23.7561 31.8219C23.866 32.3797 24.1389 32.8924 24.5402 33.2951C24.9416 33.6978 25.4533 33.9723 26.0107 34.0841C26.5681 34.1958 27.1461 34.1397 27.6716 33.9229C28.1971 33.706 28.6465 33.3382 28.9629 32.8658C29.2793 32.3935 29.4485 31.8379 29.4492 31.2694C29.45 30.8922 29.3764 30.5186 29.2327 30.1699C29.089 29.8211 28.878 29.5042 28.6116 29.2371C28.3453 28.97 28.0289 28.7581 27.6806 28.6134C27.3323 28.4687 26.9589 28.3942 26.5818 28.394V28.3924Z" fill="#323232"/>
<path d="M29.8421 11.1839C30.2475 11.5799 30.6396 11.9587 31.0261 12.343C31.462 12.775 31.5223 13.0826 31.2382 13.3761C30.9542 13.6696 30.6286 13.6195 30.206 13.189C29.8147 12.7922 29.432 12.3868 29.0619 12.001C26.5623 13.2399 24.5323 12.8885 23.2356 11.0375C22.1079 9.42135 22.3395 7.14307 23.7693 5.79379C24.48 5.11001 25.4157 4.70892 26.401 4.6657C27.3863 4.62248 28.3535 4.94008 29.1214 5.55899C30.53 6.68287 31.3227 8.94707 29.8421 11.1839ZM29.4508 8.67158C29.4054 7.03271 28.1071 5.8157 26.4457 5.85405C24.8962 5.89083 23.6699 7.23777 23.7067 8.85941C23.7427 10.3785 25.095 11.6425 26.6343 11.5987C28.2449 11.5517 29.4907 10.2549 29.4477 8.67158H29.4508Z" fill="#323232"/>
<path d="M46.6642 11.9803C46.251 12.4068 45.8487 12.8294 45.4371 13.2434C45.0654 13.6183 44.7328 13.6567 44.4596 13.371C44.1865 13.0853 44.2343 12.7817 44.5919 12.4217C45.0035 12.0069 45.4183 11.596 45.8542 11.1608C45.0943 10.0354 44.8368 8.82932 45.243 7.527C45.5219 6.59462 46.1349 5.7979 46.9647 5.28941C47.7843 4.77536 48.7605 4.57102 49.7174 4.71321C50.6744 4.85541 51.549 5.33479 52.1838 6.06494C52.8185 6.7951 53.1716 7.728 53.1793 8.69549C53.187 9.66297 52.8489 10.6014 52.226 11.3416C51.0388 12.7559 48.799 13.4101 46.6642 11.9803ZM49.177 11.596C50.8204 11.549 52.035 10.2498 51.9943 8.59061C51.9552 7.03784 50.6123 5.81378 48.9892 5.85135C47.4687 5.88813 46.2095 7.2335 46.2502 8.77845C46.2948 10.3876 47.5954 11.6414 49.177 11.596Z" fill="#323232"/>
<path d="M45.8692 28.812C45.431 28.3847 45.0013 27.9707 44.5787 27.5496C44.2313 27.2029 44.2039 26.8671 44.4864 26.601C44.7572 26.3459 45.0725 26.3788 45.4083 26.7153C45.8293 27.1379 46.2409 27.5707 46.6714 28.0153C47.81 27.242 49.0066 26.9924 50.2963 27.3774C51.2198 27.6442 52.0146 28.2382 52.5321 29.0484C53.6199 30.7107 53.328 32.9616 51.8622 34.2718C50.3385 35.6336 48.1058 35.6883 46.5407 34.3915C45.1172 33.2183 44.4261 30.969 45.8692 28.812ZM46.255 31.2766C46.2566 31.845 46.4267 32.4003 46.7438 32.872C47.0609 33.3438 47.5108 33.7109 48.0366 33.927C48.5623 34.143 49.1403 34.1983 49.6975 34.0857C50.2547 33.9732 50.766 33.6979 51.1667 33.2948C51.5674 32.8916 51.8396 32.3786 51.9488 31.8208C52.058 31.2629 51.9992 30.6851 51.7801 30.1606C51.5609 29.6361 51.1911 29.1884 50.7175 28.8741C50.2439 28.5598 49.6877 28.393 49.1193 28.3949C48.7419 28.3956 48.3683 28.4707 48.02 28.616C47.6717 28.7613 47.3555 28.9739 47.0894 29.2415C46.8234 29.5092 46.6127 29.8267 46.4696 30.1759C46.3264 30.5251 46.2535 30.8992 46.255 31.2766Z" fill="#323232"/>
<path d="M49.7896 19.398C50.3882 19.398 50.9869 19.3816 51.5848 19.4043C51.879 19.4153 52.0035 19.326 52.1021 19.0357C52.5873 17.5847 54.0867 16.7746 55.5853 17.1182C57.0229 17.4485 58.02 18.8987 57.8282 20.3811C57.6365 21.8634 56.3045 23.0006 54.7832 22.9575C54.1815 22.9343 53.6013 22.7279 53.12 22.366C52.6388 22.004 52.2796 21.5037 52.0903 20.932C52.0043 20.6706 51.8963 20.5932 51.631 20.5963C50.4078 20.6104 49.1846 20.6057 47.9615 20.5963C47.5029 20.5963 47.2571 20.4124 47.2149 20.0743C47.1679 19.6735 47.416 19.4059 47.8769 19.3973C48.5147 19.3894 49.1557 19.398 49.7896 19.398ZM53.1265 20.0069C53.1283 20.473 53.3133 20.9196 53.6416 21.2504C53.9699 21.5812 54.415 21.7696 54.881 21.7749C55.1176 21.781 55.353 21.7398 55.5734 21.6537C55.7938 21.5677 55.9949 21.4385 56.1648 21.2737C56.3347 21.109 56.47 20.912 56.5628 20.6943C56.6556 20.4766 56.7041 20.2426 56.7053 20.006C56.7065 19.7693 56.6606 19.5348 56.5701 19.3161C56.4796 19.0975 56.3463 18.8991 56.1782 18.7326C56.01 18.566 55.8104 18.4347 55.5909 18.3463C55.3714 18.258 55.1364 18.2143 54.8998 18.2178C54.6657 18.2181 54.434 18.2647 54.2179 18.3549C54.0019 18.4451 53.8058 18.5772 53.641 18.7435C53.4762 18.9098 53.3459 19.107 53.2576 19.3238C53.1693 19.5407 53.1247 19.7728 53.1265 20.0069Z" fill="#323232"/>
<path d="M38.4542 31.947C38.4542 32.5582 38.4675 33.1703 38.448 33.7815C38.4401 34.0476 38.5223 34.154 38.7853 34.2378C40.0452 34.6377 40.8771 35.8813 40.8098 37.2048C40.7709 37.9004 40.488 38.56 40.0107 39.0675C39.5335 39.575 38.8925 39.8978 38.2007 39.9793C37.5088 40.0607 36.8104 39.8955 36.2284 39.5127C35.6464 39.1299 35.218 38.554 35.0187 37.8865C34.5703 36.4151 35.3263 34.8279 36.7795 34.3028C37.1825 34.158 37.2616 33.9607 37.2538 33.5796C37.2311 32.4479 37.242 31.3154 37.2498 30.1829C37.2446 30.0022 37.2766 29.8224 37.3438 29.6546C37.4705 29.3815 37.7288 29.3118 38.0058 29.3791C38.3188 29.4574 38.4417 29.7 38.4464 29.9951C38.4566 30.6454 38.4464 31.2958 38.4464 31.947H38.4542ZM39.6281 37.0584C39.6328 36.5868 39.4499 36.1327 39.1198 35.7959C38.7896 35.4592 38.3393 35.2673 37.8677 35.2627C37.3961 35.258 36.942 35.4409 36.6053 35.771C36.2685 36.1012 36.0767 36.5516 36.0721 37.0232C36.0744 37.4894 36.2568 37.9366 36.5812 38.2713C36.9055 38.6061 37.3467 38.8024 37.8125 38.8194C38.7751 38.8476 39.6125 38.0368 39.6297 37.0584H39.6281Z" fill="#323232"/>
</svg>
