<svg width="136" height="41" viewBox="0 0 136 41" fill="none" xmlns="http://www.w3.org/2000/svg">
<rect x="1.16406" y="0.623047" width="134" height="39" rx="4.5" fill="black"/>
<g filter="url(#filter0_ii_954_20327)">
<path d="M11.1036 7.66089C10.8126 7.96889 10.6406 8.44689 10.6406 9.06589V31.1819C10.6406 31.8019 10.8126 32.2789 11.1036 32.5869L11.1776 32.6589L23.5666 20.2699V20.1239V19.9779L11.1776 7.58789L11.1036 7.66089Z" fill="url(#paint0_linear_954_20327)"/>
<path d="M27.6993 24.4007L23.5703 20.2697V20.1237V19.9777L27.7003 15.8477L27.7933 15.9007L32.6863 18.6807C34.0833 19.4747 34.0833 20.7737 32.6863 21.5687L27.7933 24.3487L27.6993 24.4007Z" fill="url(#paint1_linear_954_20327)"/>
<g filter="url(#filter1_i_954_20327)">
<path d="M27.7876 24.347L23.5636 20.123L11.1016 32.586C11.5616 33.074 12.3226 33.134 13.1796 32.648L27.7876 24.347Z" fill="url(#paint2_linear_954_20327)"/>
</g>
<path d="M27.7876 15.8997L13.1796 7.59975C12.3226 7.11275 11.5616 7.17375 11.1016 7.66175L23.5646 20.1247L27.7876 15.8997Z" fill="url(#paint3_linear_954_20327)"/>
</g>
<path d="M68.8206 16.3134C66.4686 16.3134 64.5516 18.1024 64.5516 20.5664C64.5516 23.0154 66.4686 24.8194 68.8206 24.8194C71.1736 24.8194 73.0906 23.0154 73.0906 20.5664C73.0896 18.1024 71.1726 16.3134 68.8206 16.3134ZM68.8206 23.1454C67.5316 23.1454 66.4206 22.0824 66.4206 20.5674C66.4206 19.0364 67.5326 17.9894 68.8206 17.9894C70.1096 17.9894 71.2206 19.0364 71.2206 20.5674C71.2206 22.0814 70.1096 23.1454 68.8206 23.1454ZM59.5066 16.3134C57.1546 16.3134 55.2376 18.1024 55.2376 20.5664C55.2376 23.0154 57.1546 24.8194 59.5066 24.8194C61.8596 24.8194 63.7766 23.0154 63.7766 20.5664C63.7766 18.1024 61.8596 16.3134 59.5066 16.3134ZM59.5066 23.1454C58.2176 23.1454 57.1066 22.0824 57.1066 20.5674C57.1066 19.0364 58.2186 17.9894 59.5066 17.9894C60.7956 17.9894 61.9066 19.0364 61.9066 20.5674C61.9076 22.0814 60.7956 23.1454 59.5066 23.1454ZM48.4286 17.6194V19.4234H52.7466C52.6176 20.4384 52.2796 21.1794 51.7636 21.6944C51.1356 22.3224 50.1526 23.0154 48.4286 23.0154C45.7706 23.0154 43.6926 20.8724 43.6926 18.2144C43.6926 15.5564 45.7706 13.4134 48.4286 13.4134C49.8626 13.4134 50.9096 13.9774 51.6826 14.7024L52.9556 13.4294C51.8756 12.3984 50.4426 11.6094 48.4286 11.6094C44.7876 11.6094 41.7266 14.5734 41.7266 18.2144C41.7266 21.8554 44.7876 24.8194 48.4286 24.8194C50.3936 24.8194 51.8766 24.1744 53.0356 22.9664C54.2276 21.7744 54.5986 20.0984 54.5986 18.7454C54.5986 18.3274 54.5666 17.9404 54.5016 17.6184H48.4286V17.6194ZM93.7366 19.0204C93.3826 18.0704 92.3026 16.3134 90.0956 16.3134C87.9046 16.3134 86.0836 18.0374 86.0836 20.5664C86.0836 22.9504 87.8886 24.8194 90.3046 24.8194C92.2536 24.8194 93.3816 23.6274 93.8496 22.9344L92.3996 21.9674C91.9166 22.6764 91.2556 23.1434 90.3046 23.1434C89.3546 23.1434 88.6776 22.7084 88.2426 21.8544L93.9296 19.5024L93.7366 19.0204ZM87.9366 20.4384C87.8886 18.7944 89.2096 17.9574 90.1606 17.9574C90.9016 17.9574 91.5296 18.3284 91.7396 18.8594L87.9366 20.4384ZM83.3136 24.5624H85.1816V12.0614H83.3136V24.5624ZM80.2516 17.2644H80.1876C79.7686 16.7644 78.9626 16.3134 77.9486 16.3134C75.8216 16.3134 73.8726 18.1824 73.8726 20.5834C73.8726 22.9674 75.8216 24.8204 77.9486 24.8204C78.9636 24.8204 79.7686 24.3694 80.1876 23.8544H80.2516V24.4664C80.2516 26.0934 79.3816 26.9634 77.9806 26.9634C76.8366 26.9634 76.1276 26.1424 75.8376 25.4494L74.2106 26.1264C74.6776 27.2534 75.9176 28.6394 77.9806 28.6394C80.1716 28.6394 82.0246 27.3504 82.0246 24.2084V16.5724H80.2526V17.2644H80.2516ZM78.1096 23.1454C76.8206 23.1454 75.7416 22.0654 75.7416 20.5834C75.7416 19.0844 76.8206 17.9894 78.1096 17.9894C79.3816 17.9894 80.3806 19.0844 80.3806 20.5834C80.3806 22.0654 79.3816 23.1454 78.1096 23.1454ZM102.491 12.0614H98.0196V24.5624H99.8846V19.8264H102.49C104.558 19.8264 106.592 18.3294 106.592 15.9444C106.592 13.5594 104.559 12.0614 102.491 12.0614ZM102.539 18.0864H99.8846V13.8014H102.539C103.934 13.8014 104.726 14.9564 104.726 15.9444C104.726 16.9124 103.934 18.0864 102.539 18.0864ZM114.071 16.2914C112.72 16.2914 111.321 16.8864 110.742 18.2054L112.398 18.8964C112.752 18.2054 113.412 17.9794 114.103 17.9794C115.068 17.9794 116.049 18.5584 116.065 19.5874V19.7164C115.727 19.5234 115.003 19.2344 114.119 19.2344C112.334 19.2344 110.516 20.2154 110.516 22.0484C110.516 23.7214 111.98 24.7984 113.62 24.7984C114.874 24.7984 115.566 24.2354 116 23.5754H116.064V24.5404H117.866V19.7474C117.867 17.5294 116.209 16.2914 114.071 16.2914ZM113.845 23.1424C113.235 23.1424 112.382 22.8364 112.382 22.0804C112.382 21.1154 113.444 20.7454 114.361 20.7454C115.18 20.7454 115.567 20.9224 116.065 21.1634C115.92 22.3224 114.923 23.1424 113.845 23.1424ZM124.428 16.5644L122.289 21.9844H122.225L120.005 16.5644H117.995L121.324 24.1394L119.426 28.3534H121.372L126.503 16.5644H124.428ZM107.622 24.5624H109.487V12.0614H107.622V24.5624Z" fill="white"/>
<rect x="1.16406" y="0.623047" width="134" height="39" rx="4.5" stroke="#A6A6A6"/>
<defs>
<filter id="filter0_ii_954_20327" x="10.6406" y="7.26367" width="23.0938" height="25.7207" filterUnits="userSpaceOnUse" color-interpolation-filters="sRGB">
<feFlood flood-opacity="0" result="BackgroundImageFix"/>
<feBlend mode="normal" in="SourceGraphic" in2="BackgroundImageFix" result="shape"/>
<feColorMatrix in="SourceAlpha" type="matrix" values="0 0 0 0 0 0 0 0 0 0 0 0 0 0 0 0 0 0 127 0" result="hardAlpha"/>
<feOffset dy="-0.15"/>
<feComposite in2="hardAlpha" operator="arithmetic" k2="-1" k3="1"/>
<feColorMatrix type="matrix" values="0 0 0 0 0 0 0 0 0 0 0 0 0 0 0 0 0 0 0.12 0"/>
<feBlend mode="normal" in2="shape" result="effect1_innerShadow_954_20327"/>
<feColorMatrix in="SourceAlpha" type="matrix" values="0 0 0 0 0 0 0 0 0 0 0 0 0 0 0 0 0 0 127 0" result="hardAlpha"/>
<feOffset dy="0.15"/>
<feComposite in2="hardAlpha" operator="arithmetic" k2="-1" k3="1"/>
<feColorMatrix type="matrix" values="0 0 0 0 1 0 0 0 0 1 0 0 0 0 1 0 0 0 0.25 0"/>
<feBlend mode="normal" in2="effect1_innerShadow_954_20327" result="effect2_innerShadow_954_20327"/>
</filter>
<filter id="filter1_i_954_20327" x="11.1016" y="20.123" width="16.6875" height="12.8613" filterUnits="userSpaceOnUse" color-interpolation-filters="sRGB">
<feFlood flood-opacity="0" result="BackgroundImageFix"/>
<feBlend mode="normal" in="SourceGraphic" in2="BackgroundImageFix" result="shape"/>
<feColorMatrix in="SourceAlpha" type="matrix" values="0 0 0 0 0 0 0 0 0 0 0 0 0 0 0 0 0 0 127 0" result="hardAlpha"/>
<feOffset dy="-0.15"/>
<feComposite in2="hardAlpha" operator="arithmetic" k2="-1" k3="1"/>
<feColorMatrix type="matrix" values="0 0 0 0 0 0 0 0 0 0 0 0 0 0 0 0 0 0 0.08 0"/>
<feBlend mode="normal" in2="shape" result="effect1_innerShadow_954_20327"/>
</filter>
<linearGradient id="paint0_linear_954_20327" x1="22.4684" y1="8.83189" x2="5.68643" y2="25.6139" gradientUnits="userSpaceOnUse">
<stop stop-color="#00A0FF"/>
<stop offset="0.0066" stop-color="#00A1FF"/>
<stop offset="0.2601" stop-color="#00BEFF"/>
<stop offset="0.5122" stop-color="#00D2FF"/>
<stop offset="0.7604" stop-color="#00DFFF"/>
<stop offset="1" stop-color="#00E3FF"/>
</linearGradient>
<linearGradient id="paint1_linear_954_20327" x1="34.5048" y1="20.1237" x2="10.3089" y2="20.1237" gradientUnits="userSpaceOnUse">
<stop stop-color="#FFE000"/>
<stop offset="0.4087" stop-color="#FFBD00"/>
<stop offset="0.7754" stop-color="#FFA500"/>
<stop offset="1" stop-color="#FF9C00"/>
</linearGradient>
<linearGradient id="paint2_linear_954_20327" x1="25.4937" y1="22.4169" x2="2.73517" y2="45.1754" gradientUnits="userSpaceOnUse">
<stop stop-color="#FF3A44"/>
<stop offset="1" stop-color="#C31162"/>
</linearGradient>
<linearGradient id="paint3_linear_954_20327" x1="7.96296" y1="0.299548" x2="18.1253" y2="10.4618" gradientUnits="userSpaceOnUse">
<stop stop-color="#32A071"/>
<stop offset="0.0685" stop-color="#2DA771"/>
<stop offset="0.4762" stop-color="#15CF74"/>
<stop offset="0.8009" stop-color="#06E775"/>
<stop offset="1" stop-color="#00F076"/>
</linearGradient>
</defs>
</svg>
