<svg width="75" height="40" viewBox="0 0 75 40" fill="none" xmlns="http://www.w3.org/2000/svg">
<path d="M61.0898 29.4275L56.9517 27.8657C53.7177 26.652 50.4834 25.4387 47.2488 24.2257C46.8589 24.0794 46.5982 23.8588 46.7256 23.4047C46.8258 23.0468 47.1767 22.9316 47.6418 23.104C52.6902 24.9966 57.7359 26.897 62.779 28.805C63.0065 28.8922 63.2932 29.223 63.2802 29.4275C63.2672 29.632 62.9704 29.9287 62.7329 30.029C55.9034 32.8599 49.068 35.6809 42.2265 38.4918C41.0687 38.9679 39.9208 39.4672 38.748 39.9062C38.4298 40.0247 38.0808 40.0311 37.7585 39.9243C29.6627 36.6509 21.5731 33.3665 13.4899 30.0711C13.1702 29.9418 12.8413 29.8114 12.8544 29.3994C12.8674 28.9874 13.1912 28.8701 13.519 28.7498C19.209 26.6654 24.8976 24.5786 30.5849 22.4895C30.708 22.4372 30.8347 22.3937 30.9638 22.3591C31.2987 22.287 31.5653 22.3852 31.6876 22.725C31.8099 23.0649 31.6796 23.3265 31.3538 23.4588C30.7523 23.7004 30.1358 23.918 29.5253 24.1425L15.5139 29.2761C15.4237 29.3092 15.3385 29.3583 15.1671 29.4405C15.3776 29.5408 15.5179 29.6089 15.6633 29.6681C23.0233 32.6634 30.3821 35.6611 37.7395 38.6612C38.1405 38.8256 38.4603 38.7564 38.8282 38.604C46.1281 35.5967 53.4293 32.5909 60.7319 29.5869C60.8071 29.5558 60.8793 29.5207 61.0898 29.4275Z" fill="#323232"/>
<path d="M50.2924 18.8525C50.0678 19.0069 49.8633 19.2285 49.6147 19.3026C48.7205 19.5693 47.7922 19.7287 46.9131 20.0334C44.8811 20.7352 43.628 22.1897 43.1037 24.2618C42.825 25.3645 42.5814 26.4672 42.3318 27.577C42.2556 27.9178 42.1233 28.1945 41.7303 28.1875C41.3634 28.1814 41.2361 27.9218 41.1639 27.598C40.9153 26.4953 40.6818 25.3806 40.39 24.2839C39.7495 21.8689 38.1846 20.3903 35.7547 19.8219C35.0249 19.6505 34.285 19.5061 33.5703 19.2836C33.447 19.2369 33.3355 19.1638 33.2436 19.0694C33.1516 18.9751 33.0814 18.8617 33.038 18.7373C32.9588 18.3954 33.2555 18.22 33.5773 18.1428C34.4043 17.9423 35.2374 17.7649 36.0574 17.5413C38.329 16.9228 39.7795 15.4622 40.384 13.1906C40.6707 12.111 40.8923 11.0143 41.1399 9.92461C41.2181 9.57977 41.3273 9.25597 41.7564 9.26299C42.1854 9.27001 42.2777 9.60383 42.3579 9.94466C42.6025 11.0183 42.83 12.0959 43.1037 13.1626C43.7052 15.5254 45.2189 17.002 47.5697 17.6235C48.2624 17.806 48.9731 17.9423 49.6538 18.1548C49.8974 18.23 50.0909 18.4666 50.3074 18.629C50.2974 18.7032 50.2954 18.7784 50.2924 18.8525ZM41.7454 24.9515C42.3238 21.8098 44.051 19.7016 47.2238 18.7162C45.684 18.2611 44.4811 17.5203 43.5147 16.4206C42.5483 15.3209 42.0611 13.9655 41.7484 12.524C41.1339 15.7038 39.3495 17.799 36.1075 18.7262C39.3705 19.6555 41.1369 21.7697 41.7454 24.9515Z" fill="#323232"/>
<path d="M38.2429 6.28367C37.9632 6.51022 37.8158 6.70269 37.6264 6.76585C37.1843 6.91522 36.7241 6.99541 36.269 7.1137C34.7192 7.52003 33.7595 8.50278 33.3899 10.0619C33.2366 10.7125 33.0942 11.3651 32.9479 12.0167C32.8817 12.3115 32.7684 12.5831 32.4156 12.5801C32.0627 12.5771 31.9624 12.2934 31.8973 12.0027C31.7549 11.3671 31.6136 10.7316 31.4642 10.098C31.0893 8.49309 30.0898 7.50767 28.4929 7.11471C28.0548 7.00845 27.6178 6.89817 27.1777 6.80194C26.877 6.73678 26.6153 6.63453 26.6223 6.27264C26.6293 5.91075 26.9 5.82153 27.1957 5.75537C27.697 5.64309 28.2072 5.53483 28.7054 5.39348C30.0828 5.00954 30.9991 4.13238 31.387 2.74698C31.5875 2.04526 31.7239 1.31747 31.8883 0.601713C31.9594 0.300975 32.0386 -0.00978839 32.4336 0.000236229C32.7985 0.006251 32.8787 0.29496 32.9449 0.581664C33.1113 1.29742 33.2566 2.01819 33.4461 2.72693C33.826 4.10732 34.7202 5.00954 36.0976 5.41052C36.5938 5.55488 37.1081 5.64309 37.6013 5.80549C37.8008 5.87165 37.9602 6.06713 38.2429 6.28367ZM29.2127 6.28367C30.9018 6.94028 31.9444 8.07707 32.4206 9.85443C32.8877 8.09912 33.9062 6.96033 35.4981 6.31274C33.7328 5.38145 33.1554 4.81506 32.4005 2.80412C31.9424 4.49126 30.9089 5.63207 29.2127 6.28367Z" fill="#323232"/>
<path d="M22.1381 18.6881C22.1373 18.3256 22.2078 17.9664 22.3458 17.6311C22.4837 17.2959 22.6864 16.991 22.9421 16.7341C23.4587 16.2151 24.1602 15.9226 24.8924 15.9208C25.6246 15.9191 26.3275 16.2083 26.8465 16.7249C27.3654 17.2414 27.658 17.9429 27.6597 18.6751C27.6605 19.0377 27.59 19.3968 27.452 19.7321C27.3141 20.0674 27.1114 20.3722 26.8557 20.6292C26.3392 21.1482 25.6376 21.4407 24.9054 21.4424C24.1732 21.4441 23.4703 21.1549 22.9514 20.6384C22.4324 20.1219 22.1399 19.4203 22.1381 18.6881ZM24.8839 17.0982C24.6772 17.0967 24.4722 17.1358 24.2807 17.2134C24.0891 17.2911 23.9147 17.4057 23.7675 17.5507C23.6202 17.6957 23.5029 17.8683 23.4224 18.0587C23.3418 18.249 23.2996 18.4534 23.298 18.6601C23.2964 18.8668 23.3355 19.0717 23.4132 19.2633C23.4908 19.4548 23.6054 19.6292 23.7504 19.7765C24.0433 20.0739 24.4424 20.2428 24.8598 20.246C25.2772 20.2492 25.6788 20.0864 25.9762 19.7935C26.2736 19.5006 26.4425 19.1015 26.4457 18.6841C26.4489 18.2667 26.2861 17.8651 25.9932 17.5677C25.7003 17.2703 25.3013 17.1014 24.8839 17.0982Z" fill="#323232"/>
<path d="M37.7974 29.8144C37.7919 30.2422 37.6601 30.6587 37.4187 31.0119C37.1773 31.365 36.8369 31.6389 36.4403 31.7993C36.0437 31.9597 35.6086 31.9993 35.1896 31.9133C34.7706 31.8273 34.3863 31.6194 34.085 31.3157C33.7837 31.012 33.5788 30.6262 33.496 30.2065C33.4132 29.7868 33.4563 29.352 33.6197 28.9567C33.7832 28.5613 34.0597 28.2231 34.4147 27.9844C34.7697 27.7457 35.1873 27.6172 35.6151 27.615C35.9035 27.6135 36.1894 27.6695 36.4559 27.7797C36.7225 27.89 36.9644 28.0522 37.1676 28.2569C37.3708 28.4617 37.5311 28.7049 37.6393 28.9723C37.7474 29.2397 37.8012 29.526 37.7974 29.8144ZM35.6241 30.7728C35.7534 30.7744 35.8818 30.7501 36.0016 30.7014C36.1214 30.6526 36.2302 30.5804 36.3217 30.4889C36.4131 30.3975 36.4853 30.2886 36.5341 30.1688C36.5828 30.049 36.6071 29.9207 36.6055 29.7914C36.6071 29.5304 36.5053 29.2795 36.3223 29.0935C36.1393 28.9075 35.89 28.8016 35.6291 28.7989C35.3684 28.8031 35.1196 28.9086 34.9355 29.0931C34.7513 29.2777 34.6463 29.5267 34.6427 29.7874C34.6423 29.9165 34.6674 30.0445 34.7165 30.164C34.7656 30.2835 34.8379 30.3921 34.929 30.4836C35.0202 30.5751 35.1285 30.6478 35.2478 30.6974C35.367 30.747 35.4949 30.7726 35.6241 30.7728Z" fill="#323232"/>
<path d="M44.2135 4.10128C43.9671 4.09967 43.7236 4.04876 43.4973 3.95156C43.271 3.85437 43.0664 3.71284 42.8956 3.53533C42.7248 3.35783 42.5913 3.14793 42.5029 2.91801C42.4145 2.68809 42.3731 2.4428 42.381 2.1966C42.397 1.70781 42.6044 1.24488 42.9585 0.907579C43.3126 0.570276 43.7851 0.385605 44.2741 0.393362C44.7631 0.40112 45.2295 0.600685 45.5727 0.949052C45.916 1.29742 46.1086 1.76669 46.1091 2.25575C46.1084 2.50215 46.0585 2.74592 45.9623 2.97279C45.8662 3.19965 45.7257 3.40504 45.5492 3.57692C45.3726 3.7488 45.1635 3.88372 44.9342 3.97376C44.7048 4.0638 44.4598 4.10715 44.2135 4.10128ZM44.9152 2.25876C44.9185 2.17122 44.9045 2.08388 44.874 2.00176C44.8435 1.91965 44.797 1.84438 44.7373 1.78028C44.6776 1.71619 44.6058 1.66453 44.526 1.62828C44.4463 1.59203 44.3602 1.57191 44.2726 1.56906C44.1809 1.56223 44.0888 1.57482 44.0023 1.60601C43.9159 1.63719 43.8369 1.68627 43.7707 1.75003C43.7045 1.8138 43.6524 1.89082 43.618 1.97606C43.5836 2.0613 43.5675 2.15285 43.5709 2.24472C43.5755 2.41873 43.6475 2.58416 43.7715 2.70624C43.8956 2.82832 44.0622 2.89754 44.2363 2.89936C44.4103 2.90118 44.5783 2.83545 44.7049 2.71598C44.8315 2.59652 44.9069 2.43263 44.9152 2.25876Z" fill="#323232"/>
</svg>
