<svg width="14" height="14" viewBox="0 0 14 14" fill="none" xmlns="http://www.w3.org/2000/svg">
<path d="M6.94138 10.988C9.12435 10.988 10.894 9.21831 10.894 7.03535C10.894 4.85238 9.12435 3.08273 6.94138 3.08273C4.75841 3.08273 2.98877 4.85238 2.98877 7.03535C2.98877 9.21831 4.75841 10.988 6.94138 10.988Z" stroke="white" stroke-width="0.912141" stroke-linecap="round" stroke-linejoin="round"/>
<path d="M11.2831 11.3771L11.204 11.2981M11.204 2.77261L11.2831 2.69356L11.204 2.77261ZM2.5995 11.3771L2.67855 11.2981L2.5995 11.3771ZM6.94129 1.00305V0.954407V1.00305ZM6.94129 13.1163V13.0676V13.1163ZM0.908999 7.03535H0.860352H0.908999ZM13.0222 7.03535H12.9736H13.0222ZM2.67855 2.77261L2.5995 2.69356L2.67855 2.77261Z" stroke="white" stroke-width="1.21619" stroke-linecap="round" stroke-linejoin="round"/>
</svg>
