<svg width="25" height="25" viewBox="0 0 25 25" fill="none" xmlns="http://www.w3.org/2000/svg">
<g clip-path="url(#clip0_954_20321)">
<path d="M12.3359 24.1211C18.9634 24.1211 24.3359 18.7485 24.3359 12.1211C24.3359 5.49368 18.9634 0.121094 12.3359 0.121094C5.70852 0.121094 0.335938 5.49368 0.335938 12.1211C0.335938 18.7485 5.70852 24.1211 12.3359 24.1211Z" fill="#0088CC"/>
<path d="M5.33171 12.0199C5.33171 12.0199 11.3317 9.5575 13.4126 8.69044C14.2103 8.34362 16.9155 7.2338 16.9155 7.2338C16.9155 7.2338 18.1641 6.74825 18.06 7.92744C18.0254 8.41299 17.7479 10.1124 17.4704 11.9506C17.0543 14.5517 16.6034 17.3956 16.6034 17.3956C16.6034 17.3956 16.534 18.1933 15.9444 18.3321C15.3548 18.4708 14.3837 17.8465 14.2103 17.7078C14.0716 17.6037 11.6092 16.043 10.7074 15.28C10.4647 15.0719 10.1872 14.6558 10.7421 14.1702C11.9907 13.0257 13.482 11.6037 14.3837 10.702C14.7999 10.2858 15.2161 9.31472 13.482 10.4939C11.0196 12.1933 8.59182 13.7887 8.59182 13.7887C8.59182 13.7887 8.03691 14.1355 6.99645 13.8234C5.95599 13.5113 4.74211 13.0951 4.74211 13.0951C4.74211 13.0951 3.90974 12.5748 5.33171 12.0199Z" fill="white"/>
</g>
<defs>
<clipPath id="clip0_954_20321">
<rect width="24" height="24" fill="white" transform="translate(0.335938 0.123047)"/>
</clipPath>
</defs>
</svg>
