<svg width="64" height="64" viewBox="0 0 64 64" fill="none" xmlns="http://www.w3.org/2000/svg">
<g clip-path="url(#clip0_279_8413)">
<path d="M32 64C49.6731 64 64 49.6731 64 32C64 14.3269 49.6731 0 32 0C14.3269 0 0 14.3269 0 32C0 49.6731 14.3269 64 32 64Z" fill="#0037FD"/>
<path d="M13.316 31.7229C13.316 31.7229 29.316 25.1564 34.8652 22.8443C36.9923 21.9194 44.2062 18.9599 44.2062 18.9599C44.2062 18.9599 47.5357 17.6651 47.2582 20.8096C47.1657 22.1044 46.4259 26.6362 45.686 31.5379C44.5762 38.4743 43.3738 46.0581 43.3738 46.0581C43.3738 46.0581 43.1889 48.1853 41.6166 48.5553C40.0444 48.9252 37.4548 47.2605 36.9923 46.8905C36.6224 46.6131 30.0559 42.4512 27.6513 40.4165C27.0039 39.8616 26.264 38.7518 27.7438 37.457C31.0733 34.405 35.0501 30.6131 37.4548 28.2084C38.5646 27.0986 39.6744 24.509 35.0501 27.6535C28.4837 32.1853 22.0097 36.4397 22.0097 36.4397C22.0097 36.4397 20.5299 37.3645 17.7553 36.5321C14.9808 35.6998 11.7438 34.5899 11.7438 34.5899C11.7438 34.5899 9.52413 33.2027 13.316 31.7229Z" fill="white"/>
</g>
<defs>
<clipPath id="clip0_279_8413">
<rect width="64" height="64" fill="white"/>
</clipPath>
</defs>
</svg>
