<svg width="25" height="25" viewBox="0 0 25 25" fill="none" xmlns="http://www.w3.org/2000/svg">
<g clip-path="url(#clip0_954_20319)">
<path d="M24.0391 4.67959C23.1466 5.07109 22.1956 5.33059 21.2041 5.45659C22.2241 4.84759 23.0026 3.89059 23.3686 2.73709C22.4176 3.30409 21.3676 3.70459 20.2486 3.92809C19.3456 2.96659 18.0586 2.37109 16.6546 2.37109C13.9306 2.37109 11.7376 4.58209 11.7376 7.29259C11.7376 7.68259 11.7706 8.05759 11.8516 8.41459C7.76106 8.21509 4.14156 6.25459 1.71006 3.26809C1.28556 4.00459 1.03656 4.84759 1.03656 5.75509C1.03656 7.45909 1.91406 8.96959 3.22206 9.84409C2.43156 9.82909 1.65606 9.59959 0.999062 9.23809C0.999062 9.25309 0.999062 9.27259 0.999062 9.29209C0.999062 11.6831 2.70456 13.6691 4.94106 14.1266C4.54056 14.2361 4.10406 14.2886 3.65106 14.2886C3.33606 14.2886 3.01806 14.2706 2.71956 14.2046C3.35706 16.1531 5.16606 17.5856 7.31706 17.6321C5.64306 18.9416 3.51756 19.7306 1.21656 19.7306C0.813063 19.7306 0.426062 19.7126 0.0390625 19.6631C2.21856 21.0686 4.80156 21.8711 7.58706 21.8711C16.6411 21.8711 21.5911 14.3711 21.5911 7.87009C21.5911 7.65259 21.5836 7.44259 21.5731 7.23409C22.5496 6.54109 23.3701 5.67559 24.0391 4.67959Z" fill="#1DA1F2"/>
</g>
<defs>
<clipPath id="clip0_954_20319">
<rect width="24" height="24" fill="white" transform="translate(0.0390625 0.123047)"/>
</clipPath>
</defs>
</svg>
